<svg width="1296" height="1296" viewBox="0 0 1296 1296" fill="none" xmlns="http://www.w3.org/2000/svg">
<mask id="mask0_473_2058" style="mask-type:alpha" maskUnits="userSpaceOnUse" x="0" y="0" width="1296" height="1296">
<circle cx="647.869" cy="647.869" r="647.869" fill="#D9D9D9"/>
</mask>
<g mask="url(#mask0_473_2058)">
<path d="M1003.04 1182.75C1000.07 1184.87 996.668 1186.99 993.694 1189.12C990.295 1191.24 987.321 1193.37 983.923 1195.07C980.949 1196.77 978.4 1198.47 975.426 1200.16C975.001 1200.59 974.576 1200.59 974.151 1201.01C964.38 1206.96 954.184 1212.48 943.988 1217.58C941.014 1219.28 937.615 1220.98 934.641 1222.26C934.641 1222.26 934.217 1222.68 933.792 1222.68C930.393 1224.38 926.994 1226.08 923.596 1227.78C916.798 1231.18 909.576 1234.15 902.779 1237.13C899.38 1238.82 895.556 1240.1 892.158 1241.37C888.759 1242.65 884.936 1244.35 881.537 1245.62C878.138 1246.9 874.315 1248.6 870.916 1249.87C870.916 1249.87 870.916 1249.87 870.491 1249.87C867.092 1251.14 863.269 1252.42 859.87 1253.69C852.223 1256.24 844.151 1258.79 836.504 1261.34C833.955 1262.19 830.981 1263.04 828.432 1263.89C820.36 1266.44 812.289 1268.56 804.217 1270.26C801.243 1271.11 798.269 1271.54 794.87 1272.39C787.223 1274.09 779.151 1275.79 771.504 1277.48C769.805 1277.91 768.53 1277.91 766.831 1278.33C764.282 1278.76 761.308 1279.18 758.759 1279.61C754.936 1280.03 751.537 1280.88 747.713 1281.31C746.014 1281.73 744.315 1281.73 742.615 1282.16C740.491 1282.58 737.942 1283.01 735.393 1283.01C728.596 1283.86 721.374 1284.71 714.576 1285.56C712.452 1285.98 709.903 1285.98 707.779 1286.41H707.354C704.38 1286.83 701.406 1286.83 698.432 1287.26C695.458 1287.68 692.485 1287.68 689.511 1287.68C687.811 1287.68 685.687 1288.11 683.988 1288.11C680.589 1288.11 677.615 1288.53 674.642 1288.53C670.393 1288.53 666.57 1288.96 662.321 1288.96C658.073 1288.96 654.249 1288.96 650.001 1288.96C647.027 1288.96 644.053 1288.96 641.079 1288.96C461.798 1286.41 300.785 1210.36 185.655 1089.71C185.655 1089.71 185.655 1089.28 185.23 1089.28C172.485 1077.81 183.53 1016.64 234.936 977.975C299.511 929.119 454.151 898.531 454.151 898.531C454.151 898.531 514.053 888.759 736.243 935.066C866.243 962.256 965.23 1001.77 1020.46 1108.82C1031.93 1130.92 1043.4 1164.9 1003.04 1182.75Z" fill="white"/>
<path d="M737.517 930.393C819.086 946.961 906.177 964.805 973.301 1018.76C995.818 1037.03 1010.69 1063.79 1023.01 1089.71C1028.96 1102.45 1034.9 1115.62 1039.58 1129.64C1042.12 1138.99 1045.95 1149.61 1043.82 1160.65C1043.4 1163.63 1040.85 1167.45 1038.73 1169.58C1028.96 1179.35 1018.33 1185.29 1007.71 1192.94C945.262 1236.28 873.465 1266.86 799.118 1283.01C633.432 1319.12 454.151 1291.08 308.432 1203.99C260.001 1174.67 215.393 1138.99 177.158 1096.93C172.909 1091.83 172.909 1083.33 172.909 1077.81C173.334 1065.07 176.733 1052.75 180.981 1041.28C191.177 1014.94 204.347 988.595 226.863 970.327C243.007 959.282 260.426 949.935 278.269 942.288C334.347 918.497 393.399 901.929 454.151 895.131C459.249 894.706 460.099 901.929 455.001 902.778C396.798 914.674 339.02 932.517 285.066 956.733C265.524 966.504 244.707 975.001 228.988 990.295C214.118 1006.44 203.497 1026.41 195.001 1046.8C189.478 1059.12 185.654 1078.66 187.354 1088.43C214.118 1120.29 245.556 1148.33 279.543 1172.55C465.622 1302.55 748.138 1311.05 946.112 1202.71C963.955 1192.94 981.373 1181.9 997.942 1170.43C1006.01 1164.9 1014.51 1160.23 1020.88 1153.86C1021.31 1153.43 1020.88 1153.86 1020.88 1154.28C1020.88 1154.71 1020.46 1155.13 1020.46 1155.13C1020.88 1150.03 1019.18 1143.24 1017.06 1136.44C1009.41 1111.8 997.092 1085.88 983.922 1063.37C963.105 1029.8 927.844 1008.56 892.158 991.569C867.517 980.099 841.602 971.177 815.262 962.68C788.922 954.184 762.158 946.961 735.393 940.589C728.596 938.889 730.72 929.118 737.517 930.393Z" fill="black"/>
<path d="M1144.08 1446.15H69.6709C69.6709 1446.15 119.802 1283.86 157.612 1133.89C172.481 1075.26 200.096 995.393 234.083 972.027C280.815 939.74 358.135 921.472 392.971 909.152C417.187 900.655 435.88 897.681 453.298 893.008C453.298 895.132 453.723 896.831 453.723 898.956C453.723 898.956 492.383 985.622 611.762 1033.63C709.05 1073.14 743.037 1057.42 751.958 1013.66C757.481 985.622 771.501 979.25 762.579 964.38C757.481 960.132 754.083 953.759 752.383 947.387L748.985 933.367C757.056 931.668 764.704 929.544 772.351 926.995C774.9 926.145 777.024 925.295 779.573 924.446C826.73 951.21 891.73 959.707 970.324 1017.48C984.344 1027.68 1025.13 1071.86 1042.12 1179.35C1065.91 1320.82 1144.08 1446.15 1144.08 1446.15Z" fill="black"/>
<path d="M1151.73 1450.39C832.679 1451.67 384.052 1455.92 69.6725 1455.07C64.5745 1455.07 60.751 1451.24 60.751 1446.14C73.0712 1393.46 93.0386 1317.42 106.633 1264.31C117.254 1221.41 130.424 1173.4 141.045 1130.07C156.339 1073.56 175.457 1000.07 223.463 962.68C239.182 952.484 256.601 945.262 273.169 938.889C309.705 925.294 347.091 915.098 384.476 903.628C405.718 895.556 429.509 890.458 451.601 884.085C456.274 882.811 460.947 885.36 462.222 889.608C462.646 890.882 462.646 896.405 463.071 897.68L454.15 889.608C457.548 889.608 460.947 891.732 462.222 894.706C465.62 901.928 470.293 909.575 474.967 916.373C519.999 981.373 592.646 1023.01 668.267 1042.55C689.934 1047.22 718.823 1052.75 734.542 1033.63C744.738 1020.46 744.313 1000.07 752.385 985.621C755.359 978.824 758.757 974.575 755.359 968.628L757.058 970.752C751.535 965.654 747.287 959.281 745.163 952.484C743.463 946.111 742.189 940.588 740.914 935.065C739.64 930.392 743.038 925.294 747.712 924.445C757.483 922.32 767.679 919.347 777.025 915.948C779.574 915.098 782.123 915.523 784.248 916.373C796.568 921.895 809.313 926.569 822.483 931.242C863.692 944.412 904.901 958.431 942.712 980.098C955.457 987.32 967.777 995.392 979.672 1003.89C993.692 1014.51 1002.61 1026.41 1011.54 1040.42C1043.82 1090.98 1054.02 1149.18 1064.64 1206.96C1080.78 1281.73 1108.82 1353.95 1141.96 1422.78L1146.63 1432.12L1148.76 1436.8L1150.03 1438.92L1150.46 1440.2L1150.88 1440.62C1150.88 1440.2 1151.31 1441.05 1151.73 1442.32C1153.43 1445.29 1153.01 1448.69 1151.73 1450.39ZM1136.44 1441.9C1135.16 1443.59 1134.74 1446.57 1135.59 1448.69C1136.01 1449.97 1136.44 1450.82 1136.44 1450.39L1136.01 1449.97L1135.16 1448.69L1133.89 1446.57C1105.85 1398.56 1082.48 1348.01 1064.21 1295.75C1052.32 1261.76 1042.55 1227.35 1036.18 1191.67C1028.53 1144.51 1016.63 1095.23 991.143 1054.44C984.346 1043.82 975.849 1032.35 965.653 1024.71C954.182 1016.63 942.712 1008.56 930.816 1001.76C907.025 987.32 881.535 975.85 855.62 965.654C829.705 955.033 802.091 946.961 776.176 932.092L783.398 932.516C773.202 936.34 762.581 939.314 751.535 941.438L758.333 930.817C760.882 940.164 761.306 951.209 768.953 957.582C773.627 962.68 775.751 971.601 774.476 978.824C773.202 985.196 770.653 989.445 768.953 993.268C765.13 1001.34 762.581 1008.14 760.882 1017.06C746.012 1090.98 660.62 1062.52 612.189 1043.4C544.215 1016.21 480.914 968.628 446.503 902.778L454.574 907.876C449.901 907.876 446.078 904.477 445.653 899.804L445.228 894.281L456.274 901.928C432.483 906.177 411.241 909.575 389.15 917.647C338.594 933.366 284.64 946.536 240.882 976.699C195.424 1009.84 169.509 1127.52 155.065 1181.9C139.346 1241.8 122.777 1301.27 105.359 1360.33C96.4372 1390.07 87.5157 1419.38 78.1693 1449.12L69.6725 1437.65C378.104 1437.22 823.757 1439.35 1136.44 1441.9Z" fill="black"/>
<path d="M713.299 1065.49C713.724 1065.92 713.724 1065.92 714.149 1066.34C714.149 1065.92 714.149 1065.49 714.149 1065.49C714.149 1065.49 713.724 1065.49 713.299 1065.49Z" fill="white"/>
<path d="M814.838 907.877C814.838 907.877 814.837 867.093 779.151 856.472C713.302 836.505 588.824 827.583 505.556 827.583C505.556 827.583 470.295 830.132 457.55 836.505C445.23 842.452 430.36 846.276 426.962 873.89C425.262 887.485 425.262 909.152 425.687 928.269C426.112 953.759 436.308 978.4 454.151 996.668C482.615 1025.98 541.668 1064.22 609.217 1075.69C771.929 1102.88 816.112 1031.93 814.838 994.119C813.138 950.361 814.838 907.877 814.838 907.877Z" fill="black"/>
<path d="M805.916 907.452C805.066 889.184 795.295 869.642 776.602 864.543C770.655 862.844 764.707 861.145 759.184 859.87C676.341 841.602 590.524 837.354 505.557 836.079C494.511 837.354 473.269 839.053 460.949 844.151C455.851 846.7 449.478 849.249 445.23 852.648C435.459 861.145 435.034 876.014 434.609 889.184C434.184 896.831 434.184 904.478 434.184 912.125C431.635 963.955 454.576 991.57 495.785 1019.18C526.798 1040.43 561.635 1055.72 598.596 1064.22C649.151 1073.99 705.23 1078.66 753.661 1059.12C779.151 1048.92 802.942 1027.26 805.916 999.217C806.341 993.269 805.916 983.073 805.916 977.125C805.066 955.034 805.066 929.968 805.916 907.452ZM823.334 907.877C822.91 930.393 822.91 954.609 823.334 977.125C823.334 984.347 824.184 994.543 823.334 1001.34C819.511 1037.03 791.047 1063.79 760.034 1076.54C711.178 1096.93 656.798 1093.53 605.818 1085.46C594.772 1083.33 581.178 1080.36 570.557 1076.96C524.674 1062.09 481.766 1038.3 447.354 1004.31C422.713 980.099 413.367 946.112 415.491 912.55C416.766 887.91 412.517 858.596 432.91 839.478C439.282 834.38 445.655 831.406 452.452 828.432C469.87 821.635 486.864 820.36 504.707 818.661C562.06 819.086 619.413 822.06 676.766 828.857C710.753 833.106 745.164 837.779 778.302 847.55L780.851 848.4L783.825 849.674C798.694 856.896 805.066 872.615 813.563 885.36C819.086 892.158 822.91 899.38 823.334 907.877Z" fill="black"/>
<path d="M428.66 927.844C438.006 1064.22 648.3 1209.94 773.202 1134.31C805.915 1112.22 814.836 1070.16 813.986 1033.2C813.986 1020.46 812.712 1007.71 811.862 994.543C811.437 991.569 816.535 990.72 816.96 993.694C834.803 1065.07 825.882 1144.09 742.614 1165.33C625.784 1193.79 493.235 1107.97 441.83 1005.16C429.934 981.373 422.287 955.033 421.862 928.694C422.287 924.445 428.235 923.595 428.66 927.844Z" fill="white"/>
<path d="M777.449 1043.4C768.527 1087.16 710.749 1113.5 613.462 1073.99C512.351 1033.2 468.593 935.914 457.547 907.026C517.449 794.869 475.815 717.124 475.815 717.124C613.887 705.228 734.54 866.666 734.54 866.666L753.233 946.535C754.933 953.333 758.331 959.28 763.429 963.529C772.351 979.248 782.972 1015.36 777.449 1043.4Z" fill="white"/>
<path d="M455.424 908.3C463.496 895.979 468.594 881.535 471.993 867.515C478.365 838.202 480.49 808.463 480.914 778.724V767.679C479.64 756.633 475.816 745.162 471.568 734.966C466.045 721.372 486.012 712.875 492.385 726.47C493.235 728.169 493.235 731.143 493.235 732.842C494.509 790.62 497.058 864.966 460.522 912.973C457.973 915.522 452.875 911.698 455.424 908.3Z" fill="black"/>
<path d="M739.213 865.817C745.586 869.64 747.71 874.738 748.56 879.836C751.109 890.032 750.259 901.078 752.808 911.699C754.932 921.895 761.305 931.666 763.004 942.287C765.128 953.333 771.501 976.699 774.05 988.17C774.9 990.719 773.2 993.693 770.227 994.117C768.527 994.542 767.253 994.117 765.978 993.268C760.455 988.595 757.906 983.921 754.508 977.974C748.985 967.778 745.161 958.431 741.762 946.96C738.789 936.764 740.063 925.719 737.514 915.098C735.39 904.902 729.442 895.13 727.318 884.51C726.044 879.411 725.619 873.889 729.442 867.516C731.991 864.967 736.24 864.117 739.213 865.817Z" fill="black"/>
<path d="M769.803 977.974C688.659 973.725 622.385 948.235 557.81 833.104C612.189 881.111 676.339 899.379 743.888 907.876L752.81 946.961C754.509 953.758 764.705 973.725 769.803 977.974Z" fill="black"/>
<path d="M766.406 962.255C780.851 989.444 789.347 1023.43 780.426 1053.59C773.629 1074.84 754.086 1090.56 732.844 1096.5C683.563 1109.67 626.635 1088.86 582.877 1065.49C528.923 1035.33 488.988 984.771 463.498 929.542C461.798 925.294 467.746 921.895 470.295 926.144C479.217 943.987 489.413 961.405 500.883 977.124C512.354 993.268 525.524 1008.14 540.393 1021.31C583.727 1060.39 642.354 1084.61 700.981 1084.61C761.308 1082.91 784.249 1051.05 770.23 992.418C768.106 983.072 764.707 973.301 760.034 965.229C757.485 961.83 763.857 958.006 766.406 962.255Z" fill="black"/>
<path d="M930.818 452.026C938.465 487.712 942.288 516.601 921.471 611.764C901.079 706.503 940.589 802.091 840.327 889.183C772.778 947.81 654.674 958.856 560.36 894.705C528.497 873.039 520.001 771.928 494.935 733.267C484.314 717.124 477.942 743.039 453.726 716.274C420.164 679.738 379.805 606.241 399.772 476.241C432.059 265.522 599.02 240.882 722.648 264.248C846.7 287.614 910.425 358.137 930.818 452.026Z" fill="white"/>
<path d="M474.542 753.66C464.771 737.516 452.45 723.497 440.98 708.627C423.986 685.686 411.241 659.346 402.744 632.157C366.208 515.751 385.751 364.085 493.659 291.438C593.496 223.889 784.248 244.281 871.764 325.849C915.522 365.359 939.738 422.712 944.836 480.49C947.385 519.15 938.039 556.536 929.967 593.921C920.62 630.457 918.496 666.993 918.496 704.804C918.071 742.614 916.372 782.124 901.927 817.81C879.836 872.189 833.529 916.372 777.875 935.065C704.803 960.555 618.561 946.111 558.659 897.255C556.11 895.131 558.659 891.732 561.633 893.006C640.228 937.614 743.463 945.261 819.934 893.856C865.392 863.268 896.829 814.836 904.052 760.457C909.999 723.497 908.3 686.111 911.699 648.725C912.973 632.157 917.646 609.216 921.045 592.647C926.143 565.032 929.542 537.418 929.117 509.804C928.692 482.614 922.744 455.849 914.673 429.934C886.633 337.745 806.339 283.366 713.725 268.497C575.228 244.281 454.15 295.686 418.039 439.706C402.32 510.229 389.999 587.974 419.738 656.372C430.359 682.287 447.777 704.379 467.744 723.497L487.287 744.314C495.784 752.81 481.339 763.856 474.542 753.66Z" fill="black"/>
<path d="M524.671 618.561C524.671 618.561 511.501 554.836 449.475 562.483C395.945 569.28 377.253 697.581 498.756 733.267" fill="white"/>
<path d="M493.233 677.613C483.462 672.091 476.665 662.744 476.24 651.274C476.665 642.777 477.939 633.006 475.815 624.509C474.54 616.437 466.044 614.313 459.671 614.738C452.874 616.012 448.625 624.509 447.351 631.306C447.351 631.731 446.926 633.006 446.926 633.43C446.501 635.555 443.102 635.555 442.253 633.43C436.73 616.862 449.05 598.594 466.893 600.718C491.959 602.417 495.357 628.757 490.684 648.725C488.135 657.221 491.534 664.868 496.207 672.091L497.057 673.365C499.181 675.914 495.782 679.313 493.233 677.613Z" fill="black"/>
<path d="M833.102 573.529C839.475 603.692 851.37 631.731 866.24 658.071C879.41 690.359 845.423 720.947 815.259 719.672C811.861 719.672 811.436 714.999 814.41 714.15C833.527 708.202 850.946 695.457 853.919 675.914C855.194 669.967 853.495 664.869 850.521 659.771C836.501 633.431 828.004 603.267 830.129 573.529C830.129 571.405 833.102 571.405 833.102 573.529Z" fill="black"/>
<path d="M522.549 618.987C512.777 593.922 491.536 570.131 463.072 570.556C460.523 570.131 456.274 570.98 453.725 570.98C446.503 571.405 440.555 573.954 435.032 579.052C407.843 606.242 412.516 654.248 434.608 684.412C442.255 695.033 452.026 704.379 463.072 712.026C474.117 719.673 486.438 725.621 499.608 730.719C502.581 731.569 501.307 736.242 498.333 735.817C469.869 729.869 442.679 715.85 423.987 692.484C395.098 657.647 389.15 599.445 423.562 565.458C431.209 558.66 441.83 553.562 452.451 553.562C455.849 553.562 460.947 552.713 464.346 553.562C482.189 554.412 499.183 563.333 510.228 577.353C520 589.248 525.523 603.693 527.222 618.137C527.222 620.686 523.398 621.536 522.549 618.987Z" fill="black"/>
<path d="M802.092 762.581C801.243 769.803 800.818 774.901 799.543 779.15C794.445 801.666 784.249 790.62 765.556 791.045C742.19 791.47 702.256 813.986 693.759 783.823C692.06 778.3 691.21 773.202 690.785 768.529C686.537 726.045 728.171 740.065 769.805 756.209C785.948 763.006 796.145 763.431 802.092 762.581Z" fill="white"/>
<path d="M799.545 782.124L788.499 779.575C786.799 779.151 787.224 777.026 788.924 776.602L800.394 775.752C804.643 775.752 804.218 782.974 799.545 782.124Z" fill="black"/>
<path d="M814.837 757.059C806.765 769.804 788.497 765.131 776.602 761.732C758.759 756.634 702.255 727.745 693.334 754.085C690.785 762.582 692.484 772.353 694.184 781.274C695.458 787.222 698.007 793.17 703.53 796.144C712.027 800.392 721.373 798.268 730.295 795.719C743.04 792.32 754.51 786.797 768.105 786.797C774.903 786.797 781.7 788.921 786.798 788.921C789.347 788.921 790.197 788.497 791.471 787.222C792.746 785.948 794.02 782.974 794.87 780.425C796.569 774.902 797.844 768.529 799.118 762.582C799.543 760.882 800.818 760.033 802.517 760.457C803.791 760.882 804.641 761.732 804.641 763.006C804.641 767.68 804.216 772.778 803.791 777.451C801.242 795.294 794.445 801.242 776.177 796.993C754.086 793.595 734.118 804.216 711.177 802.091C704.38 801.667 696.733 797.843 692.484 791.47C690.36 788.497 689.085 784.673 687.811 782.124C683.987 772.353 679.739 761.307 682.288 750.261C692.909 716.274 739.216 736.242 761.308 745.588C773.628 750.686 799.968 765.555 810.589 754.085C812.713 752.81 815.687 754.935 814.837 757.059Z" fill="black"/>
<path d="M691.636 763.432C701.832 763.007 720.1 756.634 727.747 767.68C729.022 769.38 729.447 769.804 731.571 769.804C734.545 769.38 738.368 767.255 741.767 768.955C747.29 770.229 753.238 771.504 758.761 772.778C760.035 773.203 760.885 774.053 760.46 775.327C760.035 776.602 759.185 777.451 757.911 777.027C751.538 776.177 745.166 776.177 738.793 774.478C735.819 775.752 730.721 777.876 726.473 776.177C723.924 775.327 721.8 772.778 720.1 771.079C719.251 770.229 717.551 770.229 716.277 770.229C708.205 769.804 699.708 773.203 691.636 774.478C683.14 775.327 682.715 762.157 691.636 763.432Z" fill="black"/>
<path d="M712.027 593.922C689.086 592.222 667.844 582.451 650.001 568.007C646.602 565.458 650.426 560.36 653.825 562.909C666.995 571.405 681.439 577.353 697.158 579.902C702.256 580.752 707.779 581.177 712.452 581.177C720.949 581.177 720.949 594.347 712.027 593.922Z" fill="black"/>
<path d="M836.926 587.973C850.096 586.274 865.39 584.15 875.586 574.804C876.436 573.529 878.56 573.529 879.409 574.804C883.233 578.627 873.462 585 870.913 587.124C861.141 593.496 850.096 597.745 839.05 600.719C835.651 601.568 832.253 599.444 831.403 596.045C830.128 592.222 833.102 588.398 836.926 587.973Z" fill="black"/>
<path d="M732.418 554.836C740.49 559.51 750.686 553.137 751.111 543.366C751.111 538.268 750.261 532.745 746.862 528.072C736.666 514.477 686.96 493.66 652.549 502.581C622.81 510.229 695.457 533.595 732.418 554.836Z" fill="black"/>
<path d="M862.841 559.934C856.894 564.607 847.122 559.084 845.848 550.162C844.998 545.489 845.423 540.391 847.547 536.143C854.345 523.398 885.782 505.979 911.273 514.476C933.364 522.548 891.305 539.117 862.841 559.934Z" fill="black"/>
<path d="M664.019 573.104C660.621 576.078 658.496 580.752 658.072 585.425L657.647 597.32C657.222 607.516 664.869 616.013 674.64 616.438C684.836 616.863 693.333 609.216 693.758 599.444L694.183 587.549C694.183 587.124 694.183 586.699 694.183 586.274C682.712 585.425 673.366 580.752 664.019 573.104Z" fill="black"/>
<path d="M838.2 593.497C838.2 593.922 838.2 593.922 838.2 594.346L837.776 605.392C837.351 614.739 844.573 622.81 853.919 623.235C863.266 623.66 871.338 616.438 871.763 607.091L872.187 596.046C872.612 591.797 870.913 587.974 868.789 585C859.442 590.523 848.821 591.797 838.2 593.497Z" fill="black"/>
<path d="M934.217 467.745C933.367 462.647 932.093 457.549 931.243 452.026C926.57 431.209 919.772 411.667 910.851 393.399L860.72 414.216C846.276 420.164 830.132 421.863 814.413 419.314L615.589 384.902C591.374 380.654 568.008 394.674 559.936 417.615C553.988 434.183 544.642 457.549 536.995 474.118C476.668 483.889 456.7 469.445 408.269 446.928C404.446 445.229 398.923 439.706 394.674 437.582C402.321 398.922 373.008 237.484 409.544 195.425C421.864 181.406 434.184 179.706 446.08 183.955C473.694 193.726 462.223 188.203 482.191 166.961C498.334 150.392 518.727 135.948 543.792 135.523C556.112 135.098 565.883 137.647 573.955 142.321C599.446 156.34 630.459 151.667 653.4 134.249C660.622 129.151 668.269 125.752 676.766 125.752C689.086 125.752 700.132 130.85 709.053 137.647C726.047 150.392 748.563 153.366 769.38 149.118C770.655 148.693 771.929 148.693 773.204 148.693C778.302 148.693 783.825 149.968 788.498 152.092C806.341 159.739 826.308 160.589 844.151 152.941C852.648 149.543 862.844 149.543 873.04 159.314C885.785 171.634 902.354 179.706 920.197 180.131C924.87 180.131 930.818 182.255 938.04 186.928C941.439 189.477 944.413 194.151 946.537 200.523C949.936 210.294 958.008 217.517 968.204 220.491C974.576 222.615 979.25 228.987 980.524 243.432C984.348 288.889 944.838 430.785 934.217 467.745Z" fill="black"/>
<path d="M967.357 219.641C948.664 226.438 945.265 222.615 924.023 217.092C902.782 211.569 884.089 235.36 868.795 210.719C846.703 174.608 805.919 199.249 797.847 192.451C789.775 185.654 764.71 163.138 729.448 186.928C706.082 202.647 676.344 174.608 638.958 174.608C564.187 174.608 550.592 229.412 524.677 204.347C498.762 179.706 513.631 196.275 475.396 203.072C437.161 209.87 417.618 186.928 417.618 186.928C426.965 180.556 436.311 180.556 445.233 183.53C472.847 193.301 461.376 187.778 481.344 166.536C497.487 149.968 517.88 135.523 542.945 135.098C555.265 134.674 565.036 137.223 573.108 141.896C598.599 155.915 629.612 151.242 652.553 133.824C659.775 128.726 667.422 125.327 675.919 125.327C688.239 125.327 699.285 130.425 708.206 137.223C725.2 149.968 747.716 152.942 768.533 148.693C769.808 148.268 771.082 148.268 772.357 148.268C777.455 148.268 782.978 149.543 787.651 151.667C805.494 159.314 825.461 160.164 843.304 152.517C851.801 149.118 861.997 149.118 872.193 158.889C884.938 171.21 901.507 179.281 919.35 179.706C924.023 179.706 929.971 181.83 937.193 186.504C940.592 189.053 943.566 193.726 945.69 200.098C949.089 209.445 957.161 216.667 967.357 219.641Z" fill="black"/>
<path d="M521.277 596.046C521.277 598.595 517.878 599.87 516.604 597.321C506.832 579.478 487.29 557.811 449.904 562.484C404.872 568.007 384.479 659.347 450.754 709.478C466.473 720.948 483.041 727.321 488.139 729.445C489.414 729.87 489.839 731.144 489.839 731.994L485.59 761.732C485.166 763.432 483.466 765.131 482.192 763.857C467.323 746.863 461.375 737.517 425.689 700.556C399.773 673.791 370.46 635.981 366.636 573.105C363.662 517.876 376.832 474.543 393.401 439.281C393.826 438.007 395.525 437.582 396.8 438.007C452.878 463.922 473.695 478.791 534.022 469.87C536.146 469.445 537.421 471.569 536.571 473.268C529.773 486.438 522.976 497.059 515.754 502.157C494.937 518.301 519.153 557.386 521.277 596.046Z" fill="#D6D6D6"/>
<path d="M524.251 595.621C524.675 602.419 515.754 603.693 513.205 597.746C504.708 582.452 490.688 570.131 473.695 566.733C454.153 562.909 434.61 567.157 423.989 585.85C404.447 619.837 415.068 666.144 442.682 692.909C456.277 705.229 469.447 722.223 488.564 727.321C490.688 727.746 491.963 730.295 491.538 731.994V732.419V733.269V735.393V739.216C491.538 745.589 491.538 754.51 491.113 760.883C491.113 767.68 482.192 772.778 477.519 766.831C472.421 761.733 464.773 751.536 460.1 745.589C434.185 713.301 400.623 685.262 383.205 646.602C356.865 588.824 362.388 520.85 383.63 462.648C387.028 454.151 390.002 445.229 394.675 437.582C395.95 436.733 397.224 437.157 398.499 438.007C426.113 450.327 455.427 467.321 486.015 471.144C501.734 472.844 517.453 471.994 532.747 469.87C534.022 469.87 535.296 469.02 536.571 469.87C540.394 471.994 535.296 477.942 534.447 480.916C530.623 489.412 525.95 498.334 519.153 504.706C505.558 517.876 522.551 545.491 524.251 562.484C525.1 573.955 523.401 585.001 524.251 595.621ZM517.878 596.046C517.453 585.85 511.081 576.504 506.832 567.157C500.46 548.889 493.662 528.072 500.885 508.53C503.434 502.582 508.532 497.909 513.63 494.51C520.427 488.138 526.375 479.641 530.623 471.144C529.349 472.844 531.048 477.517 534.447 477.092C477.094 486.863 446.081 469.02 395.1 444.804L394.251 444.38C395.95 445.229 398.074 444.38 398.924 442.68V442.255C397.649 445.229 395.95 448.203 394.675 451.602C368.76 511.079 361.963 583.726 391.277 643.203C409.545 680.589 443.107 706.504 468.597 738.791C472.845 743.889 481.767 754.51 486.015 760.033C484.741 758.334 480.492 757.909 479.643 760.033L479.218 760.883C479.643 758.759 480.068 756.21 480.917 754.086C482.617 747.288 485.166 738.791 486.865 731.569C486.865 731.144 486.865 731.144 486.865 731.144C483.041 729.445 478.793 727.746 474.97 726.046C465.198 721.798 454.153 719.674 444.806 713.726C413.368 692.059 395.95 650.001 403.597 611.765C408.27 584.576 428.237 555.687 458.826 558.236C483.891 557.811 507.257 572.68 518.728 594.772L519.153 595.621C518.728 595.197 518.303 595.197 517.878 596.046Z" fill="black"/>
<path d="M521.702 497.059C519.577 499.184 517.878 501.308 515.754 502.582C510.656 506.406 508.107 511.929 507.257 518.301C480.917 519.576 443.107 508.53 429.937 504.282C426.963 503.432 425.264 500.883 425.264 497.909V495.785C425.264 491.112 429.512 488.138 433.76 488.987C463.499 497.059 520.002 497.059 521.702 497.059Z" fill="black"/>
<path d="M513.206 553.987C489.84 552.288 467.323 548.04 457.127 545.915C453.729 545.066 451.604 542.517 451.604 539.118C451.604 534.87 455.428 531.896 459.676 532.321C478.794 535.294 499.186 534.87 508.957 534.445C509.382 540.393 511.082 546.765 513.206 553.987Z" fill="black"/>
<path d="M477.092 631.732C477.092 631.732 443.105 626.634 445.654 674.216C446.929 698.431 446.929 711.601 446.504 718.399C446.079 723.072 449.053 727.32 453.301 729.02C458.399 731.144 463.922 729.02 466.471 723.922C470.295 717.124 474.543 707.778 474.543 700.131C474.543 687.386 488.138 675.915 488.138 675.915C488.138 675.915 475.818 665.294 477.092 631.732Z" fill="white"/>
<path d="M475.818 633.007C475.818 633.432 476.243 633.856 476.668 633.856C476.668 633.856 476.668 633.856 476.243 633.856H475.393C455.001 635.556 448.628 653.399 449.478 671.667C449.903 683.562 450.753 695.458 450.328 706.928C451.177 713.301 447.354 721.798 453.726 725.196C457.55 727.32 462.648 725.621 464.347 721.373C468.171 713.726 471.994 706.079 471.994 697.582C473.694 687.811 480.066 680.164 486.864 674.216V677.615C477.942 668.268 475.818 655.523 474.543 643.628C474.968 640.654 474.968 635.981 475.818 633.007ZM478.792 630.033C480.066 641.928 480.066 654.249 485.164 664.869C486.439 667.843 488.563 671.242 491.112 673.366C492.811 674.641 492.811 677.19 491.112 678.464C485.164 683.987 480.066 690.785 479.217 698.432C479.217 707.778 475.393 716.7 471.145 724.771C467.746 731.994 457.975 735.817 450.753 731.569C446.079 729.02 442.681 723.922 442.681 718.399C442.681 714.151 443.106 710.752 443.106 706.503C443.106 694.608 442.256 683.137 441.831 671.242C441.831 663.595 442.256 654.673 445.655 647.026C449.903 635.131 463.073 627.059 475.818 629.183C477.092 629.183 478.367 629.608 478.792 630.033Z" fill="black"/>
<path d="M471.569 1134.74C485.589 1073.56 467.321 1004.74 451.602 943.562C445.229 919.347 438.857 896.405 435.883 876.438C430.36 842.876 434.184 811.013 447.778 781.275C464.347 744.314 461.798 712.876 461.798 711.602L453.301 712.451C453.301 712.876 455.85 743.464 440.131 777.876C426.112 808.889 421.863 842.451 427.386 877.713C430.785 898.105 436.733 921.471 443.105 945.687C458.824 1005.59 476.667 1073.56 463.072 1132.61C455.425 1165.33 470.295 1218.86 491.536 1272.39C494.935 1272.81 497.909 1273.24 501.308 1273.66C479.641 1220.13 464.347 1166.18 471.569 1134.74Z" fill="black"/>
<path d="M446.928 698.856C447.353 708.203 446.928 714.575 446.928 718.399C446.503 723.072 449.477 727.321 453.725 729.02C458.823 731.144 464.346 729.02 466.895 723.922C470.719 717.124 474.967 707.778 474.967 700.131C474.967 699.706 474.967 698.856 474.967 698.432C466.471 701.83 456.274 704.379 446.928 698.856Z" fill="white"/>
<path d="M448.203 700.556C448.628 706.504 449.053 712.026 449.053 717.974C448.628 720.523 449.477 723.072 451.177 725.196C456.7 730.719 464.347 727.321 466.471 720.523C469.869 713.726 472.843 706.504 472.843 698.857L475.817 700.981C466.471 702.68 456.7 705.229 447.778 701.406C447.778 701.406 448.203 700.981 448.203 700.556ZM446.079 696.732C446.928 696.732 448.628 697.157 449.477 698.007C457.124 703.53 466.896 700.981 474.543 696.732C475.817 695.883 477.941 697.157 477.517 698.857C477.092 708.628 473.268 717.974 468.17 726.471C463.497 732.843 453.726 733.268 448.203 727.745C445.654 725.196 444.379 720.948 444.804 717.549C444.804 710.327 445.654 703.53 446.079 696.732Z" fill="black"/>
<path d="M847.125 981.372C854.347 931.242 847.55 895.555 845.001 884.935C843.726 885.784 842.877 887.059 841.602 887.908C840.328 889.183 839.053 890.033 837.779 891.307C840.328 904.902 845.001 937.189 838.628 980.098C835.654 1000.07 834.805 1031.5 834.38 1068.04C833.53 1103.3 822.484 1191.24 809.314 1274.51C812.288 1273.66 815.262 1272.81 818.236 1272.39C831.406 1189.97 842.027 1103.73 842.877 1068.46C843.726 1031.93 844.151 1000.91 847.125 981.372Z" fill="black"/>
</g>
</svg>
