<svg width="1300" height="1300" viewBox="0 0 1300 1300" fill="none" xmlns="http://www.w3.org/2000/svg">
<mask id="mask0_409_3699" style="mask-type:alpha" maskUnits="userSpaceOnUse" x="0" y="0" width="1296" height="1296">
<circle cx="647.869" cy="647.869" r="647.869" fill="#D9D9D9"/>
</mask>
<g mask="url(#mask0_409_3699)">
<path d="M1003.04 1182.75C1000.07 1184.87 996.667 1186.99 993.693 1189.12C990.295 1191.24 987.321 1193.37 983.922 1195.07C980.948 1196.76 978.399 1198.46 975.425 1200.16C975 1200.59 974.576 1200.59 974.151 1201.01C964.38 1206.96 954.183 1212.48 943.987 1217.58C941.013 1219.28 937.615 1220.98 934.641 1222.26C934.641 1222.26 934.216 1222.68 933.791 1222.68C930.393 1224.38 926.994 1226.08 923.595 1227.78C916.798 1231.18 909.576 1234.15 902.778 1237.12C899.38 1238.82 895.556 1240.1 892.157 1241.37C888.759 1242.65 884.935 1244.35 881.536 1245.62C878.138 1246.9 874.314 1248.59 870.915 1249.87C870.915 1249.87 870.915 1249.87 870.491 1249.87C867.092 1251.14 863.268 1252.42 859.87 1253.69C852.223 1256.24 844.151 1258.79 836.504 1261.34C833.955 1262.19 830.981 1263.04 828.432 1263.89C820.36 1266.44 812.288 1268.56 804.216 1270.26C801.242 1271.11 798.268 1271.54 794.87 1272.39C787.223 1274.09 779.151 1275.78 771.504 1277.48C769.804 1277.91 768.53 1277.91 766.831 1278.33C764.281 1278.76 761.308 1279.18 758.759 1279.61C754.935 1280.03 751.536 1280.88 747.713 1281.31C746.013 1281.73 744.314 1281.73 742.615 1282.16C740.491 1282.58 737.942 1283.01 735.393 1283.01C728.595 1283.86 721.373 1284.71 714.576 1285.56C712.451 1285.98 709.902 1285.98 707.778 1286.41H707.353C704.38 1286.83 701.406 1286.83 698.432 1287.25C695.458 1287.68 692.484 1287.68 689.51 1287.68C687.811 1287.68 685.687 1288.1 683.987 1288.1C680.589 1288.1 677.615 1288.53 674.641 1288.53C670.393 1288.53 666.569 1288.95 662.321 1288.95C658.072 1288.95 654.249 1288.95 650 1288.95C647.027 1288.95 644.053 1288.95 641.079 1288.95C461.798 1286.41 300.785 1210.36 185.654 1089.71C185.654 1089.71 185.654 1089.28 185.229 1089.28C172.484 1077.81 183.53 1016.63 234.935 977.974C299.51 929.118 454.151 898.53 454.151 898.53C454.151 898.53 514.053 888.758 736.242 935.066C866.242 962.255 965.229 1001.76 1020.46 1108.82C1031.93 1130.92 1043.4 1164.9 1003.04 1182.75Z" fill="white"/>
<path d="M737.517 930.392C819.086 946.961 906.177 964.804 973.301 1018.76C995.818 1037.03 1010.69 1063.79 1023.01 1089.71C1028.96 1102.45 1034.9 1115.62 1039.58 1129.64C1042.12 1138.99 1045.95 1149.61 1043.82 1160.65C1043.4 1163.63 1040.85 1167.45 1038.73 1169.58C1028.96 1179.35 1018.33 1185.29 1007.71 1192.94C945.262 1236.27 873.465 1266.86 799.118 1283.01C633.432 1319.12 454.151 1291.08 308.432 1203.99C260.001 1174.67 215.393 1138.99 177.158 1096.93C172.909 1091.83 172.909 1083.33 172.909 1077.81C173.334 1065.07 176.733 1052.75 180.981 1041.27C191.177 1014.93 204.347 988.595 226.863 970.327C243.007 959.281 260.426 949.935 278.269 942.288C334.347 918.497 393.399 901.928 454.151 895.131C459.249 894.706 460.099 901.928 455.001 902.778C396.798 914.673 339.02 932.516 285.066 956.732C265.524 966.503 244.707 975 228.988 990.294C214.118 1006.44 203.497 1026.41 195.001 1046.8C189.478 1059.12 185.654 1078.66 187.354 1088.43C214.118 1120.29 245.556 1148.33 279.543 1172.55C465.622 1302.55 748.138 1311.05 946.112 1202.71C963.955 1192.94 981.373 1181.9 997.942 1170.42C1006.01 1164.9 1014.51 1160.23 1020.88 1153.86C1021.31 1153.43 1020.88 1153.86 1020.88 1154.28C1020.88 1154.71 1020.46 1155.13 1020.46 1155.13C1020.88 1150.03 1019.18 1143.24 1017.06 1136.44C1009.41 1111.8 997.092 1085.88 983.922 1063.37C963.105 1029.8 927.844 1008.56 892.158 991.569C867.517 980.098 841.602 971.177 815.262 962.68C788.922 954.183 762.158 946.961 735.393 940.588C728.596 938.889 730.72 929.118 737.517 930.392Z" fill="black"/>
<path d="M1144.09 1446.14H69.6743C69.6743 1446.14 82.4194 1260.91 146.995 1120.29C169.936 1070.59 187.779 998.366 229.838 965.653C278.269 928.268 373.857 904.902 407.844 898.104C432.91 893.006 436.308 897.68 453.727 893.006C453.727 895.131 454.151 896.83 454.151 898.954C454.151 898.954 500.034 1035.33 619.413 1083.76C716.701 1123.27 774.478 1096.93 783.4 1053.17C788.923 1025.13 771.504 979.248 762.583 964.379C757.485 960.131 754.086 953.758 752.387 947.385L748.988 933.366C757.06 931.666 764.707 929.542 772.354 926.993C774.903 926.144 777.027 925.294 779.576 924.444C841.178 941.863 915.949 973.3 981.374 1023.01C1017.06 1050.2 1046.8 1120.29 1083.33 1238.82C1126.24 1375.2 1144.09 1446.14 1144.09 1446.14Z" fill="black"/>
<path d="M818.238 1031.08C816.964 1019.18 814.839 1008.56 812.715 999.215C803.794 957.581 777.029 921.046 777.029 921.046C777.029 921.046 709.905 874.738 606.245 862.418C502.584 850.098 452.029 862.418 452.029 862.418C444.382 864.967 435.035 870.065 426.539 874.738C411.245 883.66 398.924 896.405 391.277 912.124C391.277 912.549 390.852 912.549 390.852 912.974C379.807 944.836 436.735 1062.52 583.303 1128.37C734.545 1196.34 828.434 1116.9 818.238 1031.08Z" fill="black"/>
<path d="M280.395 1693.83C274.872 1569.35 272.323 1438.07 270.624 1313.17C269.774 1264.74 267.65 1215.88 279.546 1168.3C297.814 1088.86 353.042 1014.51 432.062 988.596L429.088 991.57C438.01 969.054 447.781 943.988 469.448 930.818C470.297 930.394 470.722 931.668 470.297 932.093C455.428 942.289 447.356 959.707 440.559 976.276C438.01 981.799 436.735 988.596 434.186 993.694C404.448 1004.74 378.108 1023.86 356.441 1046.37C334.774 1069.32 317.356 1096.5 305.886 1125.82C291.016 1162.78 284.644 1202.29 283.369 1241.8C282.519 1390.92 286.768 1548.53 280.395 1693.83Z" fill="white"/>
<path d="M469.446 1693.82C460.949 1616.08 455.851 1536.21 455.001 1458.04C454.152 1386.24 456.276 1312.32 464.773 1240.95C469.446 1199.31 484.315 1104.15 515.328 1076.54L518.727 1073.99C520.851 1073.14 521.276 1072.29 524.25 1071.86L520.001 1076.11C522.126 1059.97 528.073 1044.67 536.57 1031.08C539.544 1026.83 542.518 1022.58 545.916 1018.33C546.341 1017.91 547.616 1018.33 546.766 1019.18C543.792 1023.43 540.818 1027.68 538.694 1032.35C531.472 1045.95 526.374 1060.82 525.099 1076.11C525.099 1076.54 524.675 1076.54 524.675 1076.96C522.126 1077.81 519.152 1079.93 517.027 1082.48C510.655 1089.28 506.407 1099.05 502.583 1107.55C496.635 1122.42 492.387 1138.56 488.988 1154.71C480.492 1195.91 475.818 1239.25 472.42 1281.31C467.746 1351.83 466.047 1426.6 466.047 1497.12L466.472 1536.63C466.472 1588.89 469.021 1641.57 470.295 1693.82C470.72 1694.25 469.446 1694.67 469.446 1693.82Z" fill="white"/>
<path d="M644.052 1693.82C644.477 1564.25 638.954 1434.25 638.529 1304.67C638.105 1246.05 638.105 1185.72 639.379 1127.09C643.203 1111.8 646.176 1095.65 647.451 1079.51C647.876 1074.41 647.876 1068.89 647.451 1063.37C647.451 1062.52 648.726 1062.52 648.726 1063.37C652.124 1084.61 649.575 1106.27 645.327 1127.52C647.026 1173.82 648.726 1221.83 649.575 1268.99C652.549 1375.2 653.399 1481.41 650.85 1587.61C650.425 1608.01 649.15 1638.17 647.876 1658.56C647.026 1670.46 645.752 1681.93 644.902 1693.82C644.902 1694.25 644.477 1694.25 644.052 1694.25V1693.82Z" fill="white"/>
<path d="M842.877 1693.82C839.053 1595.69 836.504 1492.88 828.007 1395.16C822.909 1333.14 814.837 1271.96 802.942 1211.21C795.72 1174.67 786.373 1137.71 771.504 1103.3C768.955 1083.76 762.582 1062.52 747.288 1048.92C746.864 1048.5 746.864 1048.07 747.288 1048.07C747.713 1047.65 747.713 1047.65 748.138 1048.07C752.386 1051.05 756.21 1054.87 759.609 1059.12C768.955 1071.44 774.903 1088.43 777.027 1102.45C794.445 1136.01 804.216 1172.55 813.138 1209.08C818.661 1232.88 823.759 1258.79 827.583 1282.58C833.105 1316.57 838.203 1359.9 840.752 1394.31C842.877 1415.13 844.151 1447.84 845.426 1469.08C847.125 1519.22 847.55 1568.92 846.7 1619.05L844.576 1693.82C844.576 1694.25 844.151 1694.25 843.726 1694.25C843.301 1694.25 842.877 1693.82 842.877 1693.82Z" fill="white"/>
<path d="M1002.61 1693.4C1013.23 1576.99 1008.99 1458.89 992.418 1343.33C988.169 1313.17 981.797 1281.73 975 1251.99C966.928 1222.68 957.156 1192.94 943.986 1165.75C934.64 1144.93 922.32 1124.97 910 1105.85C893.006 1081.63 871.339 1056.57 847.973 1038.3C836.078 1028.53 823.333 1019.18 809.738 1012.39C802.941 1003.46 798.692 994.542 788.921 986.046C781.274 978.823 771.928 972.876 761.307 972.451C760.882 972.451 760.457 972.026 760.457 971.601C760.457 971.176 760.882 971.176 760.882 971.176C766.405 970.752 771.928 972.451 777.026 974.575C791.895 981.797 802.941 994.967 811.862 1008.56C870.915 1036.18 917.647 1092.25 948.66 1150.03C960.98 1174.67 972.026 1200.16 979.673 1226.5L986.47 1249.02C1006.86 1333.14 1014.93 1419.8 1016.21 1506.05C1016.63 1568.92 1013.23 1631.8 1003.46 1693.82C1003.46 1694.25 1003.04 1694.25 1002.61 1694.25C1002.61 1694.25 1002.61 1693.82 1002.61 1693.4Z" fill="white"/>
<path d="M811.44 1204.84C870.918 1206.96 915.101 1187.84 921.898 1123.69C922.323 1118.59 926.146 1114.77 930.82 1113.92C956.735 1107.55 974.153 1084.61 979.251 1058.69C980.525 1054.44 980.95 1048.92 981.8 1044.67C982.225 1040 982.65 1034.9 983.074 1029.8C983.074 1029.38 983.499 1029.38 983.924 1029.38C984.349 1029.38 984.349 1029.8 984.349 1029.8C985.199 1038.73 986.048 1050.62 985.199 1059.54C983.499 1089.71 963.532 1118.17 933.369 1126.24L934.218 1125.39C930.82 1172.55 901.931 1206.96 853.499 1209.93C839.48 1211.21 825.035 1209.93 811.016 1206.54C810.591 1206.54 810.591 1206.11 810.591 1205.69C810.591 1204.84 811.016 1204.84 811.44 1204.84Z" fill="white"/>
<path d="M217.943 1008.99C222.616 1033.2 236.635 1056.99 257.877 1069.74C259.576 1071.01 263.4 1072.71 265.099 1073.99C268.923 1075.69 273.171 1077.39 276.995 1078.66L285.067 1080.78C287.191 1081.63 291.014 1082.06 293.563 1082.48L302.06 1083.76C310.557 1085.03 323.727 1080.36 327.975 1090.13C356.014 1149.61 410.818 1194.64 479.642 1181.47C483.89 1181.05 488.139 1182.74 489.838 1186.57C493.661 1192.52 498.76 1198.89 503.433 1204.41C527.648 1233.3 564.184 1254.54 602.844 1246.47C618.139 1243.5 633.008 1237.12 646.603 1228.63C647.027 1228.2 647.452 1228.63 647.452 1228.63C587.55 1278.33 520.426 1251.99 479.642 1192.52L480.916 1192.94C463.923 1195.91 446.505 1196.76 429.086 1193.37C378.106 1184.02 339.021 1140.69 318.629 1093.53L319.478 1093.95C310.557 1093.53 300.786 1093.1 291.864 1090.98C289.315 1090.56 285.067 1089.71 282.943 1088.86C277.844 1087.58 270.197 1084.61 265.524 1082.06L261.276 1079.93L257.452 1077.39C255.753 1076.11 251.505 1073.99 249.805 1072.29C230.263 1056.99 218.792 1032.78 216.243 1008.56C216.243 1008.14 216.668 1007.71 216.668 1007.71C217.943 1008.56 217.943 1008.56 217.943 1008.99Z" fill="white"/>
<path d="M796.995 1153.43C847.975 1139.84 873.04 1110.1 865.393 1056.57C864.968 1053.17 865.818 1049.77 867.942 1047.65C881.962 1031.08 885.785 1008.56 883.661 987.32C883.236 980.523 880.687 970.752 879.413 963.954C879.413 963.529 879.413 963.104 879.838 963.104C880.262 963.104 880.262 963.105 880.687 963.529C884.086 970.752 887.485 978.399 889.609 986.046C893.857 1001.76 893.857 1018.76 888.759 1034.05C886.21 1041.7 882.387 1049.35 877.289 1055.72L877.713 1054.87C884.936 1093.1 872.191 1132.61 833.53 1147.48C822.06 1152.16 809.74 1154.71 797.419 1155.13C796.145 1154.71 796.145 1153.43 796.995 1153.43Z" fill="white"/>
<path d="M316.929 944.411C310.132 966.503 317.779 991.143 334.348 1006.86L336.472 1009.41L339.021 1011.54C344.119 1015.78 350.067 1019.61 355.589 1023.43L367.485 1029.8C370.034 1031.08 371.733 1033.63 372.158 1036.6C380.655 1068.46 406.57 1093.53 435.884 1107.12C454.576 1116.89 474.969 1121.57 495.361 1125.39C501.308 1126.67 503.008 1132.19 507.256 1136.01C511.929 1140.69 517.027 1145.36 522.125 1149.61C553.139 1175.95 594.773 1189.97 635.557 1184.44L646.178 1183.17C646.603 1183.17 647.027 1183.17 647.027 1183.59C647.027 1184.02 647.027 1184.02 646.603 1184.44C605.393 1197.19 559.936 1189.12 524.25 1164.48C513.629 1157.25 498.759 1144.93 492.812 1136.86C464.348 1132.19 435.459 1123.69 411.668 1107.12C388.727 1091.83 366.21 1062.94 363.237 1037.88C356.014 1033.63 345.393 1026.83 339.021 1021.73C337.746 1020.88 332.223 1015.36 330.949 1014.08C328.825 1011.54 325.851 1008.56 324.152 1005.59C311.406 987.745 307.158 963.529 316.08 943.137C316.08 942.712 316.504 942.712 316.929 942.712C317.354 943.562 317.354 943.986 316.929 944.411Z" fill="white"/>
<path d="M391.276 912.549C390.426 932.091 397.648 951.634 410.393 966.078C412.942 969.477 417.191 973.301 420.589 976.274C421.864 977.124 426.112 980.523 427.387 981.372C431.635 984.771 439.282 986.47 439.707 992.418C440.981 1001.76 445.655 1011.54 451.178 1019.18C468.596 1044.67 498.759 1058.27 528.073 1066.76C530.622 1067.61 532.321 1068.89 533.596 1071.01C559.511 1103.73 602.419 1120.72 643.629 1116.47C650.851 1116.9 657.223 1120.72 664.87 1121.99C681.014 1126.24 698.857 1128.37 715.426 1127.09C737.517 1126.24 757.91 1116.9 768.955 1097.78C771.08 1094.8 774.053 1094.38 776.602 1092.25C788.498 1084.18 798.269 1073.14 804.217 1059.97C811.864 1044.25 810.164 1026.41 805.916 1010.26C806.766 1003.46 808.04 995.817 807.616 988.17C807.191 966.928 798.694 946.111 785.099 929.542C784.249 929.118 785.524 927.843 785.949 928.693C807.191 949.51 816.962 980.523 812.714 1009.84C826.308 1045.1 810.589 1083.76 777.452 1104.15C767.256 1124.12 740.491 1138.14 716.7 1138.99C693.334 1141.11 665.295 1136.01 645.328 1129.22C599.87 1133.89 552.289 1114.35 524.674 1077.39L525.099 1077.81C515.753 1074.84 503.008 1070.16 494.511 1065.91C492.387 1064.64 485.589 1061.24 483.465 1059.97C480.916 1058.27 475.393 1054.87 473.269 1053.17L466.896 1048.07C449.903 1034.05 436.308 1014.93 433.334 992.843L433.759 993.693C430.361 991.144 426.962 989.019 423.988 986.47L419.315 982.647L417.191 980.523C415.066 978.399 412.942 975.85 410.818 974.15C406.995 969.477 403.171 964.379 400.197 959.281C392.55 945.261 388.727 928.693 390.851 912.549C390.851 912.124 391.276 912.124 391.7 912.124C390.851 912.124 391.276 912.124 391.276 912.549Z" fill="white"/>
<path d="M755.07 1180.47C755.212 1168.27 745.627 1158.27 733.662 1158.13C721.697 1157.99 711.883 1167.77 711.741 1179.96C711.599 1192.16 721.184 1202.17 733.149 1202.31C745.114 1202.45 754.928 1192.67 755.07 1180.47Z" fill="white"/>
<path d="M780 1237.97C782.974 1260.49 768.104 1281.31 746.862 1283.85C725.621 1286.4 706.078 1270.68 703.104 1247.74C700.13 1225.23 713.725 1194.21 734.967 1191.24C756.209 1188.69 777.026 1215.03 780 1237.97Z" fill="white"/>
<path d="M724.769 1210.78C713.723 1219.7 683.984 1220.55 672.089 1212.06C657.22 1200.59 672.939 1162.78 683.135 1150.88C683.559 1150.46 684.409 1150.46 684.409 1151.31L680.586 1175.95C679.736 1184.02 678.037 1192.51 678.886 1200.16C678.886 1201.86 680.586 1202.71 682.285 1203.14C693.756 1207.38 706.076 1208.66 718.396 1209.93C720.095 1209.93 723.069 1210.36 724.344 1209.51C724.344 1209.93 724.769 1210.36 724.769 1210.78Z" fill="white"/>
<path d="M721.372 1235.85C705.229 1247.32 687.385 1252.42 667.418 1250.29C666.144 1250.29 663.594 1249.44 662.32 1249.02C641.928 1242.22 635.13 1217.16 639.379 1198.04C639.379 1197.19 640.229 1196.76 640.653 1197.61C645.327 1212.48 651.699 1234.15 669.117 1237.12C677.614 1238.4 686.536 1237.97 695.032 1237.12C703.529 1236.27 712.451 1235.42 720.947 1233.72C721.797 1234.15 722.222 1235 721.372 1235.85C721.797 1235.42 721.372 1235.85 721.372 1235.85Z" fill="white"/>
<path d="M715.424 1256.67C706.078 1260.91 697.581 1264.31 690.784 1268.56C685.686 1271.96 682.287 1274.51 680.163 1280.03C677.614 1286.83 678.039 1294.9 678.464 1304.25C679.313 1312.74 680.588 1322.09 681.013 1332.29C681.013 1332.71 680.163 1333.14 679.738 1332.71C666.143 1311.04 653.823 1269.41 686.96 1259.21C695.882 1256.24 705.653 1255.39 715 1255.82C716.274 1255.39 716.274 1256.67 715.424 1256.67Z" fill="white"/>
<path d="M726.045 1270.26C724.346 1281.31 720.097 1288.95 723.496 1297.45C729.444 1309.77 734.542 1322.51 734.542 1337.38C734.542 1337.81 733.692 1338.23 733.692 1337.81C729.869 1332.71 726.045 1327.19 722.222 1321.66C717.548 1313.17 710.326 1304.67 710.326 1294.48C710.751 1284.28 717.548 1275.36 724.771 1268.99C726.045 1268.56 726.47 1269.41 726.045 1270.26Z" fill="white"/>
<path d="M750.259 1206.53C752.383 1204.41 757.057 1200.59 759.606 1198.46C766.403 1192.94 775.749 1186.99 782.547 1181.47C782.972 1181.04 783.397 1180.62 782.972 1181.47C782.547 1181.89 782.122 1182.74 781.697 1183.59C781.272 1184.87 780.847 1185.72 781.272 1186.99C777.449 1171.7 772.776 1156.83 773.625 1140.26V1139.84C773.625 1139.41 774.475 1138.99 774.9 1139.41C780.423 1150.46 785.946 1161.93 790.194 1173.4C791.893 1177.65 794.017 1182.32 794.017 1187.42C793.593 1189.54 791.893 1190.39 790.619 1191.67C785.521 1195.49 779.573 1198.04 774.05 1200.59C771.076 1201.86 748.985 1211.21 749.834 1206.96C749.834 1206.53 750.259 1206.53 750.259 1206.53Z" fill="white"/>
<path d="M759.18 1229.48C774.475 1219.7 792.318 1215.46 807.612 1209.08C811.86 1206.53 813.984 1202.29 816.533 1197.19C820.357 1190.39 823.331 1181.89 827.579 1172.97C827.579 1172.55 828.004 1172.55 828.429 1172.55C829.703 1185.72 828.004 1200.16 821.207 1212.06C813.984 1224.38 797.841 1225.23 785.096 1227.78C776.174 1229.05 767.677 1230.33 758.756 1230.75C758.331 1230.75 758.331 1229.9 759.18 1229.48Z" fill="white"/>
<path d="M769.8 1248.17C802.937 1220.55 843.297 1242.22 836.075 1285.55C834.375 1295.75 830.552 1305.52 823.33 1313.59C822.905 1314.02 822.055 1313.59 822.055 1313.17C823.33 1308.49 824.179 1304.25 824.604 1299.57C828.852 1268.14 820.781 1241.37 783.395 1246.89C778.722 1247.32 774.048 1248.17 769.8 1249.44C769.375 1249.87 768.95 1248.59 769.8 1248.17Z" fill="white"/>
<path d="M763.854 1264.31C778.723 1262.61 794.867 1274.08 795.292 1290.65C794.442 1307.65 786.795 1322.94 772.775 1333.14C772.351 1333.56 771.501 1333.56 771.501 1332.71C775.749 1320.39 779.998 1308.07 782.122 1295.33C783.821 1288.95 782.122 1283 777.873 1277.91C774.05 1273.23 768.952 1268.99 763.429 1265.59C762.579 1264.74 763.004 1263.89 763.854 1264.31Z" fill="white"/>
<path d="M777.449 1043.4C768.527 1087.16 710.749 1113.5 613.462 1073.99C512.351 1033.2 468.593 935.915 457.547 907.027C517.449 794.87 475.815 717.125 475.815 717.125C613.887 705.229 734.54 866.667 734.54 866.667L753.233 946.536C754.933 953.334 758.331 959.281 763.429 963.53C772.351 979.249 782.972 1015.36 777.449 1043.4Z" fill="white"/>
<path d="M455.424 908.301C463.496 895.981 468.594 881.536 471.993 867.517C478.365 838.203 480.49 808.465 480.914 778.726V767.68C479.64 756.634 475.816 745.164 471.568 734.968C466.045 721.373 486.012 712.876 492.385 726.471C493.235 728.17 493.235 731.144 493.235 732.844C494.509 790.621 497.058 864.968 460.522 912.974C457.973 915.523 452.875 911.7 455.424 908.301Z" fill="black"/>
<path d="M739.213 865.818C745.586 869.641 747.71 874.739 748.56 879.837C751.109 890.033 750.259 901.079 752.808 911.7C754.932 921.896 761.305 931.667 763.004 942.288C765.129 953.334 771.501 976.7 774.05 988.171C774.9 990.72 773.2 993.693 770.227 994.118C768.527 994.543 767.253 994.118 765.978 993.269C760.455 988.595 757.906 983.922 754.508 977.974C748.985 967.778 745.161 958.432 741.763 946.961C738.789 936.765 740.063 925.72 737.514 915.099C735.39 904.903 729.442 895.131 727.318 884.51C726.044 879.412 725.619 873.89 729.442 867.517C731.991 864.968 736.24 864.118 739.213 865.818Z" fill="black"/>
<path d="M769.803 977.974C688.659 973.726 622.385 948.236 557.81 833.105C612.189 881.112 676.339 899.379 743.888 907.876L752.81 946.961C754.509 953.759 764.705 973.726 769.803 977.974Z" fill="black"/>
<path d="M766.406 962.255C780.851 989.445 789.348 1023.43 780.426 1053.6C773.629 1074.84 754.086 1090.56 732.844 1096.5C683.563 1109.67 626.635 1088.86 582.877 1065.49C528.923 1035.33 488.988 984.772 463.498 929.543C461.798 925.295 467.746 921.896 470.295 926.144C479.217 943.987 489.413 961.406 500.883 977.125C512.354 993.268 525.524 1008.14 540.393 1021.31C583.727 1060.39 642.354 1084.61 700.982 1084.61C761.308 1082.91 784.25 1051.05 770.23 992.419C768.106 983.072 764.707 973.301 760.034 965.229C757.485 961.83 763.857 958.007 766.406 962.255Z" fill="black"/>
<path d="M930.817 452.027C938.464 487.713 942.287 516.602 921.47 611.765C901.078 706.504 950.784 726.046 833.104 877.713C785.098 939.739 668.692 922.321 574.379 858.17C542.516 836.504 528.921 780.85 505.13 741.34C486.438 710.327 477.941 742.615 453.3 715.85C419.738 679.314 379.379 605.818 399.346 475.818C431.634 265.099 598.594 240.458 722.222 263.824C846.699 287.615 910.424 358.138 930.817 452.027Z" fill="white"/>
<path d="M474.542 753.66C464.771 737.092 452.025 722.647 440.13 707.353C428.659 691.634 419.313 674.216 411.666 656.373C361.11 532.321 380.653 357.713 504.705 284.641C556.11 254.902 618.137 247.68 675.914 252.353C799.542 261.275 912.973 318.203 939.738 449.053C954.182 506.83 934.64 566.308 923.594 622.811C918.496 650.85 922.744 679.739 922.32 708.628C921.895 737.942 913.823 767.255 902.777 794.445C895.98 813.138 884.084 829.706 871.764 845C851.372 869.641 830.98 894.706 805.065 913.824C799.117 918.072 788.496 920.196 781.274 921.046C761.306 924.02 741.764 924.87 721.797 923.595C643.627 920.196 559.934 882.386 528.496 806.765C527.222 803.791 531.47 801.667 533.169 804.216C573.954 868.791 648.725 900.654 723.071 904.902C746.012 906.177 769.378 905.752 791.895 901.079C802.94 895.556 812.712 885.785 822.058 876.863C844.999 853.922 868.365 829.281 884.934 801.242C904.901 763.432 915.947 722.223 912.548 679.314C911.699 660.196 911.274 640.229 915.097 621.111C918.496 601.994 922.744 583.726 925.293 564.183C927.842 545.491 929.117 526.373 929.117 507.68C926.993 452.876 909.15 396.373 874.313 353.889C797.418 258.301 615.588 233.236 513.202 298.661C448.627 338.595 418.463 413.366 408.692 486.013C393.823 573.105 398.071 658.922 467.32 722.223L487.712 743.464C495.784 752.811 481.339 763.857 474.542 753.66Z" fill="black"/>
<path d="M524.671 618.562C524.671 618.562 511.501 554.837 449.475 562.484C395.945 569.281 377.253 697.582 498.756 733.268" fill="white"/>
<path d="M493.234 677.615C483.463 672.092 476.666 662.746 476.241 651.275C476.666 642.778 477.94 633.007 475.816 624.51C474.541 616.438 466.045 614.314 459.672 614.739C452.875 616.014 448.626 624.51 447.352 631.308C447.352 631.733 446.927 633.007 446.927 633.432C446.502 635.556 443.103 635.556 442.254 633.432C436.731 616.863 449.051 598.595 466.894 600.72C491.96 602.419 495.358 628.759 490.685 648.726C488.136 657.223 491.535 664.87 496.208 672.092L497.058 673.367C499.182 675.916 495.783 679.314 493.234 677.615Z" fill="black"/>
<path d="M833.102 573.53C839.475 603.693 851.37 631.732 866.24 658.072C879.41 690.36 845.423 720.948 815.259 719.673C811.861 719.673 811.436 715 814.41 714.151C833.527 708.203 850.946 695.458 853.919 675.915C855.194 669.968 853.495 664.87 850.521 659.772C836.501 633.432 828.004 603.268 830.129 573.53C830.129 571.405 833.102 571.405 833.102 573.53Z" fill="black"/>
<path d="M522.549 618.988C512.777 593.922 491.536 570.131 463.072 570.556C460.523 570.131 456.274 570.981 453.725 570.981C446.503 571.406 440.555 573.955 435.032 579.053C407.843 606.242 412.516 654.249 434.608 684.412C442.255 695.033 452.026 704.38 463.072 712.027C474.117 719.674 486.438 725.622 499.608 730.72C502.581 731.569 501.307 736.242 498.333 735.818C469.869 729.87 442.679 715.85 423.987 692.484C395.098 657.648 389.15 599.445 423.562 565.458C431.209 558.661 441.83 553.563 452.451 553.563C455.849 553.563 460.947 552.713 464.346 553.563C482.189 554.412 499.183 563.334 510.228 577.354C520 589.249 525.523 603.693 527.222 618.138C527.222 620.687 523.398 621.537 522.549 618.988Z" fill="black"/>
<path d="M802.092 762.582C801.243 769.804 800.818 774.902 799.543 779.151C794.445 801.667 784.249 790.621 765.556 791.046C742.19 791.471 702.256 813.987 693.759 783.824C692.06 778.301 691.21 773.203 690.785 768.53C686.537 726.046 728.171 740.066 769.805 756.21C785.948 763.007 796.145 763.432 802.092 762.582Z" fill="white"/>
<path d="M799.545 782.124L788.499 779.575C786.799 779.151 787.224 777.026 788.924 776.602L800.394 775.752C804.643 775.752 804.218 782.974 799.545 782.124Z" fill="black"/>
<path d="M814.837 757.059C806.765 769.804 788.497 765.131 776.602 761.732C758.759 756.634 702.255 727.745 693.334 754.085C690.785 762.582 692.484 772.353 694.184 781.275C695.458 787.223 698.007 793.17 703.53 796.144C712.027 800.392 721.373 798.268 730.295 795.719C743.04 792.321 754.51 786.798 768.105 786.798C774.903 786.798 781.7 788.922 786.798 788.922C789.347 788.922 790.197 788.497 791.471 787.223C792.746 785.948 794.02 782.974 794.87 780.425C796.569 774.902 797.844 768.53 799.118 762.582C799.543 760.883 800.818 760.033 802.517 760.458C803.791 760.883 804.641 761.732 804.641 763.007C804.641 767.68 804.216 772.778 803.791 777.451C801.242 795.294 794.445 801.242 776.177 796.994C754.086 793.595 734.118 804.216 711.177 802.092C704.38 801.667 696.733 797.844 692.484 791.471C690.36 788.497 689.085 784.674 687.811 782.125C683.987 772.353 679.739 761.308 682.288 750.262C692.909 716.275 739.216 736.242 761.308 745.589C773.628 750.687 799.968 765.556 810.589 754.085C812.713 752.811 815.687 754.935 814.837 757.059Z" fill="black"/>
<path d="M691.636 763.432C701.832 763.007 720.1 756.634 727.747 767.68C729.022 769.38 729.447 769.804 731.571 769.804C734.545 769.38 738.368 767.255 741.767 768.955C747.29 770.229 753.238 771.504 758.761 772.778C760.035 773.203 760.885 774.053 760.46 775.327C760.035 776.602 759.185 777.451 757.911 777.027C751.538 776.177 745.166 776.177 738.793 774.478C735.819 775.752 730.721 777.876 726.473 776.177C723.924 775.327 721.8 772.778 720.1 771.079C719.251 770.229 717.551 770.229 716.277 770.229C708.205 769.804 699.708 773.203 691.636 774.478C683.14 775.327 682.715 762.157 691.636 763.432Z" fill="black"/>
<path d="M712.027 593.922C689.086 592.222 667.844 582.451 650.001 568.007C646.602 565.458 650.426 560.36 653.825 562.909C666.995 571.405 681.439 577.353 697.158 579.902C702.256 580.752 707.779 581.177 712.452 581.177C720.949 581.177 720.949 594.347 712.027 593.922Z" fill="black"/>
<path d="M836.926 587.974C850.096 586.275 865.39 584.15 875.586 574.804C876.436 573.53 878.56 573.53 879.409 574.804C883.233 578.628 873.462 585 870.913 587.124C861.141 593.497 850.096 597.745 839.05 600.719C835.651 601.569 832.253 599.445 831.403 596.046C830.128 592.222 833.102 588.399 836.926 587.974Z" fill="black"/>
<path d="M732.418 554.836C740.49 559.51 750.686 553.137 751.111 543.366C751.111 538.268 750.261 532.745 746.862 528.072C736.666 514.477 686.96 493.66 652.549 502.581C622.81 510.229 695.457 533.595 732.418 554.836Z" fill="black"/>
<path d="M862.841 559.934C856.894 564.607 847.122 559.085 845.848 550.163C844.998 545.49 845.423 540.392 847.547 536.143C854.345 523.398 885.782 505.98 911.273 514.477C933.364 522.549 891.305 539.117 862.841 559.934Z" fill="black"/>
<path d="M664.019 573.104C660.621 576.078 658.496 580.752 658.072 585.425L657.647 597.32C657.222 607.516 664.869 616.013 674.64 616.438C684.836 616.863 693.333 609.216 693.758 599.444L694.183 587.549C694.183 587.124 694.183 586.699 694.183 586.274C682.712 585.425 673.366 580.752 664.019 573.104Z" fill="black"/>
<path d="M838.2 593.497C838.2 593.922 838.2 593.922 838.2 594.346L837.776 605.392C837.351 614.739 844.573 622.81 853.919 623.235C863.266 623.66 871.338 616.438 871.763 607.091L872.187 596.046C872.612 591.797 870.913 587.974 868.789 585C859.442 590.523 848.821 591.797 838.2 593.497Z" fill="black"/>
<path d="M972.452 362.81C950.36 174.183 763.007 110.457 799.118 236.209C799.118 236.209 749.837 157.189 638.955 152.941C543.792 149.542 601.569 217.091 601.569 217.091C601.569 217.091 527.648 174.608 402.321 238.333C293.138 293.987 394.249 342.843 394.249 342.843C394.249 342.843 311.831 386.601 310.556 480.915C310.131 505.555 330.524 543.366 378.955 531.046C366.635 624.934 423.988 701.83 450.328 733.268C484.314 774.052 487.288 805.065 487.288 805.065C504.707 795.294 484.314 751.536 484.739 728.595C378.53 687.81 397.648 569.281 449.478 562.483C503.857 555.686 520.85 604.117 523.824 616.013C532.746 605.392 535.295 564.183 540.393 520.425C556.112 515.327 570.131 509.804 581.602 502.581C626.635 475.817 647.877 429.51 693.759 402.32C774.053 354.313 794.87 462.647 837.779 422.712C887.484 376.83 923.596 413.366 934.641 469.869C938.89 490.261 964.805 488.562 968.628 468.17C974.576 438.431 977.125 402.745 972.452 362.81Z" fill="black"/>
</g>
</svg>
