<?xml version="1.0" encoding="UTF-8" standalone="no"?>
<svg
   width="1200"
   height="1200"
   viewBox="0 0 1200 1200"
   fill="none"
   version="1.1"
   id="svg1216"
   sodipodi:docname="head_2_bms.svg"
   inkscape:version="1.2.2 (b0a8486, 2022-12-01)"
   xmlns:inkscape="http://www.inkscape.org/namespaces/inkscape"
   xmlns:sodipodi="http://sodipodi.sourceforge.net/DTD/sodipodi-0.dtd"
   xmlns="http://www.w3.org/2000/svg"
   xmlns:svg="http://www.w3.org/2000/svg">
  <defs
     id="defs1220" />
  <sodipodi:namedview
     id="namedview1218"
     pagecolor="#505050"
     bordercolor="#eeeeee"
     borderopacity="1"
     inkscape:showpageshadow="0"
     inkscape:pageopacity="0"
     inkscape:pagecheckerboard="0"
     inkscape:deskcolor="#505050"
     showgrid="false"
     inkscape:zoom="0.70833333"
     inkscape:cx="550.58824"
     inkscape:cy="552.70588"
     inkscape:window-width="1854"
     inkscape:window-height="1016"
     inkscape:window-x="0"
     inkscape:window-y="27"
     inkscape:window-maximized="1"
     inkscape:current-layer="svg1216" />
  <mask
     id="mask0_467_1330"
     style="mask-type:alpha"
     maskUnits="userSpaceOnUse"
     x="0"
     y="0"
     width="1197"
     height="1197">
    <circle
       cx="598.033"
       cy="598.033"
       r="598.033"
       fill="#D9D9D9"
       id="circle1185" />
  </mask>
  <g
     mask="url(#mask0_467_1330)"
     id="g1214">
    <path
       d="M717.647 963.137C709.412 1003.53 656.078 1027.84 566.274 991.372C472.941 953.725 432.549 863.921 422.353 837.254C477.647 733.725 439.216 661.96 439.216 661.96C566.667 650.98 678.039 799.999 678.039 799.999L695.294 873.725C696.863 879.999 700 885.49 704.706 889.411C712.941 903.921 722.745 937.254 717.647 963.137Z"
       fill="white"
       id="path1188" />
    <path
       d="M420.394 838.43C427.845 827.058 432.551 813.725 435.688 800.783C441.57 773.725 443.531 746.274 443.923 718.823V708.627C442.747 698.43 439.217 687.842 435.296 678.43C430.198 665.881 448.629 658.038 454.511 670.587C455.296 672.156 455.296 674.901 455.296 676.47C456.472 729.803 458.825 798.43 425.1 842.744C422.747 845.097 418.041 841.568 420.394 838.43Z"
       fill="black"
       id="path1190" />
    <path
       d="M682.353 799.216C688.236 802.745 690.196 807.451 690.981 812.157C693.334 821.568 692.549 831.765 694.902 841.568C696.863 850.98 702.745 860 704.314 869.804C706.275 880 712.157 901.568 714.51 912.157C715.294 914.51 713.726 917.255 710.981 917.647C709.412 918.039 708.236 917.647 707.059 916.863C701.961 912.549 699.608 908.235 696.471 902.745C691.373 893.333 687.844 884.706 684.706 874.117C681.961 864.706 683.138 854.51 680.785 844.706C678.824 835.294 673.334 826.274 671.373 816.47C670.196 811.765 669.804 806.666 673.334 800.784C675.687 798.431 679.608 797.647 682.353 799.216Z"
       fill="black"
       id="path1192" />
    <path
       d="M710.59 902.744C635.688 898.822 574.511 875.293 514.904 769.019C565.1 813.332 624.315 830.195 686.668 838.038L694.904 874.117C696.472 880.391 705.884 898.822 710.59 902.744Z"
       fill="black"
       id="path1194" />
    <path
       d="M707.454 888.235C720.787 913.333 728.631 944.706 720.395 972.549C714.121 992.157 696.082 1006.67 676.474 1012.16C630.984 1024.31 578.435 1005.1 538.042 983.529C488.238 955.686 451.376 909.019 427.846 858.039C426.278 854.117 431.768 850.98 434.121 854.902C442.356 871.372 451.768 887.451 462.356 901.961C472.944 916.863 485.101 930.588 498.827 942.745C538.827 978.823 592.944 1001.18 647.062 1001.18C702.748 999.608 723.925 970.196 710.984 916.078C709.023 907.451 705.886 898.431 701.572 890.98C699.219 887.843 705.101 884.314 707.454 888.235Z"
       fill="black"
       id="path1196" />
    <path
       d="M859.217 417.254C866.276 450.195 860.786 472.156 857.649 563.136C856.08 606.274 849.413 622.352 847.453 670.587C846.668 692.548 830.59 722.744 824.707 740.391C816.864 764.313 809.021 796.47 790.982 819.607C781.57 831.372 770.198 838.431 751.374 841.568C745.1 842.744 738.825 833.332 733.727 835.293C672.158 862.352 604.707 849.803 543.531 796.47C516.864 772.94 476.864 716.078 460.002 676.862C456.472 668.627 440.786 685.882 418.433 661.176C387.453 627.45 350.198 559.607 368.629 439.607C398.433 245.097 552.551 222.352 666.668 243.921C781.57 265.489 840.394 330.587 859.217 417.254Z"
       fill="white"
       id="path1198" />
    <path
       d="M438.041 695.686C429.021 680.784 417.257 667.45 406.668 653.333C390.982 631.764 379.217 607.058 371.374 581.568C330.982 455.294 369.413 283.921 510.59 243.137C562.355 227.45 617.257 228.627 669.806 238.431C740.394 250.588 810.982 286.666 845.492 352.156C858.041 376.47 867.453 402.744 870.198 429.803C871.766 447.843 868.629 465.882 866.668 483.529C864.315 501.176 863.923 518.431 863.139 536.078C861.178 562.352 857.649 588.235 856.472 614.509C854.904 632.156 856.08 649.803 853.335 667.45C847.453 702.744 834.119 735.686 823.139 769.019C814.511 794.509 805.884 825.882 779.61 838.823C760.786 850.195 738.041 850.588 717.257 849.019C714.119 849.019 711.766 848.235 709.413 849.019C658.825 858.823 611.766 850.195 569.413 819.607C549.021 803.529 524.708 788.235 509.413 767.058C507.845 764.705 510.982 761.96 512.943 763.921C525.1 776.078 539.61 785.49 554.511 794.509C569.806 803.921 583.531 813.725 598.825 820.392C631.374 836.078 667.845 838.431 703.139 832.156C705.1 831.764 709.021 830.98 710.982 831.372C723.923 832.156 736.472 833.333 749.021 831.372C764.315 829.019 779.217 822.352 787.845 809.803C796.864 797.254 801.57 779.999 807.845 763.529C820.002 730.98 834.511 698.823 841.962 665.097C845.1 650.588 845.884 628.627 847.061 613.333C849.806 578.431 856.08 543.921 856.08 508.627C856.472 490.98 856.864 473.333 856.472 456.078C851.766 368.235 801.178 292.941 717.649 261.96C624.708 227.058 500.786 229.411 432.551 310.588C399.61 349.411 384.315 400.392 377.257 450.195C363.923 529.411 369.021 607.843 432.159 665.49L450.59 684.705C457.649 694.901 444.315 705.097 438.041 695.686Z"
       fill="black"
       id="path1200" />
    <path
       d="M484.315 570.98C484.315 570.98 472.158 512.156 414.904 519.215C365.492 525.489 348.237 643.921 460.394 676.862"
       fill="white"
       id="path1202" />
    <path
       d="M455.296 625.489C446.276 620.391 440.002 611.764 439.61 601.175C440.002 593.332 441.178 584.313 439.217 576.47C438.041 569.019 430.198 567.058 424.315 567.45C418.041 568.626 414.119 576.47 412.943 582.744C412.943 583.136 412.551 584.313 412.551 584.705C412.159 586.666 409.021 586.666 408.237 584.705C403.139 569.411 414.512 552.548 430.982 554.509C454.119 556.077 457.257 580.391 452.943 598.822C450.59 606.666 453.727 613.724 458.041 620.391L458.825 621.568C460.786 623.921 457.649 627.058 455.296 625.489Z"
       fill="black"
       id="path1204" />
    <path
       d="M769.021 529.411C774.904 557.254 785.884 583.137 799.61 607.45C811.766 637.254 780.394 665.489 752.551 664.313C749.413 664.313 749.021 659.999 751.766 659.215C769.413 653.725 785.492 641.96 788.237 623.921C789.413 618.431 787.845 613.725 785.1 609.019C772.159 584.705 764.315 556.862 766.276 529.411C766.276 527.45 769.021 527.45 769.021 529.411Z"
       fill="black"
       id="path1206" />
    <path
       d="M482.353 571.373C473.334 548.235 453.726 526.275 427.451 526.667C425.098 526.275 421.177 527.059 418.824 527.059C412.157 527.451 406.667 529.804 401.569 534.51C376.471 559.608 380.785 603.922 401.177 631.765C408.236 641.569 417.255 650.196 427.451 657.255C437.647 664.314 449.02 669.804 461.177 674.51C463.922 675.294 462.745 679.608 460 679.216C433.726 673.726 408.628 660.784 391.373 639.216C364.706 607.059 359.216 553.333 390.981 521.961C398.039 515.686 407.843 510.98 417.647 510.98C420.785 510.98 425.49 510.196 428.628 510.98C445.098 511.765 460.785 520 470.981 532.941C480 543.922 485.098 557.255 486.667 570.588C486.667 572.941 483.138 573.726 482.353 571.373Z"
       fill="black"
       id="path1208" />
    <path
       d="M701.963 834.509C720.002 830.588 730.59 812.941 729.021 794.902C728.629 792.157 732.943 791.372 733.335 794.117C740.002 816.47 727.845 840.784 706.276 849.411C694.904 853.725 690.198 836.47 701.963 834.509Z"
       fill="black"
       id="path1210" />
    <path
       d="m 796.471,767.864 c 5.882,-30.981 7.843,-62.353 2.745,-93.334 -1.961,-11.764 -9.02,-31.372 -20,-22.745 -4.314,3.53 -26.667,10.588 -30.981,10.981 -12.549,1.176 -21.96,-0.393 -30.98,-7.451 -10.196,-8.236 -10.196,-11.765 -12.549,-12.549 -41.177,-13.726 -92.941,-27.451 -109.804,27.843 -13.725,45.098 -48.235,89.411 -73.726,45.49 C 501.569,682.766 502.745,619.236 500,605.903 c -6.667,-32.941 -16.078,-49.02 -21.569,-44.314 0,10.588 3.53,135.686 3.922,142.353 2.745,34.51 15.70602,39.40409 31.39202,61.75709 15.686,22.353 67.95481,69.40901 139.32781,74.50701 71.765,5.099 105.35817,19.0299 145.35817,-26.8521 36.079,-41.569 37.255,-127.843 37.255,-127.843 -17.647,52.157 -29.804,69.411 -39.215,82.353 z M 634.902,679.628 c 20.392,-22.353 50.196,3.53 82.353,5.883 31.765,2.353 44.706,-17.647 47.059,17.647 0.784,8.627 1.961,23.137 1.568,32.941 v 1.176 c -1.176,10.981 -4.705,23.138 -15.686,29.804 -23.137,14.51 -60.392,10.981 -84.314,6.275 -33.333,-6.667 -40.392,-21.961 -41.96,-29.02 -2.353,-30.196 2.745,-55.686 10.98,-64.706 z"
       fill="#000000"
       fill-opacity="0.3"
       id="path1212"
       sodipodi:nodetypes="cccccccccccsccccccccccccc" />
  </g>
</svg>
