<?xml version="1.0" encoding="UTF-8" standalone="no"?>
<svg
   width="1200"
   height="1200"
   viewBox="0 0 1200 1200"
   fill="none"
   version="1.1"
   id="svg1914"
   sodipodi:docname="head_6_bms.svg"
   inkscape:version="1.2.2 (b0a8486, 2022-12-01)"
   xmlns:inkscape="http://www.inkscape.org/namespaces/inkscape"
   xmlns:sodipodi="http://sodipodi.sourceforge.net/DTD/sodipodi-0.dtd"
   xmlns="http://www.w3.org/2000/svg"
   xmlns:svg="http://www.w3.org/2000/svg">
  <defs
     id="defs1918" />
  <sodipodi:namedview
     id="namedview1916"
     pagecolor="#505050"
     bordercolor="#eeeeee"
     borderopacity="1"
     inkscape:showpageshadow="0"
     inkscape:pageopacity="0"
     inkscape:pagecheckerboard="0"
     inkscape:deskcolor="#505050"
     showgrid="false"
     inkscape:zoom="1.0017346"
     inkscape:cx="597.96277"
     inkscape:cy="635.39783"
     inkscape:window-width="1854"
     inkscape:window-height="1016"
     inkscape:window-x="0"
     inkscape:window-y="27"
     inkscape:window-maximized="1"
     inkscape:current-layer="svg1914" />
  <mask
     id="mask0_467_1330"
     style="mask-type:alpha"
     maskUnits="userSpaceOnUse"
     x="0"
     y="0"
     width="1197"
     height="1197">
    <circle
       cx="598.033"
       cy="598.033"
       r="598.033"
       fill="#D9D9D9"
       id="circle1885" />
  </mask>
  <g
     mask="url(#mask0_467_1330)"
     id="g1912">
    <path
       d="M717.644 963.138C709.409 1003.53 656.075 1027.84 566.271 991.373C472.938 953.726 432.546 863.922 422.35 837.255C477.644 733.726 439.213 661.961 439.213 661.961C566.664 650.981 678.036 800 678.036 800L695.291 873.726C696.86 880 699.997 885.491 704.703 889.412C712.938 903.922 722.742 937.255 717.644 963.138Z"
       fill="white"
       id="path1888" />
    <path
       d="M420.391 838.431C427.842 827.059 432.548 813.726 435.685 800.784C441.567 773.726 443.528 746.275 443.92 718.824V708.627C442.744 698.431 439.214 687.843 435.293 678.431C430.195 665.882 448.626 658.039 454.508 670.588C455.293 672.157 455.293 674.902 455.293 676.471C456.469 729.804 458.822 798.431 425.097 842.745C422.744 845.098 418.038 841.569 420.391 838.431Z"
       fill="black"
       id="path1890" />
    <path
       d="M682.35 799.216C688.233 802.746 690.194 807.452 690.978 812.158C693.331 821.569 692.546 831.766 694.899 841.569C696.86 850.981 702.743 860.001 704.311 869.805C706.272 880.001 712.154 901.569 714.507 912.158C715.292 914.511 713.723 917.256 710.978 917.648C709.409 918.04 708.233 917.648 707.056 916.864C701.958 912.55 699.605 908.236 696.468 902.746C691.37 893.334 687.841 884.707 684.703 874.118C681.958 864.707 683.135 854.511 680.782 844.707C678.821 835.295 673.331 826.275 671.37 816.471C670.194 811.765 669.801 806.667 673.331 800.785C675.684 798.432 679.605 797.648 682.35 799.216Z"
       fill="black"
       id="path1892" />
    <path
       d="M710.587 902.746C635.685 898.824 574.508 875.295 514.901 769.021C565.097 813.334 624.312 830.197 686.665 838.04L694.901 874.119C696.469 880.393 705.881 898.824 710.587 902.746Z"
       fill="black"
       id="path1894" />
    <path
       d="M707.451 888.236C720.785 913.334 728.628 944.707 720.392 972.55C714.118 992.158 696.079 1006.67 676.471 1012.16C630.981 1024.31 578.432 1005.1 538.039 983.53C488.236 955.687 451.373 909.02 427.843 858.04C426.275 854.118 431.765 850.981 434.118 854.903C442.353 871.373 451.765 887.452 462.353 901.962C472.941 916.864 485.098 930.589 498.824 942.746C538.824 978.824 592.941 1001.18 647.059 1001.18C702.745 999.609 723.922 970.197 710.981 916.079C709.02 907.452 705.883 898.432 701.569 890.981C699.216 887.844 705.098 884.315 707.451 888.236Z"
       fill="black"
       id="path1896" />
    <path
       d="M859.214 417.255C866.273 450.196 842.744 485.49 842.744 573.333C842.744 663.137 826.273 760.784 758.43 828.627C699.999 887.059 632.94 884.706 554.116 823.137C543.136 814.509 504.705 785.49 494.901 775.686C483.528 764.313 477.254 756.078 471.763 747.451C467.057 739.608 468.234 694.117 461.567 683.529C444.312 654.902 440.783 685.882 418.43 660.784C387.45 627.059 350.195 559.215 368.626 439.215C398.43 244.706 552.548 221.961 666.665 243.529C781.567 265.49 840.391 330.588 859.214 417.255Z"
       fill="white"
       id="path1898" />
    <path
       d="M438.038 695.686C429.018 680.784 417.646 667.451 407.058 653.725C396.469 639.216 387.842 623.921 380.783 607.451C340.783 510.588 346.665 383.921 417.646 302.353C466.273 246.667 543.136 228.235 613.724 232.157C684.312 236.47 757.646 254.51 809.803 305.49C839.999 334.902 859.214 374.118 867.842 414.902C870.587 427.843 868.626 441.961 865.489 454.118C856.469 488.235 847.842 520.784 847.057 556.078C847.45 608.627 845.881 662.353 830.587 712.941C819.606 746.667 806.665 780.392 786.273 809.804C765.097 839.608 733.332 863.529 696.861 870.588C623.528 885.49 554.901 839.216 506.273 789.019C504.312 786.667 507.057 783.921 509.41 785.49C537.254 806.667 565.881 826.274 596.861 839.608C686.273 880.784 760.391 842.745 799.606 756.47C832.548 693.725 841.959 625.882 839.214 555.686C839.214 538.039 839.999 520.392 842.352 502.745C844.705 477.255 853.332 451.765 852.94 426.667C846.273 385.882 827.45 346.667 799.214 316.47C732.155 245.49 603.528 224.706 513.332 256.863C407.057 294.51 378.43 401.569 372.548 503.921C368.626 565.098 386.665 625.098 432.94 667.059L451.371 686.274C457.646 694.902 444.312 705.098 438.038 695.686Z"
       fill="black"
       id="path1900" />
    <path
       d="M484.312 570.981C484.312 570.981 472.156 512.157 414.901 519.216C365.489 525.49 348.234 643.922 460.391 676.863"
       fill="white"
       id="path1902" />
    <path
       d="M455.293 625.49C446.273 620.392 439.999 611.765 439.607 601.176C439.999 593.333 441.175 584.314 439.214 576.471C438.038 569.02 430.195 567.059 424.312 567.451C418.038 568.627 414.116 576.471 412.94 582.745C412.94 583.137 412.548 584.314 412.548 584.706C412.156 586.667 409.018 586.667 408.234 584.706C403.136 569.412 414.509 552.549 430.979 554.51C454.116 556.078 457.254 580.392 452.94 598.823C450.587 606.667 453.724 613.725 458.038 620.392L458.822 621.568C460.783 623.921 457.646 627.059 455.293 625.49Z"
       fill="black"
       id="path1904" />
    <path
       d="M769.018 529.412C774.901 557.255 785.881 583.137 799.607 607.451C811.763 637.255 780.391 665.49 752.548 664.314C749.411 664.314 749.018 660 751.763 659.216C769.411 653.726 785.489 641.961 788.234 623.922C789.411 618.432 787.842 613.726 785.097 609.02C772.156 584.706 764.312 556.863 766.273 529.412C766.273 527.451 769.018 527.451 769.018 529.412Z"
       fill="black"
       id="path1906" />
    <path
       d="M482.353 571.372C473.334 548.234 453.726 526.274 427.451 526.666C425.098 526.274 421.177 527.058 418.824 527.058C412.157 527.45 406.667 529.803 401.569 534.509C376.471 559.607 380.785 603.921 401.177 631.764C408.236 641.568 417.255 650.195 427.451 657.254C437.647 664.313 449.02 669.803 461.177 674.509C463.922 675.293 462.745 679.607 460 679.215C433.726 673.725 408.628 660.783 391.373 639.215C364.706 607.058 359.216 553.332 390.981 521.96C398.039 515.685 407.843 510.979 417.647 510.979C420.785 510.979 425.49 510.195 428.628 510.979C445.098 511.764 460.785 519.999 470.981 532.94C480 543.921 485.098 557.254 486.667 570.587C486.667 572.94 483.138 573.725 482.353 571.372Z"
       fill="black"
       id="path1908" />
    <path
       d="m 796.471,767.864 c 5.882,-30.981 7.843,-62.353 2.745,-93.334 -1.961,-11.764 -9.02,-31.372 -20,-22.745 -4.314,3.53 -26.667,10.588 -30.981,10.981 -12.549,1.176 -21.96,-0.393 -30.98,-7.451 -10.196,-8.236 -10.196,-11.765 -12.549,-12.549 -41.177,-13.726 -92.941,-27.451 -109.804,27.843 -13.725,45.098 -48.235,89.411 -73.726,45.49 C 501.569,682.766 502.745,619.236 500,605.903 c -6.667,-32.941 -16.078,-49.02 -21.569,-44.314 0,10.588 3.53,135.686 3.922,142.353 2.745,34.51 5.11122,51.38084 20.79722,73.73384 15.686,22.353 70.20547,75.85596 141.57847,80.95396 71.765,5.099 91.13379,-6.4636 131.13379,-52.3456 36.079,-41.569 59.82352,-120.7732 59.82352,-120.7732 -17.647,52.157 -29.804,69.411 -39.215,82.353 z M 634.902,679.628 c 20.392,-22.353 50.196,3.53 82.353,5.883 31.765,2.353 44.706,-17.647 47.059,17.647 0.784,8.627 1.961,23.137 1.568,32.941 v 1.176 c -1.176,10.981 -4.705,23.138 -15.686,29.804 -23.137,14.51 -60.392,10.981 -84.314,6.275 -33.333,-6.667 -40.392,-21.961 -41.96,-29.02 -2.353,-30.196 2.745,-55.686 10.98,-64.706 z"
       fill="#000000"
       fill-opacity="0.3"
       id="path1910"
       sodipodi:nodetypes="cccccccccccsccccccccccccc" />
  </g>
</svg>
