<?xml version="1.0" encoding="UTF-8" standalone="no"?>
<svg
   width="1200"
   height="1200"
   viewBox="0 0 1200 1200"
   fill="none"
   version="1.1"
   id="svg1653"
   sodipodi:docname="head_4_bms.svg"
   inkscape:version="1.2.2 (b0a8486, 2022-12-01)"
   xmlns:inkscape="http://www.inkscape.org/namespaces/inkscape"
   xmlns:sodipodi="http://sodipodi.sourceforge.net/DTD/sodipodi-0.dtd"
   xmlns="http://www.w3.org/2000/svg"
   xmlns:svg="http://www.w3.org/2000/svg">
  <defs
     id="defs1657" />
  <sodipodi:namedview
     id="namedview1655"
     pagecolor="#505050"
     bordercolor="#eeeeee"
     borderopacity="1"
     inkscape:showpageshadow="0"
     inkscape:pageopacity="0"
     inkscape:pagecheckerboard="0"
     inkscape:deskcolor="#505050"
     showgrid="false"
     inkscape:zoom="0.70833333"
     inkscape:cx="588.70588"
     inkscape:cy="708"
     inkscape:window-width="1854"
     inkscape:window-height="1016"
     inkscape:window-x="0"
     inkscape:window-y="27"
     inkscape:window-maximized="1"
     inkscape:current-layer="svg1653" />
  <mask
     id="mask0_467_1330"
     style="mask-type:alpha"
     maskUnits="userSpaceOnUse"
     x="0"
     y="0"
     width="1197"
     height="1197">
    <circle
       cx="598.033"
       cy="598.033"
       r="598.033"
       fill="#D9D9D9"
       id="circle1624" />
  </mask>
  <g
     mask="url(#mask0_467_1330)"
     id="g1651">
    <path
       d="M717.644 963.138C709.409 1003.53 656.076 1027.84 566.272 991.373C472.939 953.726 432.546 863.922 422.35 837.255C477.644 733.726 439.213 661.961 439.213 661.961C566.664 650.981 678.037 800 678.037 800L695.292 873.726C696.86 880 699.997 885.491 704.703 889.412C712.939 903.922 722.743 937.255 717.644 963.138Z"
       fill="white"
       id="path1627" />
    <path
       d="M420.391 838.431C427.842 827.059 432.548 813.726 435.685 800.784C441.568 773.726 443.529 746.275 443.921 718.824V708.627C442.744 698.431 439.215 687.843 435.293 678.431C430.195 665.882 448.627 658.039 454.509 670.588C455.293 672.157 455.293 674.902 455.293 676.471C456.47 729.804 458.823 798.431 425.097 842.745C422.744 845.098 418.038 841.569 420.391 838.431Z"
       fill="black"
       id="path1629" />
    <path
       d="M682.351 799.216C688.233 802.746 690.194 807.452 690.978 812.158C693.331 821.569 692.547 831.766 694.9 841.569C696.861 850.981 702.743 860.001 704.312 869.805C706.272 880.001 712.155 901.569 714.508 912.158C715.292 914.511 713.723 917.256 710.978 917.648C709.41 918.04 708.233 917.648 707.057 916.864C701.959 912.55 699.606 908.236 696.469 902.746C691.371 893.334 687.841 884.707 684.704 874.118C681.959 864.707 683.135 854.511 680.782 844.707C678.821 835.295 673.331 826.275 671.37 816.471C670.194 811.765 669.802 806.667 673.331 800.785C675.684 798.432 679.606 797.648 682.351 799.216Z"
       fill="black"
       id="path1631" />
    <path
       d="M710.587 902.746C635.685 898.824 574.509 875.295 514.901 769.021C565.097 813.334 624.313 830.197 686.666 838.04L694.901 874.118C696.47 880.393 705.882 898.824 710.587 902.746Z"
       fill="black"
       id="path1633" />
    <path
       d="M707.452 888.236C720.785 913.334 728.628 944.707 720.393 972.55C714.118 992.158 696.079 1006.67 676.471 1012.16C630.981 1024.31 578.432 1005.1 538.04 983.53C488.236 955.687 451.373 909.02 427.844 858.04C426.275 854.118 431.765 850.981 434.118 854.903C442.354 871.373 451.765 887.452 462.354 901.962C472.942 916.864 485.099 930.589 498.824 942.746C538.824 978.824 592.942 1001.18 647.06 1001.18C702.746 999.609 723.922 970.197 710.981 916.079C709.02 907.452 705.883 898.432 701.569 890.981C699.216 887.844 705.099 884.315 707.452 888.236Z"
       fill="black"
       id="path1635" />
    <path
       d="M859.215 417.255C866.274 450.196 869.803 476.862 850.587 564.706C831.764 652.157 877.646 670.196 769.019 810.196C724.705 867.451 617.254 851.372 530.195 792.157C500.783 772.157 488.234 720.784 466.274 684.313C449.019 655.686 441.176 685.49 418.431 660.784C387.45 627.059 350.195 559.215 368.627 439.215C398.431 244.706 552.548 221.961 666.666 243.529C781.568 265.49 840.391 330.588 859.215 417.255Z"
       fill="white"
       id="path1637" />
    <path
       d="M438.038 695.686C429.019 680.392 417.254 667.059 406.274 652.941C395.685 638.432 387.058 622.353 379.999 605.883C333.333 491.373 351.372 330.196 465.882 262.745C513.333 235.294 570.587 228.628 623.921 232.941C738.038 241.177 842.744 293.726 867.45 414.51C880.784 467.843 862.744 522.745 852.548 574.902C847.842 600.785 851.764 627.451 851.372 654.118C850.98 681.177 843.529 708.235 833.333 733.334C827.058 750.588 816.078 765.882 804.705 780C785.882 802.745 767.058 825.883 743.136 843.53C737.646 847.451 727.842 849.412 721.176 850.196C702.744 852.941 684.705 853.726 666.274 852.549C594.117 849.412 516.862 814.51 487.842 744.706C486.666 741.961 490.587 740 492.156 742.353C529.803 801.961 598.823 831.373 667.45 835.294C688.627 836.471 710.195 836.079 730.98 831.765C741.176 826.667 750.195 817.647 758.823 809.412C779.999 788.235 801.568 765.49 816.862 739.608C835.293 704.706 845.489 666.667 842.352 627.059C841.568 609.412 841.176 590.981 844.705 573.334C847.842 555.686 851.764 538.824 854.117 520.785C856.47 503.53 857.646 485.883 857.646 468.628C855.685 418.039 839.215 365.883 807.058 326.667C736.078 238.432 568.235 215.294 473.725 275.686C414.117 312.549 386.274 381.569 377.254 448.628C363.529 529.02 367.45 608.235 431.372 666.667L450.195 686.275C457.646 694.902 444.313 705.098 438.038 695.686Z"
       fill="black"
       id="path1639" />
    <path
       d="M484.311 570.98C484.311 570.98 472.155 512.156 414.9 519.215C365.488 525.489 348.233 643.921 460.39 676.862"
       fill="white"
       id="path1641" />
    <path
       d="M455.293 625.49C446.274 620.392 439.999 611.765 439.607 601.176C439.999 593.333 441.176 584.314 439.215 576.471C438.038 569.02 430.195 567.059 424.313 567.451C418.038 568.627 414.117 576.471 412.94 582.745C412.94 583.137 412.548 584.314 412.548 584.706C412.156 586.667 409.019 586.667 408.235 584.706C403.137 569.412 414.509 552.549 430.98 554.51C454.117 556.078 457.254 580.392 452.94 598.823C450.587 606.667 453.725 613.725 458.038 620.392L458.823 621.569C460.784 623.921 457.646 627.059 455.293 625.49Z"
       fill="black"
       id="path1643" />
    <path
       d="M769.018 529.412C774.9 557.255 785.881 583.137 799.606 607.451C811.763 637.255 780.39 665.49 752.547 664.314C749.41 664.314 749.018 660 751.763 659.216C769.41 653.726 785.488 641.961 788.234 623.922C789.41 618.432 787.841 613.726 785.096 609.02C772.155 584.706 764.312 556.863 766.273 529.412C766.273 527.451 769.018 527.451 769.018 529.412Z"
       fill="black"
       id="path1645" />
    <path
       d="M482.352 571.373C473.332 548.235 453.725 526.275 427.45 526.667C425.097 526.275 421.176 527.059 418.823 527.059C412.156 527.451 406.666 529.804 401.568 534.51C376.47 559.608 380.783 603.922 401.176 631.765C408.234 641.569 417.254 650.196 427.45 657.255C437.646 664.314 449.019 669.804 461.176 674.51C463.921 675.294 462.744 679.608 459.999 679.216C433.725 673.726 408.627 660.784 391.372 639.216C364.705 607.059 359.215 553.333 390.979 521.961C398.038 515.686 407.842 510.98 417.646 510.98C420.783 510.98 425.489 510.196 428.627 510.98C445.097 511.765 460.783 520 470.979 532.941C479.999 543.922 485.097 557.255 486.666 570.588C486.666 572.941 483.136 573.726 482.352 571.373Z"
       fill="black"
       id="path1647" />
    <path
       d="m 796.471,767.864 c 5.882,-30.981 7.843,-62.353 2.745,-93.334 -1.961,-11.764 -9.02,-31.372 -20,-22.745 -4.314,3.53 -26.667,10.588 -30.981,10.981 -12.549,1.176 -21.96,-0.393 -30.98,-7.451 -10.196,-8.236 -10.196,-11.765 -12.549,-12.549 -41.177,-13.726 -92.941,-27.451 -109.804,27.843 -13.725,45.098 -48.235,89.411 -73.726,45.49 C 501.569,682.766 502.745,619.236 500,605.903 c -6.667,-32.941 -16.078,-49.02 -21.569,-44.314 0,10.588 3.53,135.686 3.922,142.353 2.745,34.51 7.059,45.49 22.745,67.843 15.686,22.353 71.01094,66.10267 142.38394,71.20067 71.765,5.099 97.96377,0.70265 137.96377,-45.17935 36.079,-41.569 50.24029,-112.29532 50.24029,-112.29532 -17.647,52.157 -29.804,69.411 -39.215,82.353 z M 634.902,679.628 c 20.392,-22.353 50.196,3.53 82.353,5.883 31.765,2.353 44.706,-17.647 47.059,17.647 0.784,8.627 1.961,23.137 1.568,32.941 v 1.176 c -1.176,10.981 -4.705,23.138 -15.686,29.804 -23.137,14.51 -60.392,10.981 -84.314,6.275 -33.333,-6.667 -40.392,-21.961 -41.96,-29.02 -2.353,-30.196 2.745,-55.686 10.98,-64.706 z"
       fill="#000000"
       fill-opacity="0.3"
       id="path1649"
       sodipodi:nodetypes="cccccccccccsccccccccccccc" />
  </g>
</svg>
