<?xml version="1.0" encoding="UTF-8" standalone="no"?>
<svg
   width="1200"
   height="1200"
   viewBox="0 0 1200 1200"
   fill="none"
   version="1.1"
   id="svg2493"
   sodipodi:docname="head_8_bms.svg"
   inkscape:version="1.2.2 (b0a8486, 2022-12-01)"
   xmlns:inkscape="http://www.inkscape.org/namespaces/inkscape"
   xmlns:sodipodi="http://sodipodi.sourceforge.net/DTD/sodipodi-0.dtd"
   xmlns="http://www.w3.org/2000/svg"
   xmlns:svg="http://www.w3.org/2000/svg">
  <defs
     id="defs2497" />
  <sodipodi:namedview
     id="namedview2495"
     pagecolor="#505050"
     bordercolor="#eeeeee"
     borderopacity="1"
     inkscape:showpageshadow="0"
     inkscape:pageopacity="0"
     inkscape:pagecheckerboard="0"
     inkscape:deskcolor="#505050"
     showgrid="false"
     inkscape:zoom="1.0017346"
     inkscape:cx="628.90909"
     inkscape:cy="597.46364"
     inkscape:window-width="1854"
     inkscape:window-height="1016"
     inkscape:window-x="0"
     inkscape:window-y="27"
     inkscape:window-maximized="1"
     inkscape:current-layer="svg2493" />
  <mask
     id="mask0_467_1330"
     style="mask-type:alpha"
     maskUnits="userSpaceOnUse"
     x="0"
     y="0"
     width="1197"
     height="1197">
    <circle
       cx="598.033"
       cy="598.033"
       r="598.033"
       fill="#D9D9D9"
       id="circle2464" />
  </mask>
  <g
     mask="url(#mask0_467_1330)"
     id="g2491">
    <path
       d="M717.644 963.138C709.409 1003.53 656.075 1027.84 566.271 991.373C472.938 953.726 432.546 863.922 422.35 837.255C477.644 733.726 439.213 661.961 439.213 661.961C566.664 650.981 678.036 800 678.036 800L695.291 873.726C696.86 880 699.997 885.491 704.703 889.412C712.938 903.922 722.742 937.255 717.644 963.138Z"
       fill="white"
       id="path2467" />
    <path
       d="M420.391 838.431C427.842 827.059 432.548 813.726 435.685 800.784C441.567 773.726 443.528 746.275 443.92 718.824V708.627C442.744 698.431 439.214 687.843 435.293 678.431C430.195 665.882 448.626 658.039 454.508 670.588C455.293 672.157 455.293 674.902 455.293 676.471C456.469 729.804 458.822 798.431 425.097 842.745C422.744 845.098 418.038 841.569 420.391 838.431Z"
       fill="black"
       id="path2469" />
    <path
       d="M682.35 799.216C688.233 802.746 690.194 807.452 690.978 812.158C693.331 821.569 692.546 831.766 694.899 841.569C696.86 850.981 702.743 860.001 704.311 869.805C706.272 880.001 712.154 901.569 714.507 912.158C715.292 914.511 713.723 917.256 710.978 917.648C709.409 918.04 708.233 917.648 707.056 916.864C701.958 912.55 699.605 908.236 696.468 902.746C691.37 893.334 687.841 884.707 684.703 874.118C681.958 864.707 683.135 854.511 680.782 844.707C678.821 835.295 673.331 826.275 671.37 816.471C670.194 811.765 669.801 806.667 673.331 800.785C675.684 798.432 679.605 797.648 682.35 799.216Z"
       fill="black"
       id="path2471" />
    <path
       d="M710.587 902.746C635.685 898.824 574.508 875.295 514.901 769.021C565.097 813.334 624.312 830.197 686.665 838.04L694.901 874.118C696.469 880.393 705.881 898.824 710.587 902.746Z"
       fill="black"
       id="path2473" />
    <path
       d="M707.451 888.236C720.785 913.334 728.628 944.707 720.392 972.55C714.118 992.158 696.079 1006.67 676.471 1012.16C630.981 1024.31 578.432 1005.1 538.039 983.53C488.236 955.687 451.373 909.02 427.843 858.04C426.275 854.118 431.765 850.981 434.118 854.903C442.353 871.373 451.765 887.452 462.353 901.962C472.941 916.864 485.098 930.589 498.824 942.746C538.824 978.824 592.941 1001.18 647.059 1001.18C702.745 999.609 723.922 970.197 710.981 916.079C709.02 907.452 705.883 898.432 701.569 890.981C699.216 887.844 705.098 884.315 707.451 888.236Z"
       fill="black"
       id="path2475" />
    <path
       d="M859.214 417.255C866.273 450.196 860.783 472.157 857.645 563.137C854.508 652.549 828.626 778.824 796.861 810.588C772.547 834.51 694.508 853.334 625.096 835.686C589.802 826.667 559.998 806.275 535.685 791.765C505.096 773.333 478.43 716.471 456.469 680C439.214 651.373 440.783 685.883 418.43 661.177C387.449 627.451 350.194 559.608 368.626 439.608C398.43 245.098 552.547 222.353 666.665 243.922C781.567 265.49 840.391 330.588 859.214 417.255Z"
       fill="white"
       id="path2477" />
    <path
       d="M438.039 695.686C429.02 680.784 417.255 667.451 406.667 653.333C390.981 631.765 379.216 607.059 371.373 581.569C337.255 472.549 358.039 329.804 461.177 265.49C554.902 205.882 736.863 227.451 812.941 309.02C841.569 338.431 860 376.863 867.843 416.863C868.236 419.216 869.412 423.529 869.804 425.882C870.196 427.843 871.373 430.196 870.981 432.549C870.196 441.177 868.628 449.804 867.843 458.431C861.961 510.588 863.53 563.922 856.863 616.078C850.981 670.98 843.138 725.882 826.667 778.824C821.569 794.902 811.765 809.412 798.824 820C769.804 844.314 731.765 852.549 695.294 854.118C622.353 857.647 548.236 831.765 505.883 770.196C504.314 767.843 507.451 765.098 509.412 767.451C544.706 805.49 592.549 829.804 643.53 835.294C700 841.961 785.098 836.863 809.804 776.471C838.432 690.98 853.334 600.392 854.902 510.588C854.902 488.627 853.726 466.667 853.726 444.314C853.726 441.569 854.118 435.294 854.118 432.549C854.118 432.549 854.118 432.157 854.118 432.549C854.118 432.941 854.118 432.941 854.118 432.549C850.981 424.706 849.804 416.078 847.451 408.235C838.824 375.686 823.138 344.706 800.785 320C726.667 236.863 561.569 216.078 469.02 278.431C395.686 327.059 376.079 420.392 370.981 502.745C366.667 564.314 384.706 624.706 431.373 667.059L449.804 686.275C457.647 694.902 444.314 705.098 438.039 695.686Z"
       fill="black"
       id="path2479" />
    <path
       d="M484.315 570.98C484.315 570.98 472.158 512.156 414.904 519.215C365.492 525.489 348.237 643.921 460.394 676.862"
       fill="white"
       id="path2481" />
    <path
       d="M455.293 625.491C446.273 620.393 439.999 611.766 439.606 601.177C439.999 593.334 441.175 584.315 439.214 576.471C438.038 569.021 430.195 567.06 424.312 567.452C418.038 568.628 414.116 576.472 412.94 582.746C412.94 583.138 412.548 584.315 412.548 584.707C412.155 586.668 409.018 586.668 408.234 584.707C403.136 569.413 414.508 552.55 430.979 554.511C454.116 556.079 457.253 580.393 452.94 598.824C450.587 606.668 453.724 613.726 458.038 620.393L458.822 621.57C460.783 623.922 457.646 627.06 455.293 625.491Z"
       fill="black"
       id="path2483" />
    <path
       d="M769.022 529.412C774.904 557.255 785.885 583.137 799.61 607.451C811.767 637.255 780.394 665.49 752.551 664.314C749.414 664.314 749.022 660 751.767 659.216C769.414 653.726 785.492 641.961 788.237 623.922C789.414 618.432 787.845 613.726 785.1 609.02C772.159 584.706 764.316 556.863 766.277 529.412C766.277 527.451 769.022 527.451 769.022 529.412Z"
       fill="black"
       id="path2485" />
    <path
       d="M482.353 571.373C473.334 548.235 453.726 526.275 427.451 526.667C425.098 526.275 421.177 527.059 418.824 527.059C412.157 527.451 406.667 529.804 401.569 534.51C376.471 559.608 380.785 603.922 401.177 631.765C408.236 641.569 417.255 650.196 427.451 657.255C437.647 664.314 449.02 669.804 461.177 674.51C463.922 675.294 462.745 679.608 460 679.216C433.726 673.725 408.628 660.784 391.373 639.216C364.706 607.059 359.216 553.333 390.981 521.961C398.039 515.686 407.843 510.98 417.647 510.98C420.785 510.98 425.49 510.196 428.628 510.98C445.098 511.765 460.785 520 470.981 532.941C480 543.922 485.098 557.255 486.667 570.588C486.667 572.941 483.138 573.725 482.353 571.373Z"
       fill="black"
       id="path2487" />
    <path
       d="m 796.471,767.864 c 5.882,-30.981 7.843,-62.353 2.745,-93.334 -1.961,-11.764 -9.02,-31.372 -20,-22.745 -4.314,3.53 -26.667,10.588 -30.981,10.981 -12.549,1.176 -21.96,-0.393 -30.98,-7.451 -10.196,-8.236 -10.196,-11.765 -12.549,-12.549 -41.177,-13.726 -92.941,-27.451 -109.804,27.843 -13.725,45.098 -48.235,89.411 -73.726,45.49 C 501.569,682.766 502.745,619.236 500,605.903 c -6.667,-32.941 -16.078,-49.02 -21.569,-44.314 0,10.588 3.53,135.686 3.922,142.353 2.745,34.51 9.61112,44.25736 25.29712,66.61036 15.686,22.353 70.16326,67.12166 141.53626,72.21966 71.765,5.099 109.24462,16.46398 149.24462,-29.41802 36.079,-41.569 37.255,-127.843 37.255,-127.843 -17.647,52.157 -29.804,69.411 -39.215,82.353 z M 634.902,679.628 c 20.392,-22.353 50.196,3.53 82.353,5.883 31.765,2.353 44.706,-17.647 47.059,17.647 0.784,8.627 1.961,23.137 1.568,32.941 v 1.176 c -1.176,10.981 -4.705,23.138 -15.686,29.804 -23.137,14.51 -60.392,10.981 -84.314,6.275 -33.333,-6.667 -40.392,-21.961 -41.96,-29.02 -2.353,-30.196 2.745,-55.686 10.98,-64.706 z"
       fill="#000000"
       fill-opacity="0.3"
       id="path2489"
       sodipodi:nodetypes="cccccccccccsccccccccccccc" />
  </g>
</svg>
