<?xml version="1.0" encoding="UTF-8" standalone="no"?>
<svg
   width="1200"
   height="1200"
   viewBox="0 0 1200 1200"
   fill="none"
   version="1.1"
   id="svg1435"
   sodipodi:docname="head_3_bms.svg"
   inkscape:version="1.2.2 (b0a8486, 2022-12-01)"
   xmlns:inkscape="http://www.inkscape.org/namespaces/inkscape"
   xmlns:sodipodi="http://sodipodi.sourceforge.net/DTD/sodipodi-0.dtd"
   xmlns="http://www.w3.org/2000/svg"
   xmlns:svg="http://www.w3.org/2000/svg">
  <defs
     id="defs1439" />
  <sodipodi:namedview
     id="namedview1437"
     pagecolor="#505050"
     bordercolor="#eeeeee"
     borderopacity="1"
     inkscape:showpageshadow="0"
     inkscape:pageopacity="0"
     inkscape:pagecheckerboard="0"
     inkscape:deskcolor="#505050"
     showgrid="false"
     inkscape:zoom="1.0017346"
     inkscape:cx="912.41732"
     inkscape:cy="706.27489"
     inkscape:window-width="1854"
     inkscape:window-height="1016"
     inkscape:window-x="0"
     inkscape:window-y="27"
     inkscape:window-maximized="1"
     inkscape:current-layer="svg1435" />
  <mask
     id="mask0_467_1330"
     style="mask-type:alpha"
     maskUnits="userSpaceOnUse"
     x="0"
     y="0"
     width="1197"
     height="1197">
    <circle
       cx="598.033"
       cy="598.033"
       r="598.033"
       fill="#D9D9D9"
       id="circle1406" />
  </mask>
  <g
     mask="url(#mask0_467_1330)"
     id="g1433">
    <path
       d="M717.645 963.138C709.41 1003.53 656.076 1027.84 566.272 991.373C472.939 953.726 432.547 863.922 422.351 837.255C477.645 733.726 439.214 661.961 439.214 661.961C566.665 650.981 678.037 800 678.037 800L695.292 873.726C696.861 880 699.998 885.491 704.704 889.412C712.939 903.922 722.743 937.255 717.645 963.138Z"
       fill="white"
       id="path1409" />
    <path
       d="M420.392 838.431C427.843 827.059 432.549 813.726 435.686 800.784C441.568 773.726 443.529 746.275 443.921 718.824V708.627C442.745 698.431 439.215 687.843 435.294 678.431C430.196 665.882 448.627 658.039 454.509 670.588C455.294 672.157 455.294 674.902 455.294 676.471C456.47 729.804 458.823 798.431 425.098 842.745C422.745 845.098 418.039 841.569 420.392 838.431Z"
       fill="black"
       id="path1411" />
    <path
       d="M682.351 799.216C688.234 802.746 690.195 807.452 690.979 812.158C693.332 821.569 692.547 831.766 694.9 841.569C696.861 850.981 702.744 860.001 704.312 869.805C706.273 880.001 712.155 901.569 714.508 912.158C715.293 914.511 713.724 917.256 710.979 917.648C709.41 918.04 708.234 917.648 707.057 916.864C701.959 912.55 699.606 908.236 696.469 902.746C691.371 893.334 687.842 884.707 684.704 874.118C681.959 864.707 683.136 854.511 680.783 844.707C678.822 835.295 673.332 826.275 671.371 816.471C670.194 811.765 669.802 806.667 673.332 800.785C675.685 798.432 679.606 797.648 682.351 799.216Z"
       fill="black"
       id="path1413" />
    <path
       d="M710.588 902.745C635.686 898.823 574.509 875.294 514.902 769.02C565.098 813.333 624.313 830.196 686.666 838.039L694.902 874.118C696.47 880.392 705.882 898.823 710.588 902.745Z"
       fill="black"
       id="path1415" />
    <path
       d="M707.452 888.236C720.785 913.334 728.629 944.707 720.393 972.55C714.119 992.158 696.08 1006.67 676.472 1012.16C630.982 1024.31 578.433 1005.1 538.04 983.53C488.236 955.687 451.374 909.02 427.844 858.04C426.276 854.118 431.766 850.981 434.119 854.903C442.354 871.373 451.766 887.452 462.354 901.962C472.942 916.864 485.099 930.589 498.825 942.746C538.825 978.824 592.942 1001.18 647.06 1001.18C702.746 999.609 723.923 970.197 710.982 916.079C709.021 907.452 705.884 898.432 701.57 890.981C699.217 887.844 705.099 884.315 707.452 888.236Z"
       fill="black"
       id="path1417" />
    <path
       d="M859.216 417.255C866.275 450.196 869.805 476.863 850.589 564.706C831.765 652.157 868.236 740.392 775.687 820.785C713.334 874.902 604.314 885.098 517.256 825.883C487.844 805.883 480.001 712.549 456.864 676.863C447.06 661.961 441.177 685.883 418.824 661.177C387.844 627.451 350.589 559.608 369.02 439.608C398.824 245.098 552.942 222.353 667.06 243.922C781.569 265.49 840.393 330.588 859.216 417.255Z"
       fill="white"
       id="path1419" />
    <path
       d="M438.039 695.687C429.019 680.785 417.647 667.844 407.059 654.118C391.372 632.942 379.608 608.628 371.764 583.53C338.039 476.079 356.078 336.079 455.686 269.02C547.843 206.667 723.921 225.491 804.706 300.785C845.098 337.255 867.451 390.197 872.156 443.53C874.509 479.216 865.882 513.726 858.431 548.236C849.804 581.961 847.843 615.687 847.843 650.589C847.451 685.491 845.882 721.961 832.549 754.903C812.157 805.099 769.411 845.883 718.039 863.138C650.588 886.667 570.98 873.334 515.686 828.236C513.333 826.275 515.686 823.138 518.431 824.314C590.98 865.491 686.274 872.55 756.862 825.099C798.823 796.863 827.843 752.157 834.509 701.961C840 667.844 838.431 633.334 841.568 598.824C842.745 583.53 847.058 562.354 850.196 547.059C854.902 521.569 858.039 496.079 857.647 470.589C857.255 445.491 851.764 420.785 844.313 396.863C818.431 311.765 744.313 261.569 658.823 247.844C530.98 225.491 419.215 272.942 385.882 405.883C371.372 470.981 360 542.746 387.451 605.883C397.255 629.804 413.333 650.197 431.764 667.844L449.804 687.059C457.647 694.903 444.313 705.099 438.039 695.687Z"
       fill="black"
       id="path1421" />
    <path
       d="M484.311 570.981C484.311 570.981 472.155 512.157 414.9 519.216C365.488 525.49 348.233 643.922 460.39 676.863"
       fill="white"
       id="path1423" />
    <path
       d="M455.293 625.49C446.273 620.392 439.999 611.765 439.606 601.176C439.999 593.333 441.175 584.314 439.214 576.471C438.038 569.02 430.195 567.059 424.312 567.451C418.038 568.627 414.116 576.471 412.94 582.745C412.94 583.137 412.548 584.314 412.548 584.706C412.155 586.667 409.018 586.667 408.234 584.706C403.136 569.412 414.508 552.549 430.979 554.51C454.116 556.078 457.253 580.392 452.94 598.823C450.587 606.667 453.724 613.725 458.038 620.392L458.822 621.569C460.783 623.921 457.646 627.059 455.293 625.49Z"
       fill="black"
       id="path1425" />
    <path
       d="M769.018 529.412C774.9 557.255 785.881 583.137 799.606 607.451C811.763 637.255 780.39 665.49 752.547 664.314C749.41 664.314 749.018 660 751.763 659.216C769.41 653.726 785.488 641.961 788.234 623.922C789.41 618.432 787.841 613.726 785.096 609.02C772.155 584.706 764.312 556.863 766.273 529.412C766.273 527.451 769.018 527.451 769.018 529.412Z"
       fill="black"
       id="path1427" />
    <path
       d="M482.352 571.374C473.333 548.236 453.725 526.276 427.451 526.668C425.098 526.276 421.176 527.06 418.823 527.06C412.156 527.452 406.666 529.805 401.568 534.511C376.47 559.609 380.784 603.923 401.176 631.766C408.235 641.57 417.254 650.197 427.451 657.256C437.647 664.315 449.019 669.805 461.176 674.511C463.921 675.295 462.745 679.609 460 679.217C433.725 673.726 408.627 660.785 391.372 639.217C364.705 607.06 359.215 553.334 390.98 521.962C398.039 515.687 407.843 510.981 417.647 510.981C420.784 510.981 425.49 510.197 428.627 510.981C445.098 511.766 460.784 520.001 470.98 532.942C480 543.923 485.098 557.256 486.666 570.589C486.666 572.942 483.137 573.726 482.352 571.374Z"
       fill="black"
       id="path1429" />
    <path
       d="m 796.471,767.864 c 5.882,-30.981 7.843,-62.353 2.745,-93.334 -1.961,-11.764 -9.02,-31.372 -20,-22.745 -4.314,3.53 -26.667,10.588 -30.981,10.981 -12.549,1.176 -21.96,-0.393 -30.98,-7.451 -10.196,-8.236 -10.196,-11.765 -12.549,-12.549 -41.177,-13.726 -92.941,-27.451 -109.804,27.843 -13.725,45.098 -48.235,89.411 -73.726,45.49 C 501.569,682.766 502.745,619.236 500,605.903 c -6.667,-32.941 -16.078,-49.02 -21.569,-44.314 0,10.588 3.53,135.686 3.922,142.353 0.76485,47.59357 12.44186,91.80625 28.12786,114.15925 15.686,22.353 65.20514,36.82075 136.57814,41.91875 71.765,5.099 106.63912,-6.27237 146.63912,-52.15437 36.079,-41.569 41.98788,-122.35463 41.98788,-122.35463 -17.647,52.157 -29.804,69.411 -39.215,82.353 z M 634.902,679.628 c 20.392,-22.353 50.196,3.53 82.353,5.883 31.765,2.353 44.706,-17.647 47.059,17.647 0.784,8.627 1.961,23.137 1.568,32.941 v 1.176 c -1.176,10.981 -4.705,23.138 -15.686,29.804 -23.137,14.51 -60.392,10.981 -84.314,6.275 -33.333,-6.667 -40.392,-21.961 -41.96,-29.02 -2.353,-30.196 2.745,-55.686 10.98,-64.706 z"
       fill="#000000"
       fill-opacity="0.3"
       id="path1431"
       sodipodi:nodetypes="cccccccccccsccccccccccccc" />
  </g>
</svg>
