<?xml version="1.0" encoding="UTF-8" standalone="no"?>
<svg
   width="1200"
   height="1200"
   viewBox="0 0 1200 1200"
   fill="none"
   version="1.1"
   id="svg8609"
   sodipodi:docname="head_5_bms.svg"
   inkscape:version="1.2.2 (b0a8486, 2022-12-01)"
   xmlns:inkscape="http://www.inkscape.org/namespaces/inkscape"
   xmlns:sodipodi="http://sodipodi.sourceforge.net/DTD/sodipodi-0.dtd"
   xmlns="http://www.w3.org/2000/svg"
   xmlns:svg="http://www.w3.org/2000/svg">
  <defs
     id="defs8613" />
  <sodipodi:namedview
     id="namedview8611"
     pagecolor="#505050"
     bordercolor="#eeeeee"
     borderopacity="1"
     inkscape:showpageshadow="0"
     inkscape:pageopacity="0"
     inkscape:pagecheckerboard="0"
     inkscape:deskcolor="#505050"
     showgrid="false"
     inkscape:zoom="0.70833333"
     inkscape:cx="317.64706"
     inkscape:cy="576.70588"
     inkscape:window-width="1854"
     inkscape:window-height="1016"
     inkscape:window-x="0"
     inkscape:window-y="27"
     inkscape:window-maximized="1"
     inkscape:current-layer="svg8609" />
  <mask
     id="mask0_467_1330"
     style="mask-type:alpha"
     maskUnits="userSpaceOnUse"
     x="0"
     y="0"
     width="1197"
     height="1197">
    <circle
       cx="598.033"
       cy="598.033"
       r="598.033"
       fill="#D9D9D9"
       id="circle8580" />
  </mask>
  <g
     mask="url(#mask0_467_1330)"
     id="g8607">
    <path
       d="M717.648 963.138C709.413 1003.53 656.079 1027.84 566.275 991.373C472.942 953.726 432.55 863.922 422.354 837.255C477.648 733.726 439.217 661.961 439.217 661.961C566.667 650.981 678.04 800 678.04 800L695.295 873.726C696.864 880 700.001 885.491 704.707 889.412C712.942 903.922 722.746 937.255 717.648 963.138Z"
       fill="white"
       id="path8583" />
    <path
       d="M420.395 838.431C427.846 827.059 432.552 813.726 435.689 800.784C441.571 773.726 443.532 746.275 443.924 718.824V708.627C442.748 698.431 439.218 687.843 435.297 678.431C430.199 665.882 448.63 658.039 454.512 670.588C455.297 672.157 455.297 674.902 455.297 676.471C456.473 729.804 458.826 798.431 425.101 842.745C422.748 845.098 418.042 841.569 420.395 838.431Z"
       fill="black"
       id="path8585" />
    <path
       d="M682.354 799.216C688.237 802.746 690.197 807.452 690.982 812.158C693.335 821.569 692.55 831.766 694.903 841.569C696.864 850.981 702.746 860.001 704.315 869.805C706.276 880.001 712.158 901.569 714.511 912.158C715.295 914.511 713.727 917.256 710.982 917.648C709.413 918.04 708.237 917.648 707.06 916.864C701.962 912.55 699.609 908.236 696.472 902.746C691.374 893.334 687.845 884.707 684.707 874.118C681.962 864.707 683.139 854.511 680.786 844.707C678.825 835.295 673.335 826.275 671.374 816.471C670.197 811.765 669.805 806.667 673.335 800.785C675.688 798.432 679.609 797.648 682.354 799.216Z"
       fill="black"
       id="path8587" />
    <path
       d="M710.591 902.745C635.689 898.823 574.512 875.294 514.905 769.02C565.101 813.333 624.316 830.196 686.669 838.039L694.905 874.117C696.473 880.392 705.885 898.823 710.591 902.745Z"
       fill="black"
       id="path8589" />
    <path
       d="M707.455 888.236C720.788 913.334 728.632 944.707 720.396 972.55C714.122 992.158 696.083 1006.67 676.475 1012.16C630.985 1024.31 578.436 1005.1 538.043 983.53C488.239 955.687 451.377 909.02 427.847 858.04C426.279 854.118 431.769 850.981 434.122 854.903C442.357 871.373 451.769 887.452 462.357 901.962C472.945 916.864 485.102 930.589 498.828 942.746C538.828 978.824 592.945 1001.18 647.063 1001.18C702.749 999.609 723.926 970.197 710.985 916.079C709.024 907.452 705.886 898.432 701.573 890.981C699.22 887.844 705.102 884.315 707.455 888.236Z"
       fill="black"
       id="path8591" />
    <path
       d="M859.215 417.255C866.274 450.197 852.548 465.099 852.548 553.334C852.548 597.648 848.235 648.236 839.607 696.863C830.587 747.059 805.489 794.51 763.529 829.805C699.999 882.746 633.333 885.099 554.509 823.53C543.529 814.903 505.097 785.883 495.293 776.079C473.333 754.51 471.372 698.824 457.254 677.255C447.45 662.353 441.568 686.275 419.215 661.569C388.235 627.844 350.98 560.001 369.411 440.001C399.215 245.491 553.333 222.746 667.45 244.314C781.568 265.491 840.391 330.589 859.215 417.255Z"
       fill="white"
       id="path8593" />
    <path
       d="M438.04 695.686C424.315 673.333 405.099 654.51 392.55 631.373C354.511 561.176 346.667 475.686 367.06 398.823C410.589 234.118 570.589 205.882 715.687 250.588C794.118 274.902 851.766 334.118 867.844 415.686C873.726 445.098 861.177 473.333 859.217 501.961C857.256 519.216 856.471 536.471 856.864 553.725C858.824 606.274 857.256 659.608 841.569 710.196C825.491 760.784 799.217 810.98 755.687 843.529C673.726 904.706 576.864 860 513.334 795.294C511.373 793.333 514.118 790.196 516.471 791.765C558.04 821.569 602.354 849.804 653.334 855.294C742.354 865.49 804.315 782.353 830.589 707.059C841.962 674.51 847.844 640.392 849.02 606.275C850.197 571.373 847.452 536.471 848.628 501.569C849.02 492.941 849.413 483.922 850.197 475.294C851.373 461.569 854.903 438.824 852.158 425.49C843.922 384.706 825.883 345.49 796.864 315.294C729.02 245.098 601.177 225.098 510.981 257.647C405.099 296.471 377.256 402.745 371.373 504.706C367.452 565.882 385.491 625.49 431.765 667.451L450.197 686.667C457.648 694.51 444.315 705.098 438.04 695.686Z"
       fill="black"
       id="path8595" />
    <path
       d="M484.315 570.981C484.315 570.981 472.158 512.157 414.903 519.216C365.491 525.49 348.236 643.922 460.393 676.863"
       fill="white"
       id="path8597" />
    <path
       d="M455.297 625.49C446.277 620.392 440.002 611.765 439.61 601.176C440.002 593.333 441.179 584.314 439.218 576.471C438.042 569.02 430.198 567.059 424.316 567.451C418.042 568.627 414.12 576.471 412.944 582.745C412.944 583.137 412.551 584.314 412.551 584.706C412.159 586.667 409.022 586.667 408.238 584.706C403.14 569.412 414.512 552.549 430.983 554.51C454.12 556.078 457.257 580.392 452.944 598.823C450.591 606.667 453.728 613.725 458.042 620.392L458.826 621.569C460.787 623.921 457.649 627.059 455.297 625.49Z"
       fill="black"
       id="path8599" />
    <path
       d="M769.022 529.411C774.904 557.254 785.885 583.137 799.61 607.45C811.767 637.254 780.394 665.489 752.551 664.313C749.414 664.313 749.022 659.999 751.767 659.215C769.414 653.725 785.492 641.96 788.237 623.921C789.414 618.431 787.845 613.725 785.1 609.019C772.159 584.705 764.316 556.862 766.277 529.411C766.277 527.45 769.022 527.45 769.022 529.411Z"
       fill="black"
       id="path8601" />
    <path
       d="M482.354 571.373C473.334 548.235 453.726 526.275 427.452 526.667C425.099 526.275 421.177 527.059 418.824 527.059C412.158 527.451 406.667 529.804 401.569 534.51C376.471 559.608 380.785 603.922 401.177 631.765C408.236 641.569 417.256 650.196 427.452 657.255C437.648 664.314 449.02 669.804 461.177 674.51C463.922 675.294 462.746 679.608 460.001 679.216C433.726 673.726 408.628 660.784 391.373 639.216C364.707 607.059 359.216 553.333 390.981 521.961C398.04 515.686 407.844 510.98 417.648 510.98C420.785 510.98 425.491 510.196 428.628 510.98C445.099 511.765 460.785 520 470.981 532.941C480.001 543.922 485.099 557.255 486.667 570.588C486.667 572.941 483.138 573.726 482.354 571.373Z"
       fill="black"
       id="path8603" />
    <path
       d="m 796.471,767.864 c 5.882,-30.981 7.843,-62.353 2.745,-93.334 -1.961,-11.764 -9.02,-31.372 -20,-22.745 -4.314,3.53 -26.667,10.588 -30.981,10.981 -12.549,1.176 -21.96,-0.393 -30.98,-7.451 -10.196,-8.236 -10.196,-11.765 -12.549,-12.549 -41.177,-13.726 -92.941,-27.451 -109.804,27.843 -13.725,45.098 -48.235,89.411 -73.726,45.49 C 501.569,682.766 502.745,619.236 500,605.903 c -6.667,-32.941 -16.078,-49.02 -21.569,-44.314 0,10.588 3.53,135.686 3.922,142.353 2.745,34.51 7.99229,52.06848 23.67829,74.42148 15.686,22.353 69.65471,76.55852 141.02771,81.65652 71.765,5.099 99.91852,-4.4421 139.91852,-50.3241 36.079,-41.569 52.18396,-133.9978 52.18396,-133.9978 -17.647,52.157 -33.27948,79.2239 -42.69048,92.1659 z M 634.902,679.628 c 20.392,-22.353 50.196,3.53 82.353,5.883 31.765,2.353 44.706,-17.647 47.059,17.647 0.784,8.627 1.961,23.137 1.568,32.941 v 1.176 c -1.176,10.981 -4.705,23.138 -15.686,29.804 -23.137,14.51 -60.392,10.981 -84.314,6.275 -33.333,-6.667 -40.392,-21.961 -41.96,-29.02 -2.353,-30.196 2.745,-55.686 10.98,-64.706 z"
       fill="#000000"
       fill-opacity="0.29"
       id="path8605"
       sodipodi:nodetypes="cccccccccccsccccccccccccc" />
  </g>
</svg>
