<?xml version="1.0" encoding="UTF-8" standalone="no"?>
<svg
   width="1200"
   height="1200"
   viewBox="0 0 1200 1200"
   fill="none"
   version="1.1"
   id="svg986"
   sodipodi:docname="head_1_bms.svg"
   inkscape:version="1.2.2 (b0a8486, 2022-12-01)"
   xmlns:inkscape="http://www.inkscape.org/namespaces/inkscape"
   xmlns:sodipodi="http://sodipodi.sourceforge.net/DTD/sodipodi-0.dtd"
   xmlns="http://www.w3.org/2000/svg"
   xmlns:svg="http://www.w3.org/2000/svg">
  <defs
     id="defs990" />
  <sodipodi:namedview
     id="namedview988"
     pagecolor="#505050"
     bordercolor="#eeeeee"
     borderopacity="1"
     inkscape:showpageshadow="0"
     inkscape:pageopacity="0"
     inkscape:pagecheckerboard="0"
     inkscape:deskcolor="#505050"
     showgrid="false"
     inkscape:zoom="0.70833333"
     inkscape:cx="430.58824"
     inkscape:cy="633.17647"
     inkscape:window-width="1854"
     inkscape:window-height="1016"
     inkscape:window-x="0"
     inkscape:window-y="27"
     inkscape:window-maximized="1"
     inkscape:current-layer="svg986" />
  <mask
     id="mask0_467_1330"
     style="mask-type:alpha"
     maskUnits="userSpaceOnUse"
     x="0"
     y="0"
     width="1197"
     height="1197">
    <circle
       cx="598.033"
       cy="598.033"
       r="598.033"
       fill="#D9D9D9"
       id="circle957" />
  </mask>
  <g
     mask="url(#mask0_467_1330)"
     id="g984">
    <path
       d="M717.648 963.138C709.413 1003.53 656.079 1027.84 566.275 991.373C472.942 953.726 432.55 863.922 422.354 837.255C477.648 733.726 439.217 661.961 439.217 661.961C566.667 650.981 678.04 800 678.04 800L695.295 873.726C696.864 880 700.001 885.491 704.707 889.412C712.942 903.922 722.746 937.255 717.648 963.138Z"
       fill="white"
       id="path960" />
    <path
       d="M420.395 838.431C427.846 827.059 432.552 813.726 435.689 800.784C441.571 773.726 443.532 746.275 443.924 718.824V708.627C442.748 698.431 439.218 687.843 435.297 678.431C430.199 665.882 448.63 658.039 454.512 670.588C455.297 672.157 455.297 674.902 455.297 676.471C456.473 729.804 458.826 798.431 425.101 842.745C422.748 845.098 418.042 841.569 420.395 838.431Z"
       fill="black"
       id="path962" />
    <path
       d="M682.354 799.216C688.237 802.746 690.197 807.452 690.982 812.158C693.335 821.569 692.55 831.766 694.903 841.569C696.864 850.981 702.746 860.001 704.315 869.805C706.276 880.001 712.158 901.569 714.511 912.158C715.295 914.511 713.727 917.256 710.982 917.648C709.413 918.04 708.237 917.648 707.06 916.864C701.962 912.55 699.609 908.236 696.472 902.746C691.374 893.334 687.845 884.707 684.707 874.118C681.962 864.707 683.139 854.511 680.786 844.707C678.825 835.295 673.335 826.275 671.374 816.471C670.197 811.765 669.805 806.667 673.335 800.785C675.688 798.432 679.609 797.648 682.354 799.216Z"
       fill="black"
       id="path964" />
    <path
       d="M710.591 902.746C635.689 898.824 574.512 875.295 514.905 769.021C565.101 813.334 624.316 830.197 686.669 838.04L694.905 874.118C696.473 880.393 705.885 898.824 710.591 902.746Z"
       fill="black"
       id="path966" />
    <path
       d="M707.455 888.236C720.788 913.334 728.632 944.707 720.396 972.55C714.122 992.158 696.083 1006.67 676.475 1012.16C630.985 1024.31 578.436 1005.1 538.043 983.53C488.239 955.687 451.377 909.02 427.847 858.04C426.279 854.118 431.769 850.981 434.122 854.903C442.357 871.373 451.769 887.452 462.357 901.962C472.945 916.864 485.102 930.589 498.828 942.746C538.828 978.824 592.945 1001.18 647.063 1001.18C702.749 999.609 723.926 970.197 710.985 916.079C709.024 907.452 705.886 898.432 701.573 890.981C699.22 887.844 705.102 884.315 707.455 888.236Z"
       fill="black"
       id="path968" />
    <path
       d="M859.217 417.255C866.276 450.196 860.786 472.157 857.648 563.137C821.569 713.725 824.315 797.255 804.315 817.255C788.629 832.941 694.903 853.334 625.491 835.686C590.197 826.667 560.393 806.275 536.08 791.765C505.491 773.333 482.354 713.333 460.393 676.863C443.139 648.235 441.178 685.883 418.825 661.177C387.844 627.451 350.59 559.608 369.021 439.608C398.825 245.098 552.942 222.353 667.06 243.922C781.57 265.49 840.393 330.588 859.217 417.255Z"
       fill="white"
       id="path970" />
    <path
       d="M438.04 695.687C424.315 672.941 404.707 654.118 392.158 630.589C354.119 559.216 346.276 472.549 368.237 394.902C414.119 229.412 580.393 205.098 724.707 253.726C805.491 281.177 862.354 349.412 870.59 435.294C871.374 462.745 864.315 488.236 863.923 515.294C861.962 586.667 839.609 655.294 830.982 723.922C829.021 745.491 829.021 768.236 825.884 790.196C825.099 794.902 824.315 799.216 822.746 804.314C819.217 814.902 811.374 822.353 802.746 828.236C770.197 848.236 733.335 851.765 696.472 853.726C619.609 856.863 552.158 834.51 506.276 770.589C504.707 768.236 507.844 765.49 509.805 767.843C561.178 822.745 622.746 840.392 695.688 836.863C726.668 835.294 792.942 829.412 806.668 799.216C813.335 774.51 813.335 748.628 817.256 722.745C821.57 692.157 833.335 649.412 840.393 619.216C848.237 585.098 854.903 550.589 855.295 515.687C855.688 498.04 855.688 480.392 855.688 462.745C856.472 445.098 852.942 429.804 848.629 412.941C832.942 345.883 784.707 290.196 719.609 265.49C655.688 240.785 581.57 234.51 516.08 256.079C449.413 277.255 403.923 334.51 386.668 401.177C377.648 434.118 372.942 468.628 370.589 502.745C368.629 537.255 372.158 572.549 385.884 604.706C395.688 629.02 411.766 650.196 430.59 667.843L449.021 687.059C457.648 694.902 444.315 705.098 438.04 695.687Z"
       fill="black"
       id="path972" />
    <path
       d="M484.315 570.981C484.315 570.981 472.158 512.157 414.903 519.216C365.492 525.49 348.237 643.922 460.393 676.863"
       fill="white"
       id="path974" />
    <path
       d="M455.297 625.491C446.277 620.393 440.002 611.766 439.61 601.177C440.002 593.334 441.179 584.315 439.218 576.471C438.042 569.021 430.198 567.06 424.316 567.452C418.042 568.628 414.12 576.472 412.944 582.746C412.944 583.138 412.551 584.315 412.551 584.707C412.159 586.668 409.022 586.668 408.238 584.707C403.14 569.413 414.512 552.55 430.983 554.511C454.12 556.079 457.257 580.393 452.944 598.824C450.591 606.668 453.728 613.726 458.042 620.393L458.826 621.57C460.787 623.922 457.649 627.06 455.297 625.491Z"
       fill="black"
       id="path976" />
    <path
       d="M769.021 529.412C774.903 557.255 785.884 583.137 799.609 607.451C811.766 637.255 780.393 665.49 752.55 664.314C749.413 664.314 749.021 660 751.766 659.216C769.413 653.726 785.491 641.961 788.237 623.922C789.413 618.432 787.844 613.726 785.099 609.02C772.158 584.706 764.315 556.863 766.276 529.412C766.276 527.451 769.021 527.451 769.021 529.412Z"
       fill="black"
       id="path978" />
    <path
       d="M482.353 571.373C473.334 548.235 453.726 526.275 427.451 526.667C425.098 526.275 421.177 527.059 418.824 527.059C412.157 527.451 406.667 529.804 401.569 534.51C376.471 559.608 380.785 603.922 401.177 631.765C408.236 641.569 417.255 650.196 427.451 657.255C437.647 664.314 449.02 669.804 461.177 674.51C463.922 675.294 462.745 679.608 460 679.216C433.726 673.726 408.628 660.784 391.373 639.216C364.706 607.059 359.216 553.333 390.981 521.961C398.039 515.686 407.843 510.98 417.647 510.98C420.785 510.98 425.49 510.196 428.628 510.98C445.098 511.765 460.785 520 470.981 532.941C480 543.922 485.098 557.255 486.667 570.588C486.667 572.941 483.138 573.726 482.353 571.373Z"
       fill="black"
       id="path980" />
    <path
       d="m 796.471,767.864 c 5.882,-30.981 7.843,-62.353 2.745,-93.334 -1.961,-11.764 -9.02,-31.372 -20,-22.745 -4.314,3.53 -26.667,10.588 -30.981,10.981 -12.549,1.176 -21.96,-0.393 -30.98,-7.451 -10.196,-8.236 -10.196,-11.765 -12.549,-12.549 -41.177,-13.726 -92.941,-27.451 -109.804,27.843 -13.725,45.098 -48.235,89.411 -73.726,45.49 C 501.569,682.766 502.745,619.236 500,605.903 c -6.667,-32.941 -16.078,-49.02 -21.569,-44.314 0,10.588 3.53,135.686 3.922,142.353 2.745,34.51 7.059,45.49 22.745,67.843 15.686,22.353 73.14597,63.88871 144.51897,68.98671 71.765,5.099 100.68052,-1.82719 148.81403,-27.41771 36.079,-41.569 37.255,-127.843 37.255,-127.843 -17.647,52.157 -29.804,69.411 -39.215,82.353 z M 634.902,679.628 c 20.392,-22.353 50.196,3.53 82.353,5.883 31.765,2.353 44.706,-17.647 47.059,17.647 0.784,8.627 1.961,23.137 1.568,32.941 v 1.176 c -1.176,10.981 -4.705,23.138 -15.686,29.804 -23.137,14.51 -60.392,10.981 -84.314,6.275 -33.333,-6.667 -40.392,-21.961 -41.96,-29.02 -2.353,-30.196 2.745,-55.686 10.98,-64.706 z"
       fill="#000000"
       fill-opacity="0.3"
       id="path982"
       sodipodi:nodetypes="cccccccccccsccccccccccccc" />
  </g>
</svg>
