<?xml version="1.0" encoding="UTF-8" standalone="no"?>
<svg
   width="306"
   height="306"
   viewBox="0 0 306 306"
   fill="none"
   version="1.1"
   id="svg8173"
   xml:space="preserve"
   xmlns="http://www.w3.org/2000/svg"
   xmlns:svg="http://www.w3.org/2000/svg"><defs
     id="defs8177" /><path
     d="m 203.1,195.805 c 1.5,-7.9 1.91382,-16.10745 0.61382,-24.00745 -0.78301,-4.11026 -2.76492,-6.24052 -2.90858,-5.75576 -2.22664,2.03701 -9.22961,4.49098 -9.57327,2.98311 -3.2,0.3 -6.03197,-0.1199 -8.33197,-1.9199 -2.6,-2.1 -2.6,-3 -3.2,-3.2 -10.5,-3.5 -23.7,-7 -28,7.1 -3.5,11.5 -12.3,22.8 -18.8,11.6 -5,-8.5 -4.7,-24.7 -5.4,-28.1 -1.7,-8.4 -4.1,-12.5 -5.5,-11.3 0,2.7 0.86855,34.6 0.96855,36.3 1.14317,8.76453 1.68449,9.10493 5.2737,15.04532 6.02954,9.9793 24.22409,18.97529 42.44349,19.35314 18.3,1.3 32.87721,-6.36423 35.72418,-15.80757 C 209.85383,187.86734 213.1,174.805 213.1,174.805 c -4.5,13.3 -7.6,17.7 -10,21 z m -41.2,-22.5 c 5.2,-5.7 12.8,0.9 21,1.5 8.1,0.6 11.4,-4.5 12,4.5 0.2,2.2 0.5,5.9 0.4,8.4 v 0.3 c -0.3,2.8 -1.2,5.9 -4,7.6 -5.9,3.7 -15.4,2.8 -21.5,1.6 -8.5,-1.7 -10.3,-5.6 -10.7,-7.4 -0.6,-7.7 0.7,-14.2 2.8,-16.5 z"
     fill="black"
     id="path8171"
     style="fill:#ececec" /></svg>
