<?xml version="1.0" encoding="UTF-8" standalone="no"?>
<svg
   width="306"
   height="306"
   viewBox="0 0 306 306"
   fill="none"
   version="1.1"
   id="svg2977"
   xml:space="preserve"
   xmlns="http://www.w3.org/2000/svg"
   xmlns:svg="http://www.w3.org/2000/svg"><defs
     id="defs2981" /><path
     d="m 203.1,195.805 c 1.5,-7.9 1.89998,-15.72392 0.59998,-23.62392 0.0324,-2.85885 -2.64864,-7.21274 -2.94271,-6.03466 -5.47995,3.87734 -9.45905,3.59414 -9.46291,2.82937 -3.2,0.3 -6.09436,-0.0708 -8.39436,-1.87079 -2.6,-2.1 -2.6,-3 -3.2,-3.2 -10.5,-3.5 -23.7,-7 -28,7.1 -3.5,11.5 -12.3,22.8 -18.8,11.6 -5,-8.5 -4.7,-24.7 -5.4,-28.1 -1.7,-8.4 -4.1,-12.5 -5.5,-11.3 0,2.7 0.9,34.6 1,36.3 0.61971,8.9141 1.78726,15.88407 3.61956,20.97065 2.93213,8.13976 3.82742,14.38557 28.94891,17.64079 18.81912,2.96511 35.72482,-3.48422 45.92482,-15.18422 11.54667,-12.25269 11.77588,-28.21456 11.77588,-28.21456 C 208.18451,188.04168 205.5,192.505 203.1,195.805 Z m -41.2,-22.5 c 5.2,-5.7 12.8,0.9 21,1.5 8.1,0.6 11.4,-4.5 12,4.5 0.2,2.2 0.5,5.9 0.4,8.4 v 0.3 c -0.3,2.8 -1.2,5.9 -4,7.6 -5.9,3.7 -15.4,2.8 -21.5,1.6 -8.5,-1.7 -10.3,-5.6 -10.7,-7.4 -0.6,-7.7 0.7,-14.2 2.8,-16.5 z"
     fill="black"
     id="path2975"
     style="fill:#ececec" /></svg>
