<?xml version="1.0" encoding="UTF-8" standalone="no"?>
<svg
   width="306"
   height="306"
   viewBox="0 0 306 306"
   fill="none"
   version="1.1"
   id="svg305"
   xml:space="preserve"
   xmlns="http://www.w3.org/2000/svg"
   xmlns:svg="http://www.w3.org/2000/svg"><defs
     id="defs309" /><path
     d="m 203.18762,195.79747 c 1.5,-7.9 1.64833,-16.29104 0.34833,-24.19104 -0.5,-3 -2.65989,-6.0896 -2.90348,-5.51962 -1.54875,1.75895 -8.26495,4.6143 -9.50702,2.91103 -3.2,0.3 -5.92545,-0.0928 -8.22545,-1.89284 -2.6,-2.1 -2.6,-3 -3.2,-3.2 -10.5,-3.5 -23.7,-7 -28,7.1 -3.5,11.5 -12.3,22.8 -18.8,11.6 -5,-8.5 -4.7,-24.7 -5.4,-28.1 -1.7,-8.4 -4.1,-12.5 -5.5,-11.3 0,2.7 0.9,34.6 1,36.3 0.7,8.8 1.4548,11.85856 5.8,17.3 4.74514,5.94228 25.46854,16.51702 41.65326,16.36733 26.50344,0.82719 36.38928,-5.86759 36.4087,-14.14215 0.57528,-13.02124 3.48373,-25.99637 3.48373,-25.99637 -4.5,13.3 -6.50027,19.09638 -7.15807,22.76366 z M 161.9,173.305 c 5.2,-5.7 12.8,0.9 21,1.5 8.1,0.6 11.4,-4.5 12,4.5 0.2,2.2 0.5,5.9 0.4,8.4 v 0.3 c -0.3,2.8 -1.2,5.9 -4,7.6 -5.9,3.7 -15.4,2.8 -21.5,1.6 -8.5,-1.7 -10.3,-5.6 -10.7,-7.4 -0.6,-7.7 0.7,-14.2 2.8,-16.5 z"
     fill="black"
     id="path303"
     style="fill:#ececec" /></svg>
