<?xml version="1.0" encoding="UTF-8" standalone="no"?>
<svg
   width="306"
   height="306"
   viewBox="0 0 306 306"
   fill="none"
   version="1.1"
   id="svg6834"
   xml:space="preserve"
   xmlns="http://www.w3.org/2000/svg"
   xmlns:svg="http://www.w3.org/2000/svg"><defs
     id="defs6838" /><path
     d="m 203.62576,193.81397 c 1.65284,-7.63716 1.56746,-13.97411 0.42985,-21.87411 -0.29322,-3.04768 -2.89592,-6.90297 -3.15898,-6.22548 -1.64101,2.00376 -8.25124,4.45812 -9.55656,3.00557 -3.2,0.3 -5.92888,0.14371 -8.22888,-1.65629 -2.6,-2.1 -2.68385,-3.23853 -3.28385,-3.43853 -10.5,-3.5 -24.35947,-6.97915 -28.26876,7.35263 -3.5,11.5 -12.51471,21.96791 -18.65858,11.62724 -5,-8.5 -4.7,-24.7 -5.4,-28.1 -1.7,-8.4 -4.12103,-12.62426 -5.52103,-11.42426 0,2.7 0.86726,34.66859 0.96726,36.36859 0.22558,8.8 2.40591,16.51688 6.52693,20.28044 1.22882,1.12223 16.67671,16.51139 34.87671,17.81139 15.95981,2.58097 23.22955,-3.47025 31.23133,-11.44511 13.79699,-16.58319 17.03998,-38.92035 17.03998,-38.92035 -4.82125,13.77446 -3.77391,12.70611 -8.99542,26.63827 z M 161.9,173.305 c 5.2,-5.7 12.8,0.9 21,1.5 8.1,0.6 11.4,-4.5 12,4.5 0.2,2.2 0.5,5.9 0.4,8.4 v 0.3 c -0.3,2.8 -1.2,5.9 -4,7.6 -5.9,3.7 -15.4,2.8 -21.5,1.6 -8.5,-1.7 -10.3,-5.6 -10.7,-7.4 -0.6,-7.7 0.7,-14.2 2.8,-16.5 z"
     fill="black"
     id="path6832"
     style="fill:#ececec" /></svg>
