<?xml version="1.0" encoding="UTF-8" standalone="no"?>
<svg
   width="306"
   height="306"
   viewBox="0 0 306 306"
   fill="none"
   version="1.1"
   id="svg5544"
   xml:space="preserve"
   xmlns="http://www.w3.org/2000/svg"
   xmlns:svg="http://www.w3.org/2000/svg"><defs
     id="defs5548" /><path
     d="m 203.4488,194.65933 c 1.5,-7.9 1.4824,-16.11204 -0.11331,-24.01204 -0.81594,-3.34157 -2.48454,-4.94441 -2.64557,-4.62973 -3.83438,3.16871 -8.38994,4.02916 -9.59428,2.97713 -3.2,0.3 -5.89561,-0.0897 -8.19561,-1.88969 -2.6,-2.1 -2.6,-3 -3.2,-3.2 -10.5,-3.5 -23.7,-7 -28,7.1 -3.5,11.5 -12.3,22.8 -18.8,11.6 -5,-8.5 -4.7,-24.7 -5.4,-28.1 -1.7,-8.4 -4.1,-12.5 -5.5,-11.3 0,2.7 0.9,34.6 1,36.3 0.7,8.8 1.7928,12.16495 6.75367,17.08786 6.53813,6.48811 18.79478,13.32651 34.1705,16.16097 12.44066,0.52823 16.32639,0.87835 22.3547,-0.55457 24.30764,-16.45287 27.14988,-37.79005 27.14988,-37.79005 -4.78704,10.33553 -6.18038,13.24432 -8.03252,16.96169 z M 161.9,173.305 c 5.2,-5.7 12.8,0.9 21,1.5 8.1,0.6 11.4,-4.5 12,4.5 0.2,2.2 0.5,5.9 0.4,8.4 v 0.3 c -0.3,2.8 -1.2,5.9 -4,7.6 -5.9,3.7 -15.4,2.8 -21.5,1.6 -8.5,-1.7 -10.3,-5.6 -10.7,-7.4 -0.6,-7.7 0.7,-14.2 2.8,-16.5 z"
     fill="black"
     id="path5542"
     style="fill:#ececec" /></svg>
