<?xml version="1.0" encoding="UTF-8" standalone="no"?>
<svg
   width="306"
   height="306"
   viewBox="0 0 306 306"
   fill="none"
   version="1.1"
   id="svg305"
   xml:space="preserve"
   xmlns="http://www.w3.org/2000/svg"
   xmlns:svg="http://www.w3.org/2000/svg"><defs
     id="defs309" /><path
     d="m 203.1404,194.50618 c 2.22876,-7.88142 2.40389,-11.14894 1.00457,-23.14201 -0.5,-3 -2.69806,-5.91518 -2.94165,-5.3452 -1.54875,1.75895 -8.5179,4.66734 -9.75997,2.96407 -3.2,0.3 -6.24335,-0.078 -8.54335,-1.87804 -2.6,-2.1 -2.6,-3 -3.2,-3.2 -10.5,-3.5 -23.7,-7 -28,7.1 -3.5,11.5 -12.3,22.8 -18.8,11.6 -5,-8.5 -4.7,-24.7 -5.4,-28.1 -1.7,-8.4 -4.1,-12.5 -5.5,-11.3 0,2.7 0.9,34.6 1,36.3 0.7,8.8 1.45424,9.89372 5.79944,15.33516 4.74514,5.94228 17.06652,24.95893 44.057,23.92838 15.50823,0.94018 32.26541,-3.49826 31.13247,-23.11809 10.3746,-18.27802 10.49239,-22.40298 10.49239,-22.40298 -4.08575,8.46164 -10.6831,17.59143 -11.3409,21.25871 z M 161.9,173.305 c 5.2,-5.7 12.8,0.9 21,1.5 8.1,0.6 11.4,-4.5 12,4.5 0.2,2.2 0.5,5.9 0.4,8.4 v 0.3 c -0.3,2.8 -1.2,5.9 -4,7.6 -5.9,3.7 -15.4,2.8 -21.5,1.6 -8.5,-1.7 -10.3,-5.6 -10.7,-7.4 -0.6,-7.7 0.7,-14.2 2.8,-16.5 z"
     fill="black"
     id="path303"
     style="fill:#ececec" /></svg>
