<?xml version="1.0" encoding="UTF-8" standalone="no"?>
<svg
   width="306"
   height="306"
   viewBox="0 0 306 306"
   fill="none"
   version="1.1"
   id="svg65"
   xml:space="preserve"
   xmlns="http://www.w3.org/2000/svg"
   xmlns:svg="http://www.w3.org/2000/svg"><defs
     id="defs69" /><path
     d="m 191.2987,208.25592 c 1.5,-7.9 2,-15.9 0.7,-23.8 -0.5,-3 -2.54815,-6.67735 -3.08275,-6.15646 -2.37727,2.28519 -7.33549,4.20854 -9.63717,3.08252 -3.2,0.3 -5.88008,-0.0261 -8.18008,-1.82606 -2.6,-2.1 -2.6,-3 -3.2,-3.2 -10.5,-3.5 -23.7,-7 -28,7.1 -3.5,11.5 -12.3,22.8 -18.8,11.6 -5,-8.5 -4.7,-24.7 -5.4,-28.1 -1.7,-8.4 -4.1,-12.5 -5.5,-11.3 0,2.7 0.9,34.6 1,36.3 0.7,8.8 1.58456,11.77886 5.58456,17.47886 4,5.7 24.24381,16.66473 41.55868,16.33079 26.69872,-1.02905 35.63769,-2.8267 36.78107,-15.95305 0.52428,-12.5043 3.38382,-22.43431 3.38382,-22.43431 -4.61541,11.61048 -4.80813,17.57771 -7.20813,20.87771 z m -41.2,-22.5 c 5.2,-5.7 12.8,0.9 21,1.5 8.1,0.6 11.4,-4.5 12,4.5 0.2,2.2 0.5,5.9 0.4,8.4 v 0.3 c -0.3,2.8 -1.2,5.9 -4,7.6 -5.9,3.7 -15.4,2.8 -21.5,1.6 -8.5,-1.7 -10.3,-5.6 -10.7,-7.4 -0.6,-7.7 0.7,-14.2 2.8,-16.5 z"
     fill="#000000"
     id="path63"
     style="fill:#ececec" /></svg>
