<svg width="306" height="307" viewBox="0 0 306 307" fill="none" xmlns="http://www.w3.org/2000/svg">
<path d="M204.3 172.3C203.8 169.3 202 164.3 199.2 166.5C198.1 167.4 192.4 169.2 191.3 169.3C188.1 169.6 185.7 169.2 183.4 167.4C180.8 165.3 180.8 164.4 180.2 164.2C169.7 160.7 156.5 157.2 152.2 171.3C151.2 174.6 142.6 201.1 159.5 217.4C161.2 217.8 171.2 222.7 191.8 217.2C194.3 216.1 197.5 215 198.9 212.4C205 201.1 205.3 178.7 204.3 172.3ZM170.3 197.6C161.6 197.6 160 192 159.6 190.2C158.9 182.4 160.3 175.9 162.3 173.6C167.5 167.9 175.1 174.5 183.3 175.1C191.4 175.7 197.2 171.8 197.9 180.9C198.1 183.1 198 185.6 197.9 188.1C197.9 188.2 197.9 188.3 197.9 188.4C197.6 191.2 197.1 195.3 193.9 196C186.4 197.6 189.1 194.3 184.6 194.3C180.4 194.4 183.4 197.6 170.3 197.6Z" fill="black"/>
<path d="M180.2 163.1C180.2 163.1 170 156.9 161.3 156.9C149.8 156.9 147 171.4 148.2 172.6C151.7 176.2 154.8 166.8 154.8 166.8C154.8 166.8 149.1 177.7 152.9 177.3C156.7 176.9 160.6 170.3 160.6 170.3C160.6 170.3 155.5 177.3 159 177.3C162.5 177.3 166.4 171 171.8 172.7C177.1 174.4 182.6 176 188.1 175.8C193.6 175.6 195.5 172.6 197.1 175.8C199.9 181.3 202.7 180.1 202.5 176.9C202.3 173.7 201 172.5 201 172.5C201 172.5 203.8 175.6 204.9 174.9C207.7 173.1 203.3 168.2 203.3 168.2C203.3 168.2 206.6 173 207 170.2C208.2 162.4 201.5 162.3 201.5 162.3C201.5 162.3 196.9 168.5 192 168.5C187.1 168.5 182.7 167.7 180.2 163.1Z" fill="white"/>
</svg>
