<?xml version="1.0" encoding="UTF-8" standalone="no"?>
<svg
   width="306"
   height="306"
   viewBox="0 0 306 306"
   fill="none"
   version="1.1"
   id="svg6170"
   xml:space="preserve"
   xmlns="http://www.w3.org/2000/svg"
   xmlns:svg="http://www.w3.org/2000/svg"><defs
     id="defs6174" /><path
     d="m 210.61269,211.03796 c 1.5,-7.9 2.37633,-14.3701 0.73344,-23.7863 -0.3768,-3.62086 -2.40101,-6.40906 -2.79186,-6.02848 -2.81377,2.35572 -8.49749,4.48726 -9.72104,2.91872 -3.2,0.3 -6.12054,-0.004 -8.42054,-1.80394 -2.6,-2.1 -2.6,-3 -3.2,-3.2 -10.5,-3.5 -23.7,-7 -28,7.1 -3.5,11.5 -12.3,22.8 -18.8,11.6 -5,-8.5 -4.7,-24.7 -5.4,-28.1 -1.7,-8.4 -4.1,-12.5 -5.5,-11.3 0,2.7 0.9,34.6 1,36.3 0.7,8.8 1.51048,11.99002 4.82932,17.56324 3.326,5.58527 20.26184,19.8654 38.46184,21.1654 4.62265,1.18331 17.79422,0.69283 31.37676,-12.28671 13.27899,-15.96634 16.73053,-34.42157 16.73053,-34.42157 -5.51766,13.32925 -8.89845,20.97964 -11.29845,24.27964 z m -41.2,-22.5 c 5.2,-5.7 12.8,0.9 21,1.5 8.1,0.6 11.4,-4.5 12,4.5 0.2,2.2 0.5,5.9 0.4,8.4 v 0.3 c -0.3,2.8 -1.2,5.9 -4,7.6 -5.9,3.7 -15.4,2.8 -21.5,1.6 -8.5,-1.7 -10.3,-5.6 -10.7,-7.4 -0.6,-7.7 0.7,-14.2 2.8,-16.5 z"
     fill="#000000"
     id="path6168"
     style="fill:#ececec" /></svg>
