<?xml version="1.0" encoding="UTF-8" standalone="no"?>
<svg
   width="306"
   height="306"
   viewBox="0 0 306 306"
   fill="none"
   version="1.1"
   id="svg567"
   xml:space="preserve"
   xmlns="http://www.w3.org/2000/svg"
   xmlns:svg="http://www.w3.org/2000/svg"><defs
     id="defs571" /><path
     d="m 202.871,195.70525 c 1.5,-7.9 2,-15.9 0.7,-23.8 -0.37732,-3.02392 -2.53372,-6.83052 -3.03701,-5.99331 -2.30856,2.10487 -8.89542,4.41234 -9.53742,2.88992 -2.70187,0.29756 -6.02557,0.003 -8.32557,-1.79661 -2.6,-2.1 -2.6,-3 -3.2,-3.2 -10.5,-3.5 -23.7,-7 -28,7.1 -3.5,11.5 -12.3,22.8 -18.8,11.6 -5,-8.5 -4.7,-24.7 -5.4,-28.1 -1.7,-8.4 -4.1,-12.5 -5.5,-11.3 0,2.7 0.9,34.6 1,36.3 0.7,8.8 2.77343,9.23148 7.11869,14.67287 1.63447,2.04677 27.59346,25.0574 50.24789,17.72686 2.28685,-0.288 17.27547,2.87946 22.09574,-8.15512 9.99344,-25.57679 11.20254,-29.75032 11.20254,-29.75032 -1.60777,2.82429 -8.3742,18.44703 -10.56486,21.80571 z m -41.2,-22.5 c 5.2,-5.7 12.8,0.9 21,1.5 8.1,0.6 11.4,-4.5 12,4.5 0.2,2.2 0.5,5.9 0.4,8.4 v 0.3 c -0.3,2.8 -1.2,5.9 -4,7.6 -5.9,3.7 -15.4,2.8 -21.5,1.6 -8.5,-1.7 -10.3,-5.6 -10.7,-7.4 -0.6,-7.7 0.7,-14.2 2.8,-16.5 z"
     fill="black"
     id="path565"
     style="fill:#ececec" /></svg>
