<svg width="1197" height="1197" viewBox="0 0 1197 1197" fill="none" xmlns="http://www.w3.org/2000/svg">
<path d="M795.293 769.02C787.842 779.216 783.921 781.961 777.254 781.569C769.803 781.177 763.529 769.412 741.568 769.02C723.529 768.628 694.117 778.431 656.862 786.275C613.332 795.294 536.47 759.216 519.607 705.098C514.901 689.804 510.98 674.118 507.058 660.784C505.882 656.863 500.783 655.686 498.431 658.824C495.685 662.353 492.94 665.49 489.803 668.235C485.881 672.157 483.529 677.647 483.529 683.137C483.529 690.196 483.921 696.471 483.921 700.784C486.666 735.294 490.98 746.275 506.666 768.628C522.352 790.98 577.254 851.373 648.627 856.863C720.391 861.961 759.999 856.079 799.999 810.196C836.078 768.628 837.254 682.353 837.254 682.353C818.038 740.392 805.097 755.294 795.293 769.02Z" fill="black"/>
</svg>
