<?xml version="1.0" encoding="UTF-8" standalone="no"?>
<svg
   width="1200"
   height="1200"
   viewBox="0 0 1200 1200"
   fill="none"
   version="1.1"
   id="svg20192"
   sodipodi:docname="new-beard-short.svg"
   xml:space="preserve"
   inkscape:version="1.2.2 (b0a8486, 2022-12-01)"
   xmlns:inkscape="http://www.inkscape.org/namespaces/inkscape"
   xmlns:sodipodi="http://sodipodi.sourceforge.net/DTD/sodipodi-0.dtd"
   xmlns="http://www.w3.org/2000/svg"
   xmlns:svg="http://www.w3.org/2000/svg"><defs
     id="defs20196" /><sodipodi:namedview
     id="namedview20194"
     pagecolor="#505050"
     bordercolor="#eeeeee"
     borderopacity="1"
     inkscape:showpageshadow="0"
     inkscape:pageopacity="0"
     inkscape:pagecheckerboard="0"
     inkscape:deskcolor="#505050"
     showgrid="false"
     inkscape:zoom="1.4166667"
     inkscape:cx="458.47059"
     inkscape:cy="778.23529"
     inkscape:window-width="1854"
     inkscape:window-height="1016"
     inkscape:window-x="0"
     inkscape:window-y="27"
     inkscape:window-maximized="1"
     inkscape:current-layer="svg20192" /><mask
     id="mask0_467_1330"
     style="mask-type:alpha"
     maskUnits="userSpaceOnUse"
     x="0"
     y="0"
     width="1197"
     height="1197"><circle
       cx="598.033"
       cy="598.033"
       r="598.033"
       fill="#D9D9D9"
       id="circle20163" /></mask><g
     style="fill:#999999"
     id="g20207"
     transform="matrix(4.0486475,0,0,4.0486475,-21.594247,-28.351668)"><path
       d="m 203.59794,177.64751 c -0.48281,-2.89689 -0.31555,-2.82215 -3.88043,-2.02632 -4.56066,1.09828 -3.67222,-1.07862 -11.18214,-0.74836 -6.57451,1.27279 -9.84741,-0.40089 -15.4654,-2.44356 -6.29458,-2.49026 -10.08892,0.0176 -10.6683,-0.17555 -5.45273,-2.21084 -9.42689,-2.66437 -9.52233,-0.50743 -0.96563,3.18658 -9.27006,28.77579 7.0491,44.51557 1.64157,0.38625 11.29788,5.11784 31.18986,-0.19313 2.41408,-1.06219 5.5041,-2.12439 6.85598,-4.63503 5.89035,-10.91162 6.5893,-27.60615 5.62366,-33.78619 z m -33.24069,19.49486 c -8.40099,0 -9.946,-5.40753 -10.33225,-7.14566 -0.67594,-7.53192 0.67594,-13.80852 2.6072,-16.02947 5.02128,-5.50409 12.36007,0.86907 20.27824,1.44845 7.82161,0.57937 13.42227,-3.18658 14.09821,5.60065 0.19313,2.12439 0.0966,4.53847 0,6.95254 v 0.28969 c -0.28969,2.70377 -0.7725,6.66285 -3.86252,7.33879 -7.24223,1.54501 -4.63503,-1.64157 -8.98037,-1.64157 -4.05564,0.0966 -1.15875,3.18658 -13.80851,3.18658 z"
       fill="#000000"
       id="path20198"
       style="stroke-width:0.96563;fill:#999999"
       sodipodi:nodetypes="ccccccccccsccccccccs" /></g><path
     style="fill:#ffffff"
     d="m 634.83901,668.76702 c 5.81991,1.51485 3.62384,4.87634 1.10545,8.31147 l 10.21392,-7.75915 4.0573,-1.4795 12.50366,-0.30404 9.51819,1.93798 11.65277,3.6255 11.45747,3.82616 c 4.64497,1.70069 9.26387,2.71897 13.88534,3.80456 9.3894,3.59791 19.02691,4.67547 28.52273,1.16525 11.92557,6.07145 26.9336,-2.55395 30.03638,2.76688 l 5.11751,5.71757 c -0.68899,-2.95121 -2.16873,-6.30094 2.34667,-6.62932 -10.01958,-4.51452 -20.51034,-6.12223 -34.14603,-4.28649 -12.67273,1.5103 -25.42669,-1.93892 -42.26426,-2.60861 -11.68605,-4.54547 -20.61743,-13.51079 -36.42676,-12.06592 -10.59442,-1.77681 -19.12447,0.88715 -27.58034,3.97766 z"
     id="path20832"
     sodipodi:nodetypes="ccccccccccccccccc" /></svg>
