<svg width="346" height="355" viewBox="0 0 346 355" fill="none" xmlns="http://www.w3.org/2000/svg">
<path d="M245.33 233.7C243.63 211.4 232.43 213.3 240.03 163.6C241.03 157.3 241.73 151.5 242.13 146C250.43 135.1 254.23 104.2 223.33 102.4C223.33 102.4 208.13 85.0999 171.63 86.8999C148.63 88.5999 129.23 99.7999 120.43 112.1C113.03 122.5 109.73 131.3 108.93 143C108.93 143.7 108.83 144.4 108.83 145.1V145.3C108.73 147.5 108.73 149.8 108.83 152.2C108.53 157.8 106.83 165.4 101.33 171C94.7301 177.7 91.7301 183.5 93.4301 195C88.7301 197.8 80.5301 206.2 78.3301 215C96.3301 231.9 132.73 238.9 134.63 239.5C136.43 235.3 138.73 221.4 137.73 216.6C137.23 213.9 136.83 211 136.83 207.7C136.83 205.7 136.93 203.8 137.13 202C109.53 193.2 113.93 163.6 126.43 162C130.93 161.4 134.23 162.5 136.83 164.1C137.33 165 137.93 165.8 138.53 166.6C154.43 187.7 162.03 136.9 169.03 137.6C212.53 141.9 217.03 128.2 218.53 121.5C235.03 125.6 235.23 147.3 235.73 147.9C235.53 151.9 235.03 158.7 234.93 167.5C234.93 171.6 235.33 179.5 235.03 184.1C234.03 199.6 232.33 212.5 223.53 228.6C220.83 233.5 217.83 237.9 214.53 240.8C224.83 240.6 235.23 239.8 245.63 238.7C245.53 237.1 245.43 235.4 245.33 233.7Z" fill="black"/>
<path d="M217.93 118.6C217.93 118.6 225.23 131.5 217.93 139.5C210.63 147.5 232.23 135 225.13 118.6" fill="black"/>
<path d="M151 141.701C151 141.701 122.1 144.401 109.7 141.201C109.7 141.201 111.7 106.801 126 88.5006C140.3 70.2006 195.8 70.1006 217.9 78.3006C237.9 85.8006 240.5 119.801 240.5 119.801L151 141.701Z" fill="black"/>
<path d="M240.6 119.8L154.8 140.8C154.3 129.3 153.1 103.9 159 90.5003C166.1 74.4003 207.4 74.5003 224.7 82.7003C238.5 96.2003 240.6 119.8 240.6 119.8Z" fill="white"/>
<path d="M241.8 120.701C213 128.001 184.1 135.201 155.2 142.201C154.4 142.401 153.6 141.901 153.4 141.101C152.9 130.901 152.8 120.601 153.7 110.301C154.5 102.701 155.4 94.6006 159.3 87.9006C166.7 77.9006 183.6 76.6006 195 76.6006C204.8 76.7006 217.4 78.6006 224.9 82.5006C234.9 92.0006 239.8 105.701 242 119.001C242.1 119.501 242.2 120.101 241.8 120.701ZM239.4 118.901C239.2 119.101 239.1 119.701 239.1 119.801C239.1 119.501 239 118.901 239 118.601C237.8 105.901 232.9 91.8006 224.7 82.9006C212 77.4006 194.6 76.5006 180.1 79.1006C173 80.6006 165.3 82.8006 161 88.9006C154.1 102.001 155.7 125.701 156.4 140.601L154.5 139.201C182.7 132.401 211 125.601 239.4 118.901Z" fill="black"/>
<path d="M259.8 138.301C259.8 150.401 240.2 145.001 240.2 145.001C240.7 140.101 240.7 136.401 240.3 133.201C240 130.901 239.6 128.701 239.1 126.501C238.7 124.901 238.3 123.301 237.9 121.701C244.3 121.001 249.1 122.801 252.5 125.401C257.7 129.401 259.8 135.301 259.8 138.301Z" fill="black" stroke="black" stroke-width="3" stroke-miterlimit="10" stroke-linecap="round" stroke-linejoin="round"/>
<path d="M199.2 102.501C204.391 102.501 208.6 98.2926 208.6 93.1012C208.6 87.9097 204.391 83.7012 199.2 83.7012C194.008 83.7012 189.8 87.9097 189.8 93.1012C189.8 98.2926 194.008 102.501 199.2 102.501Z" fill="white"/>
<path d="M208.6 93.1016C208.6 97.4016 205.7 101.002 201.8 102.102C197.9 101.002 195 97.4016 195 93.1016C195 88.8016 197.9 85.2016 201.8 84.1016C205.7 85.2016 208.6 88.8016 208.6 93.1016Z" fill="#C9C9C9"/>
<path d="M213.7 93.1015C213.7 98.3015 209.5 102.501 204.3 102.501C204.1 102.501 203.8 102.501 203.6 102.501C203.4 102.501 203.2 102.501 203 102.401C202.8 102.401 202.6 102.301 202.4 102.301C202.2 102.301 202 102.201 201.8 102.201C205.7 101.101 208.6 97.5015 208.6 93.2015C208.6 88.9015 205.7 85.3015 201.8 84.2015C202 84.1015 202.2 84.1015 202.4 84.1015C202.6 84.1015 202.7 84.0015 202.9 84.0015C203 84.0015 203.1 84.0015 203.2 84.0015C203.3 84.0015 203.4 84.0015 203.6 84.0015C203.9 84.0015 204.1 84.0015 204.4 84.0015C209.5 83.7015 213.7 87.9015 213.7 93.1015Z" fill="black"/>
<path d="M199.2 86.1012C203.1 86.1012 206.2 89.2012 206.2 93.1012C206.2 97.0012 203.1 100.101 199.2 100.101C195.3 100.101 192.2 97.0012 192.2 93.1012C192.2 89.2012 195.4 86.1012 199.2 86.1012ZM199.2 83.7012C194 83.7012 189.8 87.9012 189.8 93.1012C189.8 98.3012 194 102.501 199.2 102.501C204.4 102.501 208.6 98.3012 208.6 93.1012C208.6 87.9012 204.4 83.7012 199.2 83.7012Z" fill="black"/>
<path d="M155 131.801C155 131.801 129.2 133.801 111.6 132.801C110.6 132.701 110.6 131.901 110.6 130.901L110.7 129.101C110.7 129.101 108.8 129.601 108 132.201C107.6 133.601 107.3 137.001 107.4 139.101C107.5 140.401 108.4 141.501 109.7 141.701C115.5 142.701 125 145.101 151 141.801C151 141.701 154.4 136.001 155 131.801Z" fill="black"/>
<path d="M252.5 125.401C248.3 122.201 242 120.301 233.4 122.501C228.5 123.801 222.7 126.401 216.1 130.801C183.8 152.601 151 141.701 151 141.701C151 141.701 152 136.801 155.6 130.801C160.9 122.001 171.9 110.801 194 109.401C213.4 108.201 227.7 111.901 237.4 116.101C247 120.301 252 124.901 252.5 125.401Z" fill="white"/>
<path d="M253.7 126.401C253.1 126.701 251.9 126.701 251.3 126.301C251 126.201 250.9 126.001 250.7 125.901C243.8 121.201 234.9 122.701 227.5 125.801C219.3 129.301 212.2 135.201 203.9 138.501C187.3 145.501 168.3 146.901 150.9 141.901C150.8 141.901 150.7 141.701 150.7 141.601C152.3 131.501 159.1 122.701 167.3 116.901C175.7 111.001 186 108.501 196.1 108.001C213.7 107.101 232.1 110.101 247.3 119.601C249.2 120.801 251.1 122.101 252.8 123.601L253.2 123.901L253.4 124.101C253.7 124.301 253.8 124.601 253.9 125.001C254 125.701 253.8 126.201 253.7 126.401ZM251.4 124.401C251.2 124.601 250.9 125.001 251 125.601C251.1 125.901 251.2 126.201 251.4 126.401L251.2 126.301C249.5 124.801 247.7 123.501 245.8 122.301C226.5 109.801 188.4 105.501 168.9 119.101C160.9 124.501 155.2 132.901 152.3 142.001L151.5 140.601C168.4 145.301 187.1 143.601 203.1 136.601C211.4 133.101 218.2 127.101 226.5 123.501C234.4 119.901 244.7 118.301 252.4 123.501L252.6 123.601C252.7 123.701 252.6 123.601 252.5 123.601C252.4 123.601 252.1 123.601 251.8 123.801C251.5 123.901 251.4 124.201 251.4 124.401Z" fill="black"/>
<path d="M111 131.4C113.9 132.2 117.3 132.1 120.3 132.3C129.9 132.5 139.5 131.9 149.2 131.4C149.7 131.4 149.9 132.2 149.3 132.3C139.2 133.9 119.7 136.6 110.5 132.3C109.8 132 110.3 131.1 111 131.4Z" fill="white"/>
<path d="M135 86.4003C134.2 87.3003 132.9 88.2003 132.6 89.1003C132.6 89.1003 132.6 89.1003 132.6 89.0003C132.6 88.9003 132.6 88.8003 132.5 88.8003C132.5 88.7003 132.4 88.7003 132.4 88.7003C132.7 88.8003 133 88.8003 133.4 88.8003C136.9 88.8003 142.4 87.8003 146.1 87.4003C148.2 87.1003 150.4 86.8003 152.6 86.6003C152.7 86.6003 152.8 86.7003 152.8 86.8003C152.8 86.9003 152.7 87.0003 152.7 87.0003C148.6 88.5003 144.4 89.6003 140.1 90.4003C137.6 90.8003 135 91.4003 132.4 90.9003C130.4 90.5003 130.1 88.7003 131.7 87.6003C132 87.0003 135.5 85.3003 135 86.4003Z" fill="white"/>
<path d="M247 119.5C246.186 114.235 244.846 111.519 239.5 107.5C240.728 111.202 241.098 113.006 241.5 116C242.979 116.732 244.399 117.689 247 119.5Z" fill="white" stroke="white" stroke-width="0.2"/>
<rect x="0.5" y="0.5" width="345" height="354" rx="4.5" stroke="#9747FF" stroke-dasharray="10 5"/>
</svg>
