<?xml version="1.0" encoding="UTF-8" standalone="no"?>
<svg
   width="306"
   height="306"
   viewBox="0 0 306 306"
   fill="none"
   version="1.1"
   id="svg21390"
   sodipodi:docname="new-moustache-short.svg"
   inkscape:version="1.2.2 (b0a8486, 2022-12-01)"
   xmlns:inkscape="http://www.inkscape.org/namespaces/inkscape"
   xmlns:sodipodi="http://sodipodi.sourceforge.net/DTD/sodipodi-0.dtd"
   xmlns="http://www.w3.org/2000/svg"
   xmlns:svg="http://www.w3.org/2000/svg">
  <defs
     id="defs21394" />
  <sodipodi:namedview
     id="namedview21392"
     pagecolor="#505050"
     bordercolor="#eeeeee"
     borderopacity="1"
     inkscape:showpageshadow="0"
     inkscape:pageopacity="0"
     inkscape:pagecheckerboard="0"
     inkscape:deskcolor="#505050"
     showgrid="false"
     inkscape:zoom="2.7777778"
     inkscape:cx="153"
     inkscape:cy="153.18"
     inkscape:window-width="1854"
     inkscape:window-height="1016"
     inkscape:window-x="0"
     inkscape:window-y="27"
     inkscape:window-maximized="1"
     inkscape:current-layer="svg21390" />
  <path
     d="M180.2 163.1C180.2 163.1 170 156.9 161.3 156.9C149.8 156.9 147 171.4 148.2 172.6C151.7 176.2 154.8 166.8 154.8 166.8C154.8 166.8 149.1 177.7 152.9 177.3C156.7 176.9 160.6 170.3 160.6 170.3C160.6 170.3 155.5 177.3 159 177.3C162.5 177.3 166.4 171 171.8 172.7C177.1 174.4 182.6 176 188.1 175.8C193.6 175.6 195.5 172.6 197.1 175.8C199.9 181.3 202.7 180.1 202.5 176.9C202.3 173.7 201 172.5 201 172.5C201 172.5 203.8 175.6 204.9 174.9C207.7 173.1 203.3 168.2 203.3 168.2C203.3 168.2 206.6 173 207 170.2C208.2 162.4 201.5 162.3 201.5 162.3C201.5 162.3 196.9 168.5 192 168.5C187.1 168.5 182.7 167.7 180.2 163.1Z"
     fill="black"
     id="path21388"
     style="fill:#999999" />
</svg>
