<?xml version="1.0" encoding="UTF-8" standalone="no"?>
<svg
   width="306"
   height="306"
   viewBox="0 0 306 306"
   fill="none"
   version="1.1"
   id="svg1477"
   xmlns="http://www.w3.org/2000/svg"
   xmlns:svg="http://www.w3.org/2000/svg">
  <defs
     id="defs1481" />
  <path
     d="m 174.7,157.5 c 0,0 -9.4,5.9 -20,5.8 -10.6,-0.1 -11.9,-8.4 -12,-12.9 0,0 1.4,6.5 7.8,8.9 6.3,2.4 24.2,-1.8 24.2,-1.8 z"
     fill="#000000"
     id="path1465" />
  <path
     d="m 204.899,156.4 c 0,0 2.3,2.8 5.4,4.8 2.1,1.4 4.9,-0.1 4.9,-2.6 0,0 -5.8,0.3 -10.3,-2.2 z"
     fill="#000000"
     id="path1467" />
  <path
     d="m 178.2,130.8 c -5.4,-0.5 -19,-1.6 -24.2,-2.1 l -4,-0.3 c -3.3,-0.2 -5.9,2.6 -6.5,5.8 -0.2,1 -0.2,2.7 -0.2,3.7 v 4.1 c 0,2.5 -0.1,5.1 0.8,7.5 1.6,5.6 6.7,10.1 12.7,9.4 0.6,-0.1 4.3,-0.5 5,-0.6 l 8.1,-0.9 c 2.6,-0.2 5,-0.9 7.3,-2.3 3.2,-1.9 6.3,-4.8 6.1,-8.9 l 0.2,-4 c 0.2,-5 1.6,-10.9 -5.3,-11.4 z m 0.3,-3.3 c 4.7,0.4 7.9,5.3 7.6,9.8 0,0.6 -0.2,4.4 -0.3,5.1 0,0.8 -0.2,4.4 -0.3,5.1 -0.5,6.8 -8.1,11.6 -14.3,12.5 -3.2,0.4 -9.9,1.3 -13.1,1.7 -0.8,0.1 -1.9,0.2 -2.7,0.3 -0.4,0 -1.3,-0.1 -1.7,-0.1 -8.5,-1.1 -13.9,-9.8 -13.7,-17.9 0,-1.3 0,-4.7 0,-6.1 0,-0.7 0,-2.5 0.1,-3.2 0.3,-3.5 2.2,-6.9 5.4,-8.8 1.4,-0.8 3.1,-1.2 4.8,-1.1 l 4.1,0.4 c 5,0.6 18.8,1.9 24.1,2.3 z"
     fill="#000000"
     id="path1469" />
  <path
     d="m 201.7,129.1 c 2.2,-0.3 13,-1.5 15,-1.7 0.5,0 1.8,-0.2 2.2,-0.2 4.3,-0.6 6.3,4.1 6.7,7.6 0.2,3.1 0,6.1 0.1,9.1 0,2.1 -0.2,4.2 -0.7,6.2 -1.3,5.4 -5.1,11.1 -11.4,9.3 -1.5,-0.3 -4.5,-0.7 -5.9,-1 l -1.5,-0.3 c -2.9,-0.5 -5.3,-2.5 -6.9,-4.7 -3,-3.5 -2.4,-8.2 -2.7,-12.4 -0.4,-4.2 -0.3,-10.7 5.1,-11.9 z m 0.4,2.9 c -3.1,1.4 -2.3,6.1 -2.3,8.9 l 0.2,6 c 0.1,3.8 3.1,7.6 6.7,8.6 0.9,0.2 3.4,0.7 4.4,0.9 l 2.9,0.6 c 7.2,2.3 10,-7.7 9.9,-13.2 -0.3,-4.6 1.1,-10.1 -2.2,-13.8 -0.8,-0.8 -1.6,-1 -2.5,-0.8 -0.5,0.1 -1.8,0.3 -2.2,0.4 -2,0.4 -12.8,2.1 -14.9,2.4 z"
     fill="#000000"
     id="path1471" />
  <path
     d="m 141.6,138.4 c -0.8,1.8 -1.5,1.6 -2.9,1.6 l -2.9,-0.1 c -3.7,-0.2 -7.8,-0.5 -11.5,-1 -2,-0.3 -4.1,-0.6 -6.1,-1.1 -0.8,-0.2 -1.3,-1 -1.1,-1.8 0.2,-0.7 0.8,-1.2 1.5,-1.1 l 5.8,0.3 5.8,0.2 c 1.9,0.1 6.8,0.2 8.7,0.3 1,0 1.9,0.1 2.9,-0.2 0.4,-0.1 0.8,0.1 0.9,0.5 0.1,0.2 0,0.3 0,0.5 z"
     fill="#000000"
     id="path1473" />
  <path
     d="m 184.2,136.3 c 3.6,-2 13.1,-4.8 14.9,0.6 0.8,1.4 -1.3,2.7 -2.2,1.3 0,0.2 -0.5,0 -0.7,0 -3.8,-0.3 -7.7,0.3 -11.5,0.6 -1.6,0.2 -1.9,-1.9 -0.5,-2.5 z"
     fill="#000000"
     id="path1475" />
  <path
     style="fill:#000000"
     d="m 150.92449,126.8197 c -3.45957,-0.95699 -4.4916,1.50818 -6.36003,2.55104 l -3.13457,6.17828 c 0.10407,22.39994 5.25093,23.58536 10.47226,24.21332 9.92254,1.65431 15.48038,-1.60707 22.93104,-2.3794 3.92307,-2.45204 9.82409,-2.06882 9.60883,-10.4529 -0.94891,-5.14766 3.04348,-12.09016 -1.85118,-15.44069 -7.39039,-1.77703 -0.99256,-2.51918 -31.66635,-4.66965 z"
     id="path1654" />
  <path
     style="fill:#000000"
     d="m 199.32955,132.01424 c -0.0423,6.84637 -1.11112,13.83639 0.98013,20.38416 3.7993,4.09643 8.90835,4.16361 13.58686,5.55527 3.36659,0.002 6.92627,1.56084 9.44832,-5.25123 0.0345,-7.4262 4.06044,-13.86358 -0.11975,-22.33391 -1.35501,-2.56688 -5.05269,-1.61285 -7.90504,-1.92931 z"
     id="path1710" />
  <path
     style="fill:#ffffff;stroke-width:1000;stroke-dasharray:none"
     d="m 146.08695,134.85267 c -0.0586,-0.003 -0.12366,0.0183 -0.17567,-0.009 -0.0316,-0.0164 -0.014,-0.0721 -0.035,-0.10081 -0.0342,-0.0465 -0.12981,-0.0747 -0.18283,-0.15312 -0.0246,-0.0364 -0.0603,-0.0735 -0.0579,-0.0754 0.15066,-0.11832 0.29098,-0.26361 0.45099,-0.37219 0.61716,-0.4188 1.37343,-0.71964 2.01864,-1.02678 0.3864,-0.18394 0.77454,-0.3642 1.16131,-0.54734 0.45219,-0.21412 0.89344,-0.45275 1.35558,-0.64445 2.44133,-0.82067 0.0843,0.0214 1.55673,-0.60055 0.12977,-0.0548 0.26875,-0.0852 0.40015,-0.13599 0.16586,-0.0641 0.31428,-0.17028 0.4829,-0.22675 0.0304,-0.0102 0.0657,0.01 0.0963,0 0.01,-0.003 -0.007,-0.0232 0,-0.0309 0.004,-0.005 0.12075,-0.004 0.13094,0 0.008,0.004 -0.004,0.0187 0,0.0265 0.0108,0.0208 0.0699,0.0806 0.0901,0.091 0.0152,0.008 0.0412,-0.0138 0.0511,0 0.038,0.053 0.0334,0.0573 0.10653,0.0573"
     id="path2304" />
  <path
     style="fill:#ffffff;stroke-width:1000;stroke-dasharray:none"
     d="m 148.54683,135.13841 c -0.0586,-0.003 -0.12366,0.0183 -0.17567,-0.009 -0.0316,-0.0164 -0.014,-0.0721 -0.035,-0.10081 -0.0342,-0.0465 -0.12981,-0.0747 -0.18283,-0.15312 -0.0246,-0.0364 -0.0603,-0.0735 -0.0579,-0.0754 0.15066,-0.11832 0.29098,-0.26361 0.45099,-0.37219 0.61716,-0.4188 1.37343,-0.71964 2.01864,-1.02678 0.3864,-0.18394 0.77454,-0.3642 1.16131,-0.54734 0.45219,-0.21412 0.89344,-0.45275 1.35558,-0.64445 2.44133,-0.82067 0.0843,0.0214 1.55673,-0.60055 0.12977,-0.0548 0.26875,-0.0852 0.40015,-0.13599 0.16586,-0.0641 0.31428,-0.17028 0.4829,-0.22675 0.0304,-0.0102 0.0657,0.01 0.0963,0 0.01,-0.003 -0.007,-0.0232 0,-0.0309 0.004,-0.005 0.12075,-0.004 0.13094,0 0.008,0.004 -0.004,0.0187 0,0.0265 0.0108,0.0208 0.0699,0.0806 0.0901,0.091 0.0152,0.008 0.0412,-0.0138 0.0511,0 0.038,0.053 0.0334,0.0573 0.10653,0.0573"
     id="path2304-3" />
</svg>
