<svg width="1296" height="1296" viewBox="0 0 1296 1296" fill="none" xmlns="http://www.w3.org/2000/svg">
<mask id="mask0_465_1673" style="mask-type:alpha" maskUnits="userSpaceOnUse" x="0" y="0" width="1296" height="1296">
<circle cx="647.869" cy="647.869" r="647.869" fill="#D9D9D9"/>
</mask>
<g mask="url(#mask0_465_1673)">
<path d="M1003.04 1182.75C1000.07 1184.87 996.668 1186.99 993.694 1189.12C990.295 1191.24 987.321 1193.37 983.923 1195.07C980.949 1196.77 978.4 1198.47 975.426 1200.16C975.001 1200.59 974.576 1200.59 974.151 1201.01C964.38 1206.96 954.184 1212.48 943.988 1217.58C941.014 1219.28 937.615 1220.98 934.641 1222.26C934.641 1222.26 934.217 1222.68 933.792 1222.68C930.393 1224.38 926.994 1226.08 923.596 1227.78C916.798 1231.18 909.576 1234.15 902.779 1237.13C899.38 1238.82 895.556 1240.1 892.158 1241.37C888.759 1242.65 884.936 1244.35 881.537 1245.62C878.138 1246.9 874.315 1248.6 870.916 1249.87C870.916 1249.87 870.916 1249.87 870.491 1249.87C867.092 1251.14 863.269 1252.42 859.87 1253.69C852.223 1256.24 844.151 1258.79 836.504 1261.34C833.955 1262.19 830.981 1263.04 828.432 1263.89C820.36 1266.44 812.289 1268.56 804.217 1270.26C801.243 1271.11 798.269 1271.54 794.87 1272.39C787.223 1274.09 779.151 1275.79 771.504 1277.48C769.805 1277.91 768.53 1277.91 766.831 1278.33C764.282 1278.76 761.308 1279.18 758.759 1279.61C754.936 1280.03 751.537 1280.88 747.713 1281.31C746.014 1281.73 744.315 1281.73 742.615 1282.16C740.491 1282.58 737.942 1283.01 735.393 1283.01C728.596 1283.86 721.374 1284.71 714.576 1285.56C712.452 1285.98 709.903 1285.98 707.779 1286.41H707.354C704.38 1286.83 701.406 1286.83 698.432 1287.26C695.458 1287.68 692.485 1287.68 689.511 1287.68C687.811 1287.68 685.687 1288.11 683.988 1288.11C680.589 1288.11 677.615 1288.53 674.642 1288.53C670.393 1288.53 666.57 1288.96 662.321 1288.96C658.073 1288.96 654.249 1288.96 650.001 1288.96C647.027 1288.96 644.053 1288.96 641.079 1288.96C461.798 1286.41 300.785 1210.36 185.655 1089.71C185.655 1089.71 185.655 1089.28 185.23 1089.28C172.485 1077.81 183.53 1016.64 234.936 977.975C299.511 929.119 454.151 898.531 454.151 898.531C454.151 898.531 514.053 888.759 736.243 935.066C866.243 962.256 965.23 1001.77 1020.46 1108.82C1031.93 1130.92 1043.4 1164.9 1003.04 1182.75Z" fill="white"/>
<path d="M737.517 930.393C819.086 946.961 906.177 964.805 973.301 1018.76C995.818 1037.03 1010.69 1063.79 1023.01 1089.71C1028.96 1102.45 1034.9 1115.62 1039.58 1129.64C1042.12 1138.99 1045.95 1149.61 1043.82 1160.65C1043.4 1163.63 1040.85 1167.45 1038.73 1169.58C1028.96 1179.35 1018.33 1185.29 1007.71 1192.94C945.262 1236.28 873.465 1266.86 799.118 1283.01C633.432 1319.12 454.151 1291.08 308.432 1203.99C260.001 1174.67 215.393 1138.99 177.158 1096.93C172.909 1091.83 172.909 1083.33 172.909 1077.81C173.334 1065.07 176.733 1052.75 180.981 1041.28C191.177 1014.94 204.347 988.595 226.863 970.327C243.007 959.282 260.426 949.935 278.269 942.288C334.347 918.497 393.399 901.929 454.151 895.131C459.249 894.706 460.099 901.929 455.001 902.778C396.798 914.674 339.02 932.517 285.066 956.733C265.524 966.504 244.707 975.001 228.988 990.295C214.118 1006.44 203.497 1026.41 195.001 1046.8C189.478 1059.12 185.654 1078.66 187.354 1088.43C214.118 1120.29 245.556 1148.33 279.543 1172.55C465.622 1302.55 748.138 1311.05 946.112 1202.71C963.955 1192.94 981.373 1181.9 997.942 1170.43C1006.01 1164.9 1014.51 1160.23 1020.88 1153.86C1021.31 1153.43 1020.88 1153.86 1020.88 1154.28C1020.88 1154.71 1020.46 1155.13 1020.46 1155.13C1020.88 1150.03 1019.18 1143.24 1017.06 1136.44C1009.41 1111.8 997.092 1085.88 983.922 1063.37C963.105 1029.8 927.844 1008.56 892.158 991.569C867.517 980.099 841.602 971.177 815.262 962.68C788.922 954.184 762.158 946.961 735.393 940.589C728.596 938.889 730.72 929.118 737.517 930.393Z" fill="black"/>
<path d="M1144.09 1446.14H69.6748C69.6748 1446.14 82.4199 1260.91 146.995 1120.29C169.936 1070.59 187.779 998.365 229.838 965.653C278.27 928.267 373.858 904.901 407.845 898.104C432.91 893.006 436.309 897.679 453.727 893.006C453.727 895.13 454.152 896.829 454.152 898.954C454.152 898.954 500.034 1035.33 619.413 1083.76C716.701 1123.27 774.479 1096.93 783.4 1053.17C788.923 1025.13 771.505 979.248 762.583 964.378C757.485 960.13 754.087 953.758 752.387 947.385L748.989 933.365C757.06 931.666 764.708 929.542 772.355 926.993C774.904 926.143 777.028 925.293 779.577 924.444C841.178 941.862 915.949 973.3 981.374 1023.01C1017.06 1050.2 1046.8 1120.29 1083.33 1238.82C1126.24 1375.2 1144.09 1446.14 1144.09 1446.14Z" fill="black"/>
<path d="M818.238 1031.08C816.964 1019.18 814.839 1008.56 812.715 999.215C803.794 957.581 777.029 921.046 777.029 921.046C777.029 921.046 709.905 874.738 606.245 862.418C502.584 850.098 452.029 862.418 452.029 862.418C444.382 864.967 435.035 870.065 426.539 874.738C411.245 883.66 398.924 896.405 391.277 912.124C391.277 912.549 390.852 912.549 390.852 912.974C379.807 944.836 436.735 1062.52 583.303 1128.37C734.545 1196.34 828.434 1116.9 818.238 1031.08Z" fill="black"/>
<path d="M280.395 1693.82C274.872 1569.35 272.323 1438.07 270.624 1313.17C269.774 1264.74 267.65 1215.88 279.546 1168.3C297.814 1088.86 353.042 1014.51 432.062 988.596L429.088 991.57C438.01 969.053 447.781 943.988 469.448 930.818C470.297 930.393 470.722 931.668 470.297 932.092C455.428 942.288 447.356 959.707 440.559 976.275C438.01 981.798 436.735 988.596 434.186 993.694C404.448 1004.74 378.108 1023.86 356.441 1046.37C334.774 1069.31 317.356 1096.5 305.886 1125.82C291.016 1162.78 284.644 1202.29 283.369 1241.8C282.519 1390.92 286.768 1548.53 280.395 1693.82Z" fill="white"/>
<path d="M469.446 1693.82C460.949 1616.08 455.851 1536.21 455.001 1458.04C454.152 1386.24 456.276 1312.32 464.773 1240.95C469.446 1199.31 484.315 1104.15 515.328 1076.54L518.727 1073.99C520.851 1073.14 521.276 1072.29 524.25 1071.86L520.001 1076.11C522.126 1059.97 528.073 1044.67 536.57 1031.08C539.544 1026.83 542.518 1022.58 545.916 1018.33C546.341 1017.91 547.616 1018.33 546.766 1019.18C543.792 1023.43 540.818 1027.68 538.694 1032.35C531.472 1045.95 526.374 1060.82 525.099 1076.11C525.099 1076.54 524.675 1076.54 524.675 1076.96C522.126 1077.81 519.152 1079.93 517.027 1082.48C510.655 1089.28 506.407 1099.05 502.583 1107.55C496.635 1122.42 492.387 1138.56 488.988 1154.71C480.492 1195.91 475.818 1239.25 472.42 1281.31C467.746 1351.83 466.047 1426.6 466.047 1497.12L466.472 1536.63C466.472 1588.89 469.021 1641.57 470.295 1693.82C470.72 1694.25 469.446 1694.67 469.446 1693.82Z" fill="white"/>
<path d="M644.052 1693.82C644.477 1564.25 638.954 1434.25 638.529 1304.67C638.105 1246.05 638.105 1185.72 639.379 1127.09C643.203 1111.8 646.176 1095.65 647.451 1079.51C647.876 1074.41 647.876 1068.89 647.451 1063.37C647.451 1062.52 648.726 1062.52 648.726 1063.37C652.124 1084.61 649.575 1106.27 645.327 1127.52C647.026 1173.82 648.726 1221.83 649.575 1268.99C652.549 1375.2 653.399 1481.41 650.85 1587.61C650.425 1608.01 649.15 1638.17 647.876 1658.56C647.026 1670.46 645.752 1681.93 644.902 1693.82C644.902 1694.25 644.477 1694.25 644.052 1694.25C644.052 1694.25 644.052 1693.82 644.052 1693.82Z" fill="white"/>
<path d="M842.878 1693.82C839.054 1595.69 836.505 1492.88 828.008 1395.16C822.91 1333.14 814.838 1271.96 802.943 1211.21C795.721 1174.67 786.374 1137.71 771.505 1103.3C768.956 1083.76 762.583 1062.52 747.289 1048.92C746.864 1048.5 746.864 1048.07 747.289 1048.07C747.714 1047.65 747.714 1047.65 748.139 1048.07C752.387 1051.05 756.211 1054.87 759.61 1059.12C768.956 1071.44 774.904 1088.43 777.028 1102.45C794.446 1136.01 804.217 1172.55 813.139 1209.08C818.662 1232.88 823.76 1258.79 827.583 1282.58C833.106 1316.57 838.204 1359.9 840.753 1394.31C842.878 1415.13 844.152 1447.84 845.427 1469.08C847.126 1519.22 847.551 1568.92 846.701 1619.05L844.577 1693.82C844.577 1694.25 844.152 1694.25 843.727 1694.25C843.302 1694.25 842.878 1693.82 842.878 1693.82Z" fill="white"/>
<path d="M1002.61 1693.4C1013.23 1576.99 1008.99 1458.89 992.418 1343.33C988.169 1313.17 981.797 1281.73 975 1251.99C966.928 1222.68 957.156 1192.94 943.986 1165.75C934.64 1144.93 922.32 1124.97 910 1105.85C893.006 1081.63 871.339 1056.57 847.973 1038.3C836.078 1028.53 823.333 1019.18 809.738 1012.39C802.941 1003.46 798.692 994.543 788.921 986.046C781.274 978.824 771.928 972.876 761.307 972.451C760.882 972.451 760.457 972.026 760.457 971.602C760.457 971.177 760.882 971.177 760.882 971.177C766.405 970.752 771.928 972.451 777.026 974.576C791.895 981.798 802.941 994.968 811.862 1008.56C870.915 1036.18 917.647 1092.26 948.66 1150.03C960.98 1174.67 972.026 1200.16 979.673 1226.5L986.47 1249.02C1006.86 1333.14 1014.93 1419.8 1016.21 1506.05C1016.63 1568.92 1013.23 1631.8 1003.46 1693.82C1003.46 1694.25 1003.04 1694.25 1002.61 1694.25C1002.61 1694.25 1002.61 1693.82 1002.61 1693.4Z" fill="white"/>
<path d="M811.441 1204.84C870.919 1206.96 915.102 1187.84 921.899 1123.69C922.324 1118.59 926.147 1114.77 930.821 1113.92C956.736 1107.55 974.154 1084.61 979.252 1058.69C980.526 1054.44 980.951 1048.92 981.801 1044.67C982.226 1040 982.651 1034.9 983.075 1029.8C983.075 1029.38 983.5 1029.38 983.925 1029.38C984.35 1029.38 984.35 1029.8 984.35 1029.8C985.2 1038.73 986.049 1050.62 985.2 1059.54C983.5 1089.71 963.533 1118.17 933.37 1126.24L934.219 1125.39C930.821 1172.55 901.932 1206.96 853.5 1209.93C839.481 1211.21 825.036 1209.93 811.017 1206.54C810.592 1206.54 810.592 1206.11 810.592 1205.69C810.592 1204.84 811.017 1204.84 811.441 1204.84Z" fill="white"/>
<path d="M217.943 1008.99C222.616 1033.2 236.635 1056.99 257.877 1069.74C259.576 1071.01 263.4 1072.71 265.099 1073.99C268.923 1075.69 273.171 1077.39 276.995 1078.66L285.067 1080.78C287.191 1081.63 291.014 1082.06 293.563 1082.48L302.06 1083.76C310.557 1085.03 323.727 1080.36 327.975 1090.13C356.014 1149.61 410.818 1194.64 479.642 1181.47C483.89 1181.05 488.139 1182.74 489.838 1186.57C493.661 1192.52 498.76 1198.89 503.433 1204.41C527.648 1233.3 564.184 1254.54 602.844 1246.47C618.139 1243.5 633.008 1237.12 646.603 1228.63C647.027 1228.2 647.452 1228.63 647.452 1228.63C587.55 1278.33 520.426 1251.99 479.642 1192.52L480.916 1192.94C463.923 1195.91 446.505 1196.76 429.086 1193.37C378.106 1184.02 339.021 1140.69 318.629 1093.53L319.478 1093.95C310.557 1093.53 300.786 1093.1 291.864 1090.98C289.315 1090.56 285.067 1089.71 282.943 1088.86C277.844 1087.58 270.197 1084.61 265.524 1082.06L261.276 1079.93L257.452 1077.39C255.753 1076.11 251.505 1073.99 249.805 1072.29C230.263 1056.99 218.792 1032.78 216.243 1008.56C216.243 1008.14 216.668 1007.71 216.668 1007.71C217.943 1008.56 217.943 1008.56 217.943 1008.99Z" fill="white"/>
<path d="M796.996 1153.43C847.976 1139.84 873.041 1110.1 865.394 1056.57C864.969 1053.17 865.819 1049.77 867.943 1047.65C881.963 1031.08 885.786 1008.56 883.662 987.32C883.237 980.523 880.688 970.752 879.414 963.954C879.414 963.529 879.414 963.104 879.839 963.104C880.263 963.104 880.263 963.105 880.688 963.529C884.087 970.752 887.486 978.399 889.61 986.046C893.858 1001.76 893.858 1018.76 888.76 1034.05C886.211 1041.7 882.388 1049.35 877.29 1055.72L877.714 1054.87C884.937 1093.1 872.192 1132.61 833.531 1147.48C822.061 1152.16 809.741 1154.71 797.42 1155.13C796.146 1154.71 796.146 1153.43 796.996 1153.43Z" fill="white"/>
<path d="M316.929 944.411C310.132 966.503 317.779 991.143 334.348 1006.86L336.472 1009.41L339.021 1011.54C344.119 1015.78 350.067 1019.61 355.589 1023.43L367.485 1029.8C370.034 1031.08 371.733 1033.63 372.158 1036.6C380.655 1068.46 406.57 1093.53 435.884 1107.12C454.576 1116.89 474.969 1121.57 495.361 1125.39C501.308 1126.67 503.008 1132.19 507.256 1136.01C511.929 1140.69 517.027 1145.36 522.125 1149.61C553.139 1175.95 594.773 1189.97 635.557 1184.44L646.178 1183.17C646.603 1183.17 647.027 1183.17 647.027 1183.59C647.027 1184.02 647.027 1184.02 646.603 1184.44C605.393 1197.19 559.936 1189.12 524.25 1164.48C513.629 1157.25 498.759 1144.93 492.812 1136.86C464.348 1132.19 435.459 1123.69 411.668 1107.12C388.727 1091.83 366.21 1062.94 363.237 1037.88C356.014 1033.63 345.393 1026.83 339.021 1021.73C337.746 1020.88 332.223 1015.36 330.949 1014.08C328.825 1011.54 325.851 1008.56 324.152 1005.59C311.406 987.745 307.158 963.529 316.08 943.137C316.08 942.712 316.504 942.712 316.929 942.712C317.354 943.562 317.354 943.986 316.929 944.411Z" fill="white"/>
<path d="M391.276 912.549C390.426 932.091 397.649 951.634 410.394 966.078C412.943 969.477 417.191 973.301 420.59 976.274C421.864 977.124 426.113 980.523 427.387 981.372C431.636 984.771 439.283 986.47 439.707 992.418C440.982 1001.76 445.655 1011.54 451.178 1019.18C468.596 1044.67 498.76 1058.27 528.073 1066.76C530.622 1067.61 532.322 1068.89 533.596 1071.01C559.511 1103.73 602.42 1120.72 643.629 1116.47C650.851 1116.9 657.224 1120.72 664.871 1121.99C681.015 1126.24 698.858 1128.37 715.426 1127.09C737.518 1126.24 757.91 1116.9 768.956 1097.78C771.08 1094.8 774.054 1094.38 776.603 1092.25C788.498 1084.18 798.27 1073.14 804.217 1059.97C811.864 1044.25 810.165 1026.41 805.917 1010.26C806.766 1003.46 808.041 995.817 807.616 988.17C807.191 966.928 798.694 946.111 785.1 929.542C784.25 929.118 785.524 927.843 785.949 928.693C807.191 949.51 816.962 980.523 812.714 1009.84C826.309 1045.1 810.59 1083.76 777.453 1104.15C767.256 1124.12 740.492 1138.14 716.701 1138.99C693.335 1141.11 665.296 1136.01 645.328 1129.22C599.871 1133.89 552.289 1114.35 524.675 1077.39L525.1 1077.81C515.753 1074.84 503.008 1070.16 494.511 1065.91C492.387 1064.64 485.59 1061.24 483.466 1059.97C480.917 1058.27 475.394 1054.87 473.27 1053.17L466.897 1048.07C449.904 1034.05 436.309 1014.93 433.335 992.843L433.76 993.693C430.361 991.144 426.962 989.019 423.988 986.47L419.315 982.647L417.191 980.523C415.067 978.399 412.943 975.85 410.819 974.15C406.995 969.477 403.171 964.379 400.198 959.281C392.551 945.261 388.727 928.693 390.851 912.549C390.851 912.124 391.276 912.124 391.701 912.124C390.851 912.124 391.276 912.124 391.276 912.549Z" fill="white"/>
<path d="M755.071 1180.47C755.213 1168.27 745.628 1158.27 733.663 1158.13C721.698 1157.99 711.884 1167.77 711.742 1179.97C711.6 1192.16 721.185 1202.17 733.15 1202.31C745.115 1202.45 754.929 1192.67 755.071 1180.47Z" fill="white"/>
<path d="M780.001 1237.97C782.975 1260.49 768.105 1281.31 746.863 1283.85C725.622 1286.4 706.079 1270.68 703.105 1247.74C700.131 1225.23 713.726 1194.21 734.968 1191.24C756.21 1188.69 777.027 1215.03 780.001 1237.97Z" fill="white"/>
<path d="M724.77 1210.78C713.724 1219.7 683.985 1220.55 672.09 1212.06C657.221 1200.59 672.94 1162.78 683.136 1150.88C683.56 1150.46 684.41 1150.46 684.41 1151.31L680.587 1175.95C679.737 1184.02 678.038 1192.51 678.887 1200.16C678.887 1201.86 680.587 1202.71 682.286 1203.14C693.757 1207.38 706.077 1208.66 718.397 1209.93C720.096 1209.93 723.07 1210.36 724.345 1209.51C724.345 1209.93 724.77 1210.36 724.77 1210.78Z" fill="white"/>
<path d="M721.373 1235.85C705.229 1247.32 687.386 1252.42 667.419 1250.29C666.145 1250.29 663.595 1249.44 662.321 1249.02C641.929 1242.22 635.131 1217.16 639.38 1198.04C639.38 1197.19 640.23 1196.76 640.654 1197.61C645.328 1212.48 651.7 1234.15 669.118 1237.12C677.615 1238.4 686.537 1237.97 695.033 1237.12C703.53 1236.27 712.452 1235.42 720.948 1233.72C721.798 1234.15 722.223 1235 721.373 1235.85C721.373 1235.85 721.798 1235.42 721.373 1235.85Z" fill="white"/>
<path d="M715.425 1256.67C706.079 1260.91 697.582 1264.31 690.785 1268.56C685.687 1271.96 682.288 1274.51 680.164 1280.03C677.615 1286.83 678.04 1294.9 678.465 1304.25C679.314 1312.74 680.589 1322.09 681.014 1332.29C681.014 1332.71 680.164 1333.14 679.739 1332.71C666.144 1311.04 653.824 1269.41 686.961 1259.21C695.883 1256.24 705.654 1255.39 715.001 1255.82C716.275 1255.39 716.275 1256.67 715.425 1256.67Z" fill="white"/>
<path d="M726.046 1270.26C724.347 1281.31 720.098 1288.95 723.497 1297.45C729.445 1309.77 734.543 1322.51 734.543 1337.38C734.543 1337.81 733.693 1338.23 733.693 1337.81C729.87 1332.71 726.046 1327.19 722.223 1321.66C717.549 1313.17 710.327 1304.67 710.327 1294.48C710.752 1284.28 717.549 1275.36 724.772 1268.99C726.046 1268.56 726.471 1269.41 726.046 1270.26Z" fill="white"/>
<path d="M750.26 1206.53C752.384 1204.41 757.058 1200.59 759.607 1198.46C766.404 1192.94 775.75 1186.99 782.548 1181.47C782.973 1181.04 783.397 1180.62 782.973 1181.47C782.548 1181.89 782.123 1182.74 781.698 1183.59C781.273 1184.87 780.848 1185.72 781.273 1186.99C777.45 1171.7 772.777 1156.83 773.626 1140.26V1139.84C773.626 1139.41 774.476 1138.99 774.901 1139.41C780.424 1150.46 785.947 1161.93 790.195 1173.4C791.894 1177.65 794.018 1182.32 794.018 1187.42C793.594 1189.54 791.894 1190.39 790.62 1191.67C785.522 1195.49 779.574 1198.04 774.051 1200.59C771.077 1201.86 748.986 1211.21 749.835 1206.96C749.835 1206.53 750.26 1206.53 750.26 1206.53Z" fill="white"/>
<path d="M759.181 1229.48C774.476 1219.7 792.319 1215.46 807.613 1209.08C811.861 1206.53 813.985 1202.29 816.534 1197.19C820.358 1190.39 823.332 1181.89 827.58 1172.97C827.58 1172.55 828.005 1172.55 828.43 1172.55C829.704 1185.72 828.005 1200.16 821.208 1212.06C813.985 1224.38 797.842 1225.23 785.096 1227.78C776.175 1229.05 767.678 1230.33 758.757 1230.75C758.332 1230.75 758.332 1229.9 759.181 1229.48Z" fill="white"/>
<path d="M769.801 1248.17C802.938 1220.55 843.298 1242.22 836.076 1285.55C834.376 1295.75 830.553 1305.52 823.331 1313.59C822.906 1314.02 822.056 1313.59 822.056 1313.17C823.331 1308.49 824.18 1304.25 824.605 1299.57C828.853 1268.14 820.782 1241.37 783.396 1246.89C778.723 1247.32 774.049 1248.17 769.801 1249.44C769.376 1249.87 768.951 1248.59 769.801 1248.17Z" fill="white"/>
<path d="M763.855 1264.31C778.724 1262.61 794.868 1274.08 795.293 1290.65C794.443 1307.65 786.796 1322.94 772.776 1333.14C772.351 1333.56 771.502 1333.56 771.502 1332.71C775.75 1320.39 779.999 1308.07 782.123 1295.33C783.822 1288.95 782.123 1283 777.874 1277.91C774.051 1273.23 768.953 1268.99 763.43 1265.59C762.58 1264.74 763.005 1263.89 763.855 1264.31Z" fill="white"/>
<path d="M777.449 1043.4C768.527 1087.16 710.749 1113.5 613.462 1073.99C512.351 1033.2 468.593 935.915 457.547 907.027C517.449 794.87 475.815 717.125 475.815 717.125C613.887 705.229 734.54 866.667 734.54 866.667L753.233 946.536C754.933 953.334 758.331 959.281 763.429 963.53C772.351 979.249 782.972 1015.36 777.449 1043.4Z" fill="white"/>
<path d="M455.424 908.301C463.496 895.98 468.594 881.536 471.993 867.516C478.365 838.203 480.49 808.464 480.914 778.725V767.68C479.64 756.634 475.816 745.163 471.568 734.967C466.045 721.373 486.012 712.876 492.385 726.471C493.235 728.17 493.235 731.144 493.235 732.843C494.509 790.621 497.058 864.967 460.522 912.974C457.973 915.523 452.875 911.699 455.424 908.301Z" fill="black"/>
<path d="M739.213 865.818C745.586 869.641 747.71 874.739 748.56 879.837C751.109 890.033 750.259 901.079 752.808 911.7C754.932 921.896 761.305 931.667 763.004 942.288C765.129 953.334 771.501 976.7 774.05 988.171C774.9 990.72 773.2 993.693 770.227 994.118C768.527 994.543 767.253 994.118 765.978 993.269C760.455 988.595 757.906 983.922 754.508 977.974C748.985 967.778 745.161 958.432 741.763 946.961C738.789 936.765 740.063 925.72 737.514 915.099C735.39 904.903 729.442 895.131 727.318 884.51C726.044 879.412 725.619 873.89 729.442 867.517C731.991 864.968 736.24 864.118 739.213 865.818Z" fill="black"/>
<path d="M769.803 977.975C688.659 973.726 622.385 948.236 557.81 833.105C612.189 881.112 676.339 899.38 743.888 907.877L752.81 946.962C754.509 953.759 764.705 973.726 769.803 977.975Z" fill="black"/>
<path d="M766.406 962.255C780.851 989.444 789.348 1023.43 780.426 1053.59C773.629 1074.84 754.086 1090.56 732.844 1096.5C683.563 1109.67 626.635 1088.86 582.877 1065.49C528.923 1035.33 488.988 984.771 463.498 929.542C461.798 925.294 467.746 921.895 470.295 926.144C479.217 943.987 489.413 961.405 500.883 977.124C512.354 993.268 525.524 1008.14 540.393 1021.31C583.727 1060.39 642.354 1084.61 700.982 1084.61C761.308 1082.91 784.25 1051.05 770.23 992.418C768.106 983.072 764.707 973.301 760.034 965.229C757.485 961.83 763.857 958.006 766.406 962.255Z" fill="black"/>
<path d="M930.817 452.027C938.464 487.713 942.287 516.602 921.47 611.765C901.078 706.504 950.784 726.046 833.104 877.713C785.098 939.739 668.692 922.321 574.379 858.17C542.516 836.504 528.921 780.85 505.13 741.34C486.438 710.327 477.941 742.615 453.3 715.85C419.738 679.314 379.379 605.818 399.346 475.818C431.634 265.099 598.594 240.458 722.222 263.824C846.699 287.615 910.424 358.138 930.817 452.027Z" fill="white"/>
<path d="M474.542 753.66C464.771 737.092 452.025 722.647 440.13 707.353C428.659 691.634 419.313 674.216 411.666 656.373C361.11 532.321 380.653 357.713 504.705 284.641C556.11 254.902 618.137 247.68 675.914 252.353C799.542 261.275 912.973 318.203 939.738 449.053C954.182 506.83 934.64 566.308 923.594 622.811C918.496 650.85 922.744 679.739 922.32 708.628C921.895 737.942 913.823 767.255 902.777 794.445C895.98 813.138 884.084 829.706 871.764 845C851.372 869.641 830.98 894.706 805.065 913.824C799.117 918.072 788.496 920.196 781.274 921.046C761.306 924.02 741.764 924.87 721.797 923.595C643.627 920.196 559.934 882.386 528.496 806.765C527.222 803.791 531.47 801.667 533.169 804.216C573.954 868.791 648.725 900.654 723.071 904.902C746.012 906.177 769.378 905.752 791.895 901.079C802.94 895.556 812.712 885.785 822.058 876.863C844.999 853.922 868.365 829.281 884.934 801.242C904.901 763.432 915.947 722.223 912.548 679.314C911.699 660.196 911.274 640.229 915.097 621.111C918.496 601.994 922.744 583.726 925.293 564.183C927.842 545.491 929.117 526.373 929.117 507.68C926.993 452.876 909.15 396.373 874.313 353.889C797.418 258.301 615.588 233.236 513.202 298.661C448.627 338.595 418.463 413.366 408.692 486.013C393.823 573.105 398.071 658.922 467.32 722.223L487.712 743.464C495.784 752.811 481.339 763.857 474.542 753.66Z" fill="black"/>
<path d="M524.671 618.562C524.671 618.562 511.501 554.837 449.475 562.484C395.945 569.281 377.253 697.582 498.756 733.268" fill="white"/>
<path d="M493.234 677.614C483.463 672.092 476.666 662.745 476.241 651.275C476.666 642.778 477.94 633.007 475.816 624.51C474.541 616.438 466.045 614.314 459.672 614.739C452.875 616.013 448.626 624.51 447.352 631.307C447.352 631.732 446.927 633.007 446.927 633.431C446.502 635.556 443.103 635.556 442.254 633.431C436.731 616.863 449.051 598.595 466.894 600.719C491.96 602.418 495.358 628.758 490.685 648.726C488.136 657.222 491.535 664.869 496.208 672.092L497.058 673.366C499.182 675.915 495.783 679.314 493.234 677.614Z" fill="black"/>
<path d="M833.102 573.53C839.475 603.693 851.37 631.732 866.24 658.072C879.41 690.36 845.423 720.948 815.259 719.673C811.861 719.673 811.436 715 814.41 714.151C833.527 708.203 850.946 695.458 853.919 675.915C855.194 669.968 853.495 664.87 850.521 659.772C836.501 633.432 828.004 603.268 830.129 573.53C830.129 571.405 833.102 571.405 833.102 573.53Z" fill="black"/>
<path d="M522.549 618.987C512.777 593.922 491.536 570.131 463.072 570.556C460.523 570.131 456.274 570.98 453.725 570.98C446.503 571.405 440.555 573.954 435.032 579.052C407.843 606.242 412.516 654.248 434.608 684.412C442.255 695.033 452.026 704.379 463.072 712.026C474.117 719.673 486.438 725.621 499.608 730.719C502.581 731.569 501.307 736.242 498.333 735.817C469.869 729.869 442.679 715.85 423.987 692.484C395.098 657.647 389.15 599.445 423.562 565.458C431.209 558.66 441.83 553.562 452.451 553.562C455.849 553.562 460.947 552.713 464.346 553.562C482.189 554.412 499.183 563.333 510.228 577.353C520 589.248 525.523 603.693 527.222 618.137C527.222 620.686 523.398 621.536 522.549 618.987Z" fill="black"/>
<path d="M800.818 762.157C773.628 788.072 722.223 767.255 708.628 735.817C706.929 731.993 711.177 728.595 714.576 730.294C721.798 734.118 728.171 737.941 734.968 740.915C754.51 749.837 774.903 757.059 796.569 754.935C800.818 754.085 803.791 759.183 800.818 762.157Z" fill="black"/>
<path d="M674.641 616.863C664.445 616.438 656.798 607.941 657.647 597.745L658.072 585.85C658.497 575.654 666.994 568.007 677.19 568.856C687.386 569.281 695.033 577.778 694.183 587.974L693.759 599.87C693.334 609.641 684.837 617.288 674.641 616.863Z" fill="black"/>
<path d="M853.496 623.236C844.149 622.811 836.927 614.739 837.352 605.393L837.777 594.347C838.201 585.001 846.273 577.779 855.62 578.203C864.966 578.628 872.188 586.7 871.763 596.046L871.339 607.092C870.914 616.439 862.842 623.661 853.496 623.236Z" fill="black"/>
<path d="M712.876 593.922C698.856 584.576 683.562 578.203 666.569 581.602C661.046 582.451 655.523 584.151 652.124 587.974C650.85 589.674 647.876 589.249 647.876 586.7C648.301 578.203 655.523 572.68 662.32 569.281C675.49 562.484 693.758 563.759 705.654 572.68C709.902 575.229 724.347 590.948 716.7 594.347C715 595.196 714.151 594.772 712.876 593.922Z" fill="black"/>
<path d="M834.38 596.046C834.38 578.203 856.471 571.83 870.066 578.203C877.713 581.602 883.236 588.399 885.36 596.471C886.21 599.02 882.386 601.144 880.687 599.02C873.465 590.523 861.145 586.275 851.373 591.373C848.4 593.072 847.975 594.347 847.125 596.046C847.125 604.543 834.805 604.118 834.38 596.046Z" fill="black"/>
<path d="M733.269 523.824C742.19 526.798 751.112 518.726 749.412 508.955C748.563 503.857 746.438 498.759 742.19 494.935C729.445 483.464 676.765 473.268 644.902 488.138C616.863 501.732 692.484 510.229 733.269 523.824Z" fill="black"/>
<path d="M860.296 530.621C853.074 533.17 845.427 525.523 846.702 516.602C847.127 511.928 848.826 507.255 852.225 503.857C862.421 493.66 897.257 485.589 919.349 501.308C938.466 514.477 893.434 518.301 860.296 530.621Z" fill="black"/>
<path d="M972.452 362.81C950.36 174.182 763.007 110.457 799.118 236.208C799.118 236.208 749.837 157.189 638.955 152.94C543.792 149.542 601.569 217.091 601.569 217.091C601.569 217.091 527.648 174.607 402.321 238.333C293.138 293.986 394.249 342.842 394.249 342.842C394.249 342.842 311.831 386.601 310.556 480.914C310.131 505.555 330.524 543.365 378.955 531.045C366.635 624.934 423.988 701.829 450.328 733.267C484.314 774.052 487.288 805.065 487.288 805.065C504.707 795.293 484.314 751.535 484.739 728.594C378.53 687.81 397.648 569.28 449.478 562.483C503.857 555.686 520.85 604.117 523.824 616.012C532.746 605.391 535.295 564.182 540.393 520.424C556.112 515.326 570.131 509.803 581.602 502.581C626.635 475.816 647.877 429.509 693.759 402.32C774.053 354.313 794.87 462.646 837.779 422.712C887.484 376.829 923.596 413.365 934.641 469.869C938.89 490.261 964.805 488.561 968.628 468.169C974.576 438.431 977.125 402.744 972.452 362.81Z" fill="black"/>
</g>
</svg>
