<svg width="1296" height="1296" viewBox="0 0 1296 1296" fill="none" xmlns="http://www.w3.org/2000/svg">
<mask id="mask0_473_2266" style="mask-type:alpha" maskUnits="userSpaceOnUse" x="0" y="0" width="1296" height="1296">
<circle cx="647.869" cy="647.869" r="647.869" fill="#D9D9D9"/>
</mask>
<g mask="url(#mask0_473_2266)">
<path d="M1003.04 1182.75C1000.07 1184.87 996.668 1186.99 993.694 1189.12C990.295 1191.24 987.321 1193.37 983.923 1195.07C980.949 1196.77 978.4 1198.47 975.426 1200.16C975.001 1200.59 974.576 1200.59 974.151 1201.01C964.38 1206.96 954.184 1212.48 943.988 1217.58C941.014 1219.28 937.615 1220.98 934.641 1222.26C934.641 1222.26 934.217 1222.68 933.792 1222.68C930.393 1224.38 926.994 1226.08 923.596 1227.78C916.798 1231.18 909.576 1234.15 902.779 1237.13C899.38 1238.82 895.556 1240.1 892.158 1241.37C888.759 1242.65 884.936 1244.35 881.537 1245.62C878.138 1246.9 874.315 1248.6 870.916 1249.87C870.916 1249.87 870.916 1249.87 870.491 1249.87C867.092 1251.14 863.269 1252.42 859.87 1253.69C852.223 1256.24 844.151 1258.79 836.504 1261.34C833.955 1262.19 830.981 1263.04 828.432 1263.89C820.36 1266.44 812.289 1268.56 804.217 1270.26C801.243 1271.11 798.269 1271.54 794.87 1272.39C787.223 1274.09 779.151 1275.79 771.504 1277.48C769.805 1277.91 768.53 1277.91 766.831 1278.33C764.282 1278.76 761.308 1279.18 758.759 1279.61C754.936 1280.03 751.537 1280.88 747.713 1281.31C746.014 1281.73 744.315 1281.73 742.615 1282.16C740.491 1282.58 737.942 1283.01 735.393 1283.01C728.596 1283.86 721.374 1284.71 714.576 1285.56C712.452 1285.98 709.903 1285.98 707.779 1286.41H707.354C704.38 1286.83 701.406 1286.83 698.432 1287.26C695.458 1287.68 692.485 1287.68 689.511 1287.68C687.811 1287.68 685.687 1288.11 683.988 1288.11C680.589 1288.11 677.615 1288.53 674.642 1288.53C670.393 1288.53 666.57 1288.96 662.321 1288.96C658.073 1288.96 654.249 1288.96 650.001 1288.96C647.027 1288.96 644.053 1288.96 641.079 1288.96C461.798 1286.41 300.785 1210.36 185.655 1089.71C185.655 1089.71 185.655 1089.28 185.23 1089.28C172.485 1077.81 183.53 1016.64 234.936 977.975C299.511 929.119 454.151 898.531 454.151 898.531C454.151 898.531 514.053 888.759 736.243 935.066C866.243 962.256 965.23 1001.77 1020.46 1108.82C1031.93 1130.92 1043.4 1164.9 1003.04 1182.75Z" fill="white"/>
<path d="M737.517 930.393C819.086 946.961 906.177 964.805 973.301 1018.76C995.818 1037.03 1010.69 1063.79 1023.01 1089.71C1028.96 1102.45 1034.9 1115.62 1039.58 1129.64C1042.12 1138.99 1045.95 1149.61 1043.82 1160.65C1043.4 1163.63 1040.85 1167.45 1038.73 1169.58C1028.96 1179.35 1018.33 1185.29 1007.71 1192.94C945.262 1236.28 873.465 1266.86 799.118 1283.01C633.432 1319.12 454.151 1291.08 308.432 1203.99C260.001 1174.67 215.393 1138.99 177.158 1096.93C172.909 1091.83 172.909 1083.33 172.909 1077.81C173.334 1065.07 176.733 1052.75 180.981 1041.28C191.177 1014.94 204.347 988.595 226.863 970.327C243.007 959.282 260.426 949.935 278.269 942.288C334.347 918.497 393.399 901.929 454.151 895.131C459.249 894.706 460.099 901.929 455.001 902.778C396.798 914.674 339.02 932.517 285.066 956.733C265.524 966.504 244.707 975.001 228.988 990.295C214.118 1006.44 203.497 1026.41 195.001 1046.8C189.478 1059.12 185.654 1078.66 187.354 1088.43C214.118 1120.29 245.556 1148.33 279.543 1172.55C465.622 1302.55 748.138 1311.05 946.112 1202.71C963.955 1192.94 981.373 1181.9 997.942 1170.43C1006.01 1164.9 1014.51 1160.23 1020.88 1153.86C1021.31 1153.43 1020.88 1153.86 1020.88 1154.28C1020.88 1154.71 1020.46 1155.13 1020.46 1155.13C1020.88 1150.03 1019.18 1143.24 1017.06 1136.44C1009.41 1111.8 997.092 1085.88 983.922 1063.37C963.105 1029.8 927.844 1008.56 892.158 991.569C867.517 980.099 841.602 971.177 815.262 962.68C788.922 954.184 762.158 946.961 735.393 940.589C728.596 938.889 730.72 929.118 737.517 930.393Z" fill="black"/>
<path d="M386.178 911.698C401.047 938.038 457.55 1043.82 466.472 1137.29L519.151 1155.13C519.151 1155.13 479.217 978.397 407.844 896.404C407.844 896.404 399.347 892.58 388.727 899.803C385.328 902.776 383.628 907.45 386.178 911.698Z" fill="black"/>
<path d="M838.203 1138.56C838.203 1138.56 840.752 1020.88 789.771 943.562C788.497 941.438 790.196 938.464 792.745 938.889C796.144 939.738 801.242 941.013 809.314 944.836C822.909 951.209 867.092 1018.76 870.915 1129.64C870.915 1129.22 842.451 1138.56 838.203 1138.56Z" fill="black"/>
<path d="M983.496 1028.11C961.405 1004.74 894.705 969.903 883.235 970.752C883.659 971.602 883.66 972.877 884.084 974.151C901.927 1038.3 887.483 1125.39 822.483 1139.84C754.934 1154.71 698.431 1156.83 562.908 1143.24C463.496 1133.46 370.032 1044.25 322.45 955.883C317.777 946.961 312.254 938.04 306.307 929.968C302.908 927.419 296.535 927.844 291.862 931.667C279.967 941.439 264.248 940.589 264.248 949.935C264.248 949.935 174.182 977.975 142.744 1175.52C124.901 1287.26 99.836 1432.12 98.9863 1481.41H1066.34C1059.54 1415.13 1066.34 1119.87 983.496 1028.11Z" fill="black"/>
<path d="M975.426 1035.75C962.681 1023.01 946.112 1013.23 930.393 1003.89C915.949 995.392 898.106 986.045 883.237 981.797L893.008 968.202L893.433 970.751C905.328 1020.46 902.779 1079.51 868.367 1120.29C856.472 1133.89 839.054 1143.66 821.21 1146.63C788.073 1153.43 753.661 1157.25 719.674 1157.25C660.197 1156.83 601.57 1152.16 542.942 1144.08C501.308 1135.16 462.648 1114.35 429.086 1088.43C381.929 1051.89 345.818 1003.89 312.256 955.032C307.583 948.235 302.06 941.862 296.112 936.339L298.237 938.888C299.086 939.738 299.511 939.313 299.086 939.313C299.086 939.313 298.237 939.313 297.812 939.738C297.387 939.738 297.387 939.738 296.962 940.588C290.165 946.535 279.119 949.509 272.321 953.333C272.746 953.333 273.596 950.784 273.596 950.359L265.949 960.555L264.674 960.98L262.975 961.829C204.772 993.267 176.733 1068.04 161.439 1129.22C146.57 1198.89 137.648 1270.69 125.753 1340.78C118.955 1387.52 110.459 1435.52 108.335 1481.83L97.2888 1470.78H1066.34L1055.72 1482.68C1046.8 1365 1051.47 1126.24 975.426 1035.75ZM991.57 1020.88C1073.56 1116.47 1068.47 1356.5 1077.39 1480.55C1077.81 1486.5 1073.56 1492.03 1067.62 1492.45C1067.19 1493.3 99.413 1492.03 98.9881 1492.45C93.0404 1492.45 87.9424 1487.78 87.9424 1481.83C88.7921 1456.76 92.1907 1432.55 95.1646 1408.76C104.936 1337.39 116.831 1266.44 128.302 1195.49C135.524 1147.91 145.295 1099.05 164.413 1054.02C183.531 1009.41 211.995 962.679 257.877 941.012C258.727 940.588 259.576 940.163 260.851 939.738L253.204 949.934C252.779 935.065 268.923 931.241 279.119 926.993C285.916 923.169 291.439 917.646 299.936 917.646C304.184 917.222 311.831 918.921 315.23 924.019C321.178 935.914 326.276 947.81 331.374 959.705C339.871 978.823 350.916 996.666 363.661 1013.23C409.544 1071.44 471.57 1122.42 545.491 1137.29C570.132 1141.54 595.622 1142.38 620.263 1144.51C686.962 1149.18 754.086 1150.03 819.086 1133.89C834.38 1130.49 847.55 1122.42 857.322 1110.52C886.21 1073.99 886.21 1020.46 873.465 977.124L872.616 973.725C870.491 967.352 875.59 960.13 882.387 960.13C894.707 960.555 904.054 966.503 915.099 971.176C942.289 984.771 969.054 999.215 991.57 1020.88Z" fill="black"/>
<path d="M848.4 1185.72C778.727 1215.46 549.74 1222.25 433.335 1159.38C359.838 1119.87 312.257 1032.78 289.315 999.214C272.322 973.724 263.825 949.933 263.825 949.933C263.825 940.587 279.969 941.437 291.44 931.665C296.113 927.842 302.485 927.417 305.884 929.966C311.832 938.463 317.355 946.96 322.028 955.881C369.61 1043.82 444.806 1132.19 562.485 1143.23C698.008 1155.98 754.511 1154.7 822.061 1139.84C887.061 1125.39 901.505 1038.3 883.662 974.149C883.237 973.299 883.237 972.025 882.812 970.75C894.283 969.901 916.374 972.025 924.446 992.417C924.871 992.417 957.583 1139.41 848.4 1185.72Z" fill="white"/>
<path d="M850.949 1191.67C822.909 1203.14 793.596 1207.38 764.282 1210.78C734.968 1214.18 705.654 1215.46 676.341 1215.46C602.844 1214.61 528.073 1207.81 458.824 1181.47C379.805 1153.01 328.824 1081.21 286.341 1013.23C273.596 994.541 261.7 975.424 254.478 953.757C252.354 948.234 255.752 940.587 260.426 937.188C266.798 932.09 274.02 932.09 280.393 929.541C284.641 928.267 287.19 925.718 291.014 923.593C297.811 920.62 305.458 918.071 313.955 921.894C362.811 1028.53 443.105 1130.49 568.857 1139.41C652.125 1147.06 737.092 1155.55 819.511 1136.44C852.648 1130.91 874.315 1101.18 881.962 1069.74C890.458 1037.87 887.909 1003.46 878.988 972.025C878.138 969.051 880.262 966.077 883.236 966.077C901.504 964.378 924.02 972.45 930.393 991.567C937.615 1029.8 937.615 1068.89 926.569 1105.85C915.524 1143.66 887.484 1176.8 850.949 1191.67ZM845.851 1179.77C879.837 1166.18 904.903 1137.29 916.373 1102.87C927.844 1068.04 929.118 1029.38 921.896 993.267C916.798 979.247 898.955 973.299 883.661 975.424L887.909 969.476C902.354 1023.85 899.38 1102.02 845.426 1134.74C837.779 1138.99 829.282 1141.96 820.785 1143.66C804.216 1147.06 787.223 1150.03 770.654 1152.16C703.105 1159.38 635.132 1153.85 568.007 1148.33C452.877 1142.38 364.086 1051.89 314.805 954.182C311.406 946.535 307.583 939.312 303.759 931.665L304.609 932.515C298.236 928.692 291.439 937.613 285.491 939.737C279.968 942.711 274.02 943.986 269.347 946.959C268.498 947.809 268.073 948.659 268.073 949.933V948.659C277.844 975.424 295.687 999.639 310.981 1023.43C349.641 1082.91 396.373 1142.81 465.197 1167.45C561.21 1205.68 747.288 1215.03 845.851 1179.77Z" fill="black"/>
<path d="M777.448 1043.4C768.526 1087.16 710.748 1113.5 613.461 1073.99C512.35 1033.2 468.592 935.913 457.546 907.025C517.448 794.868 475.814 717.123 475.814 717.123C613.886 705.227 734.539 866.665 734.539 866.665L753.232 946.534C754.932 953.332 758.33 959.279 763.428 963.528C772.35 979.247 782.971 1015.36 777.448 1043.4Z" fill="white"/>
<path d="M455.423 908.299C463.495 895.978 468.593 881.534 471.992 867.514C478.364 838.201 480.489 808.462 480.913 778.724V767.678C479.639 756.632 475.815 745.161 471.567 734.965C466.044 721.371 486.011 712.874 492.384 726.469C493.234 728.168 493.234 731.142 493.234 732.841C494.508 790.619 497.057 864.965 460.521 912.972C457.972 915.521 452.874 911.697 455.423 908.299Z" fill="black"/>
<path d="M739.212 865.816C745.585 869.639 747.709 874.737 748.559 879.835C751.108 890.031 750.258 901.077 752.807 911.698C754.931 921.894 761.304 931.665 763.003 942.286C765.128 953.332 771.5 976.698 774.049 988.169C774.899 990.718 773.199 993.692 770.226 994.116C768.526 994.541 767.252 994.116 765.977 993.267C760.454 988.594 757.905 983.92 754.507 977.973C748.984 967.777 745.16 958.43 741.762 946.96C738.788 936.763 740.062 925.718 737.513 915.097C735.389 904.901 729.441 895.129 727.317 884.509C726.043 879.41 725.618 873.888 729.441 867.515C731.99 864.966 736.239 864.116 739.212 865.816Z" fill="black"/>
<path d="M769.802 977.973C688.658 973.724 622.384 948.234 557.809 833.104C612.188 881.11 676.338 899.378 743.887 907.875L752.809 946.96C754.508 953.757 764.704 973.724 769.802 977.973Z" fill="black"/>
<path d="M766.405 962.253C780.85 989.442 789.347 1023.43 780.425 1053.59C773.628 1074.83 754.085 1090.55 732.843 1096.5C683.562 1109.67 626.634 1088.85 582.876 1065.49C528.922 1035.32 488.987 984.769 463.497 929.54C461.798 925.292 467.745 921.893 470.294 926.142C479.216 943.985 489.412 961.403 500.882 977.122C512.353 993.266 525.523 1008.14 540.392 1021.31C583.726 1060.39 642.353 1084.61 700.981 1084.61C761.307 1082.91 784.249 1051.04 770.229 992.416C768.105 983.07 764.706 973.299 760.033 965.227C757.484 961.828 763.856 958.005 766.405 962.253Z" fill="black"/>
<path d="M930.816 452.024C938.463 487.71 912.973 525.945 912.973 621.109C912.973 718.396 895.129 824.181 821.633 897.677C758.332 960.978 685.685 958.429 600.293 891.73C588.397 882.383 546.763 850.945 536.142 840.324C523.822 828.004 517.025 819.083 511.077 809.736C505.979 801.239 507.254 751.958 500.031 740.488C481.339 709.475 477.515 743.037 453.299 715.847C419.737 679.311 379.378 605.815 399.345 475.815C431.633 265.096 598.593 240.455 722.221 263.821C846.698 287.612 910.424 358.135 930.816 452.024Z" fill="white"/>
<path d="M474.541 753.659C464.77 737.515 452.449 723.07 440.979 708.201C429.508 692.482 420.162 675.913 412.515 658.07C369.181 553.136 375.554 415.913 452.449 327.547C505.129 267.221 588.397 247.253 664.868 251.502C741.338 256.175 820.783 275.717 877.286 330.946C909.998 362.809 930.815 405.293 940.162 449.476C943.136 463.495 941.011 478.789 937.613 491.959C927.842 528.92 918.495 564.181 917.645 602.417C918.07 659.345 916.371 717.547 899.802 772.351C887.907 808.887 873.887 845.423 851.796 877.286C828.855 909.574 794.443 935.489 754.933 943.136C675.489 959.279 601.142 909.149 548.462 854.77C546.338 852.221 549.312 849.247 551.861 850.946C582.024 873.887 613.038 895.129 646.6 909.574C743.462 954.181 823.757 912.972 866.24 819.508C901.926 751.534 912.123 678.038 909.149 601.992C909.149 582.874 909.998 563.757 912.547 544.639C915.096 517.025 924.443 489.41 924.018 462.221C916.796 418.038 896.404 375.554 865.815 342.842C793.168 265.946 653.822 243.43 556.109 278.266C440.979 319.051 409.966 435.031 403.593 545.913C399.345 612.188 418.887 677.188 469.018 722.645L488.985 743.462C495.783 752.809 481.338 763.855 474.541 753.659Z" fill="black"/>
<path d="M524.672 618.561C524.672 618.561 511.502 554.836 449.476 562.483C395.946 569.28 377.254 697.581 498.757 733.267" fill="white"/>
<path d="M493.234 677.613C483.463 672.091 476.666 662.744 476.241 651.274C476.666 642.777 477.94 633.006 475.816 624.509C474.541 616.437 466.045 614.313 459.672 614.738C452.875 616.012 448.626 624.509 447.352 631.306C447.352 631.731 446.927 633.006 446.927 633.43C446.502 635.555 443.103 635.555 442.254 633.43C436.731 616.862 449.051 598.594 466.894 600.718C491.96 602.417 495.358 628.757 490.685 648.725C488.136 657.221 491.535 664.868 496.208 672.091L497.058 673.365C499.182 675.914 495.783 679.313 493.234 677.613Z" fill="black"/>
<path d="M833.103 573.529C839.476 603.692 851.371 631.731 866.241 658.071C879.411 690.359 845.424 720.947 815.26 719.672C811.862 719.672 811.437 714.999 814.411 714.15C833.528 708.202 850.947 695.457 853.92 675.914C855.195 669.967 853.496 664.869 850.522 659.77C836.502 633.431 828.005 603.267 830.13 573.529C830.13 571.405 833.103 571.405 833.103 573.529Z" fill="black"/>
<path d="M522.549 618.984C512.777 593.919 491.536 570.128 463.072 570.553C460.523 570.128 456.274 570.978 453.725 570.978C446.503 571.402 440.555 573.951 435.032 579.049C407.843 606.239 412.516 654.246 434.608 684.409C442.255 695.03 452.026 704.376 463.072 712.023C474.117 719.67 486.438 725.618 499.608 730.716C502.581 731.566 501.307 736.239 498.333 735.814C469.869 729.866 442.679 715.847 423.987 692.481C395.098 657.644 389.15 599.442 423.562 565.455C431.209 558.657 441.83 553.559 452.451 553.559C455.849 553.559 460.947 552.71 464.346 553.559C482.189 554.409 499.183 563.33 510.228 577.35C520 589.246 525.523 603.69 527.222 618.134C527.222 620.683 523.398 621.533 522.549 618.984Z" fill="black"/>
<path d="M791.044 760.458C791.469 767.255 786.371 779.15 777.024 787.647C729.018 758.333 707.351 773.628 707.351 773.628C690.358 747.713 694.181 712.451 735.39 739.216C763.854 757.909 781.697 760.882 791.044 760.458Z" fill="black"/>
<path d="M776.599 788.072C766.403 796.994 751.109 802.516 730.292 794.02C720.521 790.196 712.873 782.549 706.926 774.052C707.351 774.052 728.592 758.758 776.599 788.072Z" fill="white"/>
<path d="M799.116 759.184C799.116 759.184 781.273 768.955 735.39 739.642C680.586 704.38 691.632 778.302 730.292 794.021C770.652 810.589 791.469 774.478 791.044 760.884" stroke="black" stroke-width="3" stroke-miterlimit="10" stroke-linecap="round" stroke-linejoin="round"/>
<path d="M707.354 774.052C707.354 774.052 729.02 758.758 777.027 788.072" stroke="black" stroke-width="3" stroke-miterlimit="10" stroke-linecap="round" stroke-linejoin="round"/>
<path d="M740.065 518.3C749.411 517.451 754.084 506.405 748.986 497.908C746.012 493.66 742.189 489.836 736.666 487.712C720.522 482.614 667.842 494.085 644.901 520.424C624.509 544.64 697.581 522.124 740.065 518.3Z" fill="black"/>
<path d="M852.223 525.096C845.001 522.972 842.877 512.351 848.824 505.554C851.798 502.155 856.047 499.181 860.72 498.332C875.164 495.783 908.301 508.953 917.648 534.018C926.145 555.685 886.635 533.593 852.223 525.096Z" fill="black"/>
<path d="M674.642 616.862C664.446 616.437 656.799 607.94 657.648 597.744L658.073 585.849C658.498 575.653 666.995 568.006 677.191 568.856C687.387 569.28 695.034 577.777 694.184 587.973L693.76 599.869C693.335 609.64 684.838 617.287 674.642 616.862Z" fill="black"/>
<path d="M853.496 623.234C844.149 622.809 836.927 614.737 837.352 605.391L837.777 594.345C838.201 584.999 846.273 577.777 855.62 578.201C864.966 578.626 872.188 586.698 871.764 596.045L871.339 607.09C870.914 616.437 862.842 623.659 853.496 623.234Z" fill="black"/>
<path d="M712.875 593.921C698.855 584.575 683.561 578.202 666.568 581.601C661.045 582.45 655.522 584.15 652.123 587.973C650.849 589.673 647.875 589.248 647.875 586.699C648.3 578.202 655.522 572.679 662.319 569.28C675.489 562.483 693.757 563.758 705.653 572.679C709.901 575.228 724.346 590.947 716.699 594.346C714.999 595.195 714.15 594.771 712.875 593.921Z" fill="black"/>
<path d="M834.377 596.046C834.377 578.203 856.469 571.83 870.063 578.203C877.71 581.602 883.233 588.399 885.357 596.471C886.207 599.02 882.384 601.144 880.684 599.02C873.462 590.523 861.142 586.275 851.37 591.373C848.397 593.072 847.972 594.347 847.122 596.046C847.122 604.543 834.802 604.118 834.377 596.046Z" fill="black"/>
<path d="M932 573.951C932.425 571.827 932.85 569.703 932.85 567.579C937.098 540.814 940.072 516.173 941.771 492.807C945.17 445.226 936.249 359.409 867.85 308.004C861.902 303.33 855.53 299.082 848.307 295.258C842.36 291.86 835.987 288.886 829.615 285.912C773.961 262.121 684.32 233.657 595.53 248.951C561.543 254.474 527.556 266.794 495.693 287.611C495.268 287.611 495.268 288.036 495.268 288.036C417.948 339.017 390.758 419.736 376.314 495.781C371.641 519.997 368.242 544.213 365.268 566.304C363.569 577.775 361.869 588.821 360.17 599.017C353.797 637.677 332.556 672.089 310.039 699.278C308.765 700.553 307.49 702.252 306.216 703.526C287.948 724.343 269.68 740.912 256.935 750.683C256.085 751.108 255.235 751.958 254.811 752.383C282.85 840.749 389.909 907.023 488.896 926.99C503.34 863.69 513.111 799.539 500.791 733.69C497.392 732.415 495.693 731.141 495.693 730.291C378.438 693.33 397.131 567.579 450.235 560.781C469.353 558.232 483.373 562.906 494.418 569.703C509.288 580.749 525.431 608.363 525.431 616.435C526.281 597.742 534.353 571.827 544.124 570.977C554.32 570.128 564.516 568.004 574.288 564.18C623.144 547.187 667.752 501.304 707.262 460.52C761.641 404.441 805.824 356.86 837.262 404.017C838.961 406.566 840.66 409.115 841.935 411.664C879.32 410.814 896.739 432.481 905.66 454.997C905.66 454.997 905.66 454.997 905.66 455.422C912.883 474.54 913.732 494.082 914.582 499.18C914.582 500.03 914.582 500.455 915.007 500.455C914.157 517.448 912.033 546.337 911.608 583.723C911.608 600.716 913.307 634.703 912.033 654.245C911.608 660.193 911.183 666.141 910.758 671.664C910.334 674.638 910.334 677.611 909.909 680.16C909.484 682.709 909.484 685.683 909.059 688.657C908.634 692.906 908.209 697.154 907.785 701.827C907.36 705.651 906.935 709.474 906.51 713.298V713.723C906.085 716.696 905.66 719.245 905.235 721.794C898.863 755.781 889.092 791.892 875.072 813.559C847.033 857.317 824.941 894.278 784.582 912.971C744.647 931.239 699.19 935.062 699.19 935.062C699.19 935.062 711.935 943.134 742.098 944.834C771.837 946.533 793.928 937.611 816.02 941.435C863.177 949.507 946.02 949.507 946.02 949.507C1008.05 786.37 903.111 778.722 932 573.951Z" fill="black"/>
<path d="M601.144 700.979C613.039 694.607 624.51 687.81 637.68 684.411C638.954 684.411 639.804 683.986 642.353 684.836C651.274 691.633 625.359 708.627 620.686 712.875C621.961 711.176 621.536 708.202 619.412 707.352C618.987 707.352 618.987 706.927 618.562 706.927C617.712 706.927 617.712 706.927 617.712 706.927C628.333 703.104 638.954 698.855 649.15 693.757C655.098 691.208 663.17 685.685 669.542 685.261C672.091 685.261 675.065 687.81 674.64 690.359C674.216 693.757 673.366 695.032 672.516 697.156C671.667 698.855 669.967 701.404 669.542 703.104C669.542 703.529 669.118 702.679 669.118 702.679C669.118 703.104 671.667 703.104 672.091 702.679C678.889 701.829 686.111 699.28 692.908 696.731C694.183 696.306 695.033 698.006 693.758 698.855C686.536 703.529 678.889 708.627 669.542 709.476C663.595 709.901 660.621 704.378 662.745 699.28C663.595 696.306 665.719 692.908 666.569 690.359C666.569 691.208 667.418 692.483 668.268 692.908C669.118 693.332 669.542 692.908 669.118 693.332C664.869 694.607 656.372 699.28 652.549 700.979C641.503 706.078 630.882 710.751 618.987 714.149C618.137 714.149 618.137 714.574 616.863 714.149C613.464 713.725 612.614 709.476 615.163 707.352C620.261 703.104 626.209 699.705 630.882 695.457C633.431 693.332 636.405 690.359 638.104 687.81C638.104 688.234 638.529 689.084 638.954 689.509C635.131 689.934 627.484 692.058 622.81 694.182C616.013 696.731 608.791 699.705 601.993 702.679C601.144 703.528 599.869 701.404 601.144 700.979Z" fill="black"/>
<path d="M876.437 700.98C880.261 696.731 896.405 676.339 900.653 686.96C900.653 687.81 900.653 688.66 900.653 689.084C898.954 697.581 893.431 704.803 889.183 712.026C890.032 709.901 888.333 706.928 886.209 706.503C885.359 706.503 884.934 706.503 884.509 706.503C884.084 706.503 884.509 706.503 884.934 706.078C893.431 700.555 899.803 693.758 908.3 687.81C910 686.96 912.124 685.686 914.248 686.96C916.372 688.66 915.947 691.209 915.098 692.908C914.248 695.032 913.398 696.731 912.549 698.856C912.124 699.281 911.699 699.705 910.849 699.281C910.424 699.281 910.424 698.856 910.424 698.431C910.424 697.581 910.424 692.058 910.424 691.209C910.424 690.784 910 690.359 910.424 691.209C910.424 691.633 911.274 692.483 912.124 692.483C912.549 692.483 913.398 692.483 913.398 692.483C906.176 700.98 897.679 709.052 887.908 714.575C884.934 715.849 881.535 713.3 881.96 709.901C881.96 709.477 882.385 708.627 882.81 708.202C885.784 703.954 889.183 699.705 891.732 695.457C893.006 693.333 894.705 690.359 895.13 688.235C895.13 689.084 896.83 690.359 897.254 689.934C890.457 692.483 884.509 698.006 878.562 702.254C876.862 703.529 875.588 701.83 876.437 700.98Z" fill="black"/>
</g>
</svg>
