<svg width="1296" height="1296" viewBox="0 0 1296 1296" fill="none" xmlns="http://www.w3.org/2000/svg">
<mask id="mask0_473_2135" style="mask-type:alpha" maskUnits="userSpaceOnUse" x="0" y="0" width="1296" height="1296">
<circle cx="647.869" cy="647.869" r="647.869" fill="#D9D9D9"/>
</mask>
<g mask="url(#mask0_473_2135)">
<path d="M1003.04 1182.75C1000.07 1184.87 996.668 1186.99 993.694 1189.12C990.295 1191.24 987.321 1193.37 983.923 1195.07C980.949 1196.77 978.4 1198.47 975.426 1200.16C975.001 1200.59 974.576 1200.59 974.151 1201.01C964.38 1206.96 954.184 1212.48 943.988 1217.58C941.014 1219.28 937.615 1220.98 934.641 1222.26C934.641 1222.26 934.217 1222.68 933.792 1222.68C930.393 1224.38 926.994 1226.08 923.596 1227.78C916.798 1231.18 909.576 1234.15 902.779 1237.13C899.38 1238.82 895.556 1240.1 892.158 1241.37C888.759 1242.65 884.936 1244.35 881.537 1245.62C878.138 1246.9 874.315 1248.6 870.916 1249.87C870.916 1249.87 870.916 1249.87 870.491 1249.87C867.092 1251.14 863.269 1252.42 859.87 1253.69C852.223 1256.24 844.151 1258.79 836.504 1261.34C833.955 1262.19 830.981 1263.04 828.432 1263.89C820.36 1266.44 812.289 1268.56 804.217 1270.26C801.243 1271.11 798.269 1271.54 794.87 1272.39C787.223 1274.09 779.151 1275.79 771.504 1277.48C769.805 1277.91 768.53 1277.91 766.831 1278.33C764.282 1278.76 761.308 1279.18 758.759 1279.61C754.936 1280.03 751.537 1280.88 747.713 1281.31C746.014 1281.73 744.315 1281.73 742.615 1282.16C740.491 1282.58 737.942 1283.01 735.393 1283.01C728.596 1283.86 721.374 1284.71 714.576 1285.56C712.452 1285.98 709.903 1285.98 707.779 1286.41H707.354C704.38 1286.83 701.406 1286.83 698.432 1287.26C695.458 1287.68 692.485 1287.68 689.511 1287.68C687.811 1287.68 685.687 1288.11 683.988 1288.11C680.589 1288.11 677.615 1288.53 674.642 1288.53C670.393 1288.53 666.57 1288.96 662.321 1288.96C658.073 1288.96 654.249 1288.96 650.001 1288.96C647.027 1288.96 644.053 1288.96 641.079 1288.96C461.798 1286.41 300.785 1210.36 185.655 1089.71C185.655 1089.71 185.655 1089.28 185.23 1089.28C172.485 1077.81 183.53 1016.64 234.936 977.975C299.511 929.119 454.151 898.531 454.151 898.531C454.151 898.531 514.053 888.759 736.243 935.066C866.243 962.256 965.23 1001.77 1020.46 1108.82C1031.93 1130.92 1043.4 1164.9 1003.04 1182.75Z" fill="white"/>
<path d="M737.517 930.393C819.086 946.961 906.177 964.805 973.301 1018.76C995.818 1037.03 1010.69 1063.79 1023.01 1089.71C1028.96 1102.45 1034.9 1115.62 1039.58 1129.64C1042.12 1138.99 1045.95 1149.61 1043.82 1160.65C1043.4 1163.63 1040.85 1167.45 1038.73 1169.58C1028.96 1179.35 1018.33 1185.29 1007.71 1192.94C945.262 1236.28 873.465 1266.86 799.118 1283.01C633.432 1319.12 454.151 1291.08 308.432 1203.99C260.001 1174.67 215.393 1138.99 177.158 1096.93C172.909 1091.83 172.909 1083.33 172.909 1077.81C173.334 1065.07 176.733 1052.75 180.981 1041.28C191.177 1014.94 204.347 988.595 226.863 970.327C243.007 959.282 260.426 949.935 278.269 942.288C334.347 918.497 393.399 901.929 454.151 895.131C459.249 894.706 460.099 901.929 455.001 902.778C396.798 914.674 339.02 932.517 285.066 956.733C265.524 966.504 244.707 975.001 228.988 990.295C214.118 1006.44 203.497 1026.41 195.001 1046.8C189.478 1059.12 185.654 1078.66 187.354 1088.43C214.118 1120.29 245.556 1148.33 279.543 1172.55C465.622 1302.55 748.138 1311.05 946.112 1202.71C963.955 1192.94 981.373 1181.9 997.942 1170.43C1006.01 1164.9 1014.51 1160.23 1020.88 1153.86C1021.31 1153.43 1020.88 1153.86 1020.88 1154.28C1020.88 1154.71 1020.46 1155.13 1020.46 1155.13C1020.88 1150.03 1019.18 1143.24 1017.06 1136.44C1009.41 1111.8 997.092 1085.88 983.922 1063.37C963.105 1029.8 927.844 1008.56 892.158 991.569C867.517 980.099 841.602 971.177 815.262 962.68C788.922 954.184 762.158 946.961 735.393 940.589C728.596 938.889 730.72 929.118 737.517 930.393Z" fill="black"/>
<path d="M1144.09 1446.14H38.6617C38.6617 1446.14 35.263 1178.5 130.002 1054.02C199.25 962.68 325.426 938.464 402.747 915.948C422.714 910.425 440.132 904.052 454.577 900.229C459.25 912.974 506.407 1037.88 619.413 1083.76C716.701 1123.27 774.479 1096.93 783.4 1053.17C788.923 1025.13 771.505 979.248 762.583 964.379C757.485 960.131 754.087 953.758 752.387 947.385L748.988 933.366C756.636 931.666 763.858 929.542 771.505 927.418C775.328 928.268 779.152 929.117 782.975 929.967C837.779 943.137 951.635 945.686 1046.8 1025.98C1157.26 1117.74 1144.09 1446.14 1144.09 1446.14Z" fill="black"/>
<path d="M881.539 1033.2C879.414 1003.04 845.428 999.216 845.428 999.216C845.428 999.216 874.741 997.092 876.016 973.301C876.865 959.706 864.12 946.536 843.303 938.464C848.826 935.49 853.075 931.667 850.101 926.144C843.303 913.824 818.238 911.699 812.715 909.575C791.048 901.503 744.316 855.196 597.748 839.477C559.937 835.654 481.343 833.53 450.33 852.647V852.222C446.506 852.222 439.709 857.745 432.062 865.817C423.565 866.242 400.199 868.791 379.807 881.536C363.663 891.307 361.114 906.601 368.761 917.222C358.99 921.471 348.794 928.268 341.571 938.889C320.754 970.752 367.911 981.798 390.003 973.301C390.003 973.301 354.316 992.418 367.062 1022.58C379.807 1052.75 420.591 1035.33 420.591 1035.33C420.591 1035.33 384.905 1074.41 415.068 1103.73C445.231 1133.04 480.493 1103.73 480.493 1103.73C480.493 1103.73 461.375 1148.33 493.238 1164.9C525.101 1181.47 549.741 1137.71 549.741 1137.71C549.741 1137.71 539.545 1183.17 570.558 1199.74C601.571 1216.31 623.238 1177.65 627.911 1163.2C627.911 1163.2 627.911 1211.63 671.669 1213.33C698.434 1214.61 707.356 1183.59 709.905 1159.38C720.526 1159.8 728.597 1159.38 732.846 1158.53C735.82 1157.68 740.068 1155.56 745.166 1153.01C749.839 1161.5 763.009 1180.62 784.251 1179.35C811.865 1178.07 818.663 1147.06 806.343 1120.72C806.343 1120.72 829.709 1136.44 853.924 1120.72C878.565 1105 856.473 1067.19 842.879 1062.09C844.153 1060.82 883.663 1062.94 881.539 1033.2Z" fill="white"/>
<path d="M880.687 1033.2C879.838 1014.51 862.419 1002.61 845.426 1000.07C844.151 1000.07 844.151 997.941 845.426 997.941C860.295 997.091 876.864 986.046 874.315 969.902C871.766 954.608 855.622 946.536 842.027 941.863C839.053 941.013 838.629 936.765 841.178 935.065C842.877 933.791 845.001 932.092 845.426 930.817C846.276 929.543 845.851 929.118 845.426 929.118C837.779 921.046 825.034 921.046 814.413 919.771C809.315 919.346 803.367 916.373 798.694 914.248C786.799 908.726 774.053 901.503 762.158 896.83C713.727 874.739 661.472 865.817 610.067 853.922C565.884 843.301 494.936 830.98 455.001 856.471L454.576 856.895C457.125 859.02 443.531 856.471 445.655 853.072C445.23 851.797 445.655 851.797 445.655 851.373V850.948C445.655 850.948 445.655 850.523 445.655 851.797L451.178 856.895C451.602 856.895 451.178 856.895 450.753 856.895C445.23 859.444 440.982 863.693 436.733 867.941C435.884 868.791 434.609 869.216 433.334 869.641C418.04 871.34 402.321 875.588 389.151 882.811C383.204 885.784 377.256 890.458 374.282 896.405C371.733 901.928 372.158 907.451 375.557 912.124C377.681 915.098 377.256 919.771 373.857 921.895C373.433 922.32 373.008 922.745 372.158 922.745C356.014 923.17 336.472 941.863 341.57 957.582C345.393 965.229 354.74 968.627 362.812 969.902C371.733 971.601 381.08 971.176 389.151 968.203C391.276 967.353 393.825 968.627 394.674 970.752C395.524 972.876 394.674 975 392.55 975.85C377.256 984.346 363.661 1002.61 373.008 1020.03C376.406 1028.1 383.629 1032.35 392.55 1032.78C401.047 1033.63 410.818 1031.08 418.89 1028.1C422.289 1026.83 426.112 1028.53 427.812 1031.93C428.661 1034.48 428.236 1037.03 426.537 1039.15C413.792 1054.87 404.021 1079.93 420.589 1095.65C435.459 1112.22 459.674 1108.4 475.393 1095.65C483.04 1089.28 494.086 1097.78 490.263 1106.7C486.864 1115.2 484.74 1126.67 486.014 1135.59C487.289 1153.43 506.831 1163.63 521.701 1152.58C529.348 1147.48 536.57 1138.99 541.243 1130.92C547.191 1120.29 563.759 1126.67 561.635 1138.14C561.21 1140.26 560.785 1143.24 560.785 1146.21C560.361 1153.86 560.785 1162.35 562.91 1169.58C567.583 1186.99 587.975 1198.04 601.57 1183.59C608.792 1177.22 615.165 1167.03 618.138 1158.1C622.387 1145.78 640.655 1148.76 640.655 1161.5C641.08 1170.85 643.629 1181.47 649.576 1189.12C656.374 1198.46 672.942 1204.41 683.563 1198.04C695.459 1188.69 698.433 1171.7 700.982 1156.41C703.106 1143.66 718.4 1149.18 727.321 1147.91C732.419 1147.48 730.72 1147.91 735.818 1145.78C737.942 1144.93 739.642 1144.08 741.766 1142.81C746.439 1140.26 751.962 1142.39 754.086 1146.63C758.334 1154.71 764.282 1161.93 771.08 1165.75C802.942 1181.05 813.563 1146.21 802.093 1121.14C799.968 1116.05 805.916 1111.37 810.165 1114.35C821.21 1121.57 836.504 1123.69 848.825 1117.75C874.315 1108.4 861.145 1072.29 843.302 1062.09C842.027 1061.67 841.602 1060.39 842.027 1059.12C842.452 1058.27 843.302 1057.84 844.151 1057.84C860.72 1059.97 882.387 1053.17 880.687 1033.2ZM882.812 1032.78C885.361 1054.44 862.419 1063.79 844.151 1062.94L845.001 1058.69C850.524 1060.82 853.923 1065.07 857.321 1068.89C867.093 1081.21 873.89 1099.48 864.968 1114.35C853.498 1130.49 829.707 1134.74 811.864 1127.52C809.315 1126.67 806.766 1125.39 804.217 1123.69L812.289 1116.9C819.936 1132.19 822.91 1151.73 814.413 1167.88C805.066 1186.14 780.001 1190.39 763.008 1181.47C751.962 1175.95 743.89 1166.18 737.942 1155.98L750.687 1159.8C746.014 1162.35 741.341 1164.9 735.818 1166.6C727.321 1168.3 719.25 1168.3 710.328 1167.88L720.949 1158.95C718.825 1178.92 714.576 1202.71 695.884 1216.31C675.491 1229.9 645.753 1221.83 631.308 1203.14C621.962 1190.82 617.714 1176.8 617.289 1161.93L639.805 1165.75C609.217 1248.17 523.4 1215.88 539.968 1134.31L559.936 1141.96C556.112 1147.91 552.714 1152.58 548.04 1157.68C538.694 1167.88 526.799 1176.37 511.929 1177.65C488.988 1179.77 467.321 1160.23 466.047 1137.71C464.772 1124.12 467.321 1111.8 472.419 1099.05L487.289 1110.1C483.89 1112.65 481.341 1114.35 477.942 1116.05C447.354 1133.89 408.269 1122.84 397.223 1087.58C392.125 1066.34 402.321 1045.52 415.916 1029.8L423.563 1040.42C394.674 1051.9 359.413 1044.25 359.413 1007.71C360.263 990.294 373.433 977.124 387.877 968.627L391.276 976.275C369.184 984.346 323.727 975 334.772 943.562C341.145 928.693 353.04 918.922 365.785 909.15L362.387 920.196C340.295 878.987 401.047 860.719 431.635 859.869L428.236 861.569C434.184 855.196 440.557 846.275 450.328 845.425C453.302 845.425 455.851 847.974 455.851 850.523C455.851 851.797 455.851 851.797 455.851 851.797C455.851 851.373 455.851 851.373 455.851 850.098C457.975 847.124 444.805 844.15 447.354 846.275L448.204 845.85C464.772 837.778 483.465 835.229 501.308 833.954C537.844 831.405 574.38 833.105 610.916 838.203C678.89 847.124 746.014 864.967 804.217 901.928C816.537 909.575 830.132 907.026 842.877 914.673C848.825 918.072 855.622 924.444 853.073 932.092C851.799 936.34 847.55 939.314 844.151 941.013L843.727 933.791C851.374 937.19 858.596 941.438 864.544 946.961C888.759 968.627 875.165 996.667 844.576 999.216V997.092C863.694 1000.07 881.962 1013.24 882.812 1032.78Z" fill="black"/>
<path d="M716.276 1142.39C716.276 1142.39 679.74 1240.52 706.929 1257.94C734.119 1275.36 726.897 1137.71 726.897 1137.71C726.897 1137.71 754.086 1254.97 788.923 1245.2C823.76 1235.43 739.642 1137.71 733.269 1136.01" fill="white"/>
<path d="M726.472 1146.21C713.727 1168.73 688.237 1231.6 706.93 1253.69C722.224 1267.29 722.649 1207.81 722.224 1200.16C721.799 1179.35 720.1 1158.1 715.851 1137.71L716.276 1134.31C717.976 1121.99 736.243 1122.42 737.093 1134.74C737.518 1157.26 757.06 1250.29 788.498 1241.8C798.694 1237.55 792.322 1223.53 788.923 1216.31C775.328 1189.97 754.936 1166.6 731.995 1147.91C730.296 1147.06 729.021 1145.36 727.322 1144.94C727.322 1144.94 727.322 1144.94 727.747 1145.36C728.172 1145.78 729.021 1146.21 729.871 1146.21C723.923 1144.51 720.949 1138.56 722.224 1132.61C723.923 1125.82 731.995 1122.42 737.943 1126.24C739.217 1126.67 740.067 1127.94 740.917 1128.79C748.564 1137.29 754.087 1146.63 760.459 1155.56C770.23 1171.7 818.662 1235.85 790.198 1246.9C757.06 1259.64 727.322 1163.63 715.851 1139.84L737.518 1136.86C735.394 1158.53 734.119 1179.35 731.995 1200.59C729.446 1219.28 729.446 1238.82 720.525 1256.24C716.276 1263.46 708.629 1263.89 702.681 1258.37C695.884 1252.42 694.185 1242.65 693.335 1234.58C691.636 1201.86 700.132 1170.85 705.655 1138.56C706.93 1132.61 712.453 1128.79 718.4 1129.64C726.472 1130.92 730.296 1139.84 726.472 1146.21Z" fill="black"/>
<path d="M274.022 954.607C274.022 954.607 302.061 1212.06 59.9038 1231.6C59.9038 1231.6 20.8189 1102.45 94.7404 1004.74C163.139 913.823 274.022 954.607 274.022 954.607Z" fill="white"/>
<path d="M275.721 953.333C276.571 954.608 276.146 956.307 276.57 957.581C277.845 972.876 278.27 988.595 277.42 1004.31C274.021 1088.86 237.486 1174.67 158.891 1214.61C128.303 1230.33 94.7404 1238.82 60.7535 1242.65C55.6555 1243.07 50.9823 1240.1 49.7078 1235.42C44.6097 1216.31 42.4855 1198.04 41.211 1178.92C32.2895 1067.19 92.6163 935.49 220.917 942.712C238.76 943.562 256.603 946.536 273.597 952.483C274.021 952.483 274.871 952.908 275.721 953.333ZM266.374 960.555C267.224 961.83 269.348 963.529 270.198 963.529C268.923 963.104 265.95 962.255 264.675 961.83C110.035 921.046 40.3614 1071.01 64.577 1203.14C65.8515 1211.63 67.9757 1220.56 70.0999 1228.63L58.6293 1220.98C205.623 1210.78 270.198 1099.48 264.675 961.405C264.675 960.555 264.25 957.157 264.25 956.307C264.675 957.582 265.1 959.706 266.374 960.555Z" fill="black"/>
<path d="M936.77 963.529C936.77 963.529 986.051 1000.91 1035.33 1093.53C1060.82 1141.54 1082.91 1197.61 1133.89 1222.25C1133.89 1222.25 1158.96 1102.88 1109.68 1031.08C1040.85 930.817 936.77 963.529 936.77 963.529Z" fill="white"/>
<path d="M941.016 963.954C941.441 963.104 941.016 960.98 940.166 960.555L940.591 960.98C961.833 978.399 980.101 999.216 997.094 1020.88C1014.09 1042.97 1028.96 1066.34 1042.55 1090.56C1068.04 1135.59 1090.13 1189.97 1138.99 1212.48L1123.7 1220.13C1134.74 1159.38 1137.29 1089.28 1103.73 1034.9C1068.89 980.098 1005.17 952.908 941.441 966.928L940.166 967.353H939.317H938.892C939.317 967.353 941.016 965.229 941.016 963.954ZM935.068 963.104C935.493 961.405 937.617 961.405 939.317 960.98C987.323 948.235 1040.85 958.431 1079.51 989.869C1143.66 1039.58 1154.71 1122.84 1147.49 1198.89C1146.64 1207.39 1145.79 1215.88 1144.09 1224.8C1142.81 1231.6 1134.74 1235 1128.79 1232.03C1115.62 1225.23 1103.3 1215.88 1093.53 1205.26C1064.22 1174.25 1048.07 1133.46 1029.81 1096.93C1005.59 1049.35 976.702 1003.04 937.193 966.503C936.343 965.653 935.068 964.379 935.068 963.104Z" fill="black"/>
<path d="M435.461 866.667C426.964 882.386 419.317 901.078 419.317 919.346C419.742 928.268 423.565 936.765 427.389 944.836C457.552 1003.46 509.382 1050.62 568.435 1078.66C602.422 1094.8 638.533 1107.12 675.494 1113.07C693.337 1115.62 712.03 1117.32 729.873 1115.62L726.474 1116.47C806.768 1076.54 844.154 1005.16 803.794 920.196C801.67 915.948 808.043 912.124 810.592 916.372C821.213 935.065 828.435 955.457 830.984 977.124C840.755 1047.65 794.448 1103.3 736.245 1136.01C735.396 1136.44 734.121 1136.86 732.846 1136.86C721.801 1137.71 712.454 1137.29 701.833 1136.44C652.552 1132.19 604.971 1115.62 561.213 1092.68C500.461 1061.24 447.781 1010.69 418.467 948.235C414.644 938.889 410.82 929.118 410.396 918.497C411.67 898.104 419.742 879.837 429.513 862.418C432.062 859.02 438.01 862.843 435.461 866.667Z" fill="black"/>
<path d="M720.524 1126.24C726.047 1064.22 728.171 1000.49 715.851 939.314C715.002 935.49 717.551 931.242 721.374 930.392C725.622 929.543 729.871 932.517 730.296 936.765C732.42 952.484 734.119 968.628 735.394 984.347C739.217 1030.23 740.917 1080.78 742.616 1127.09C742.191 1142.39 719.25 1141.54 720.524 1126.24Z" fill="black"/>
<path d="M729.021 1012.81C740.518 1012.81 749.838 1003.49 749.838 991.994C749.838 980.497 740.518 971.177 729.021 971.177C717.524 971.177 708.204 980.497 708.204 991.994C708.204 1003.49 717.524 1012.81 729.021 1012.81Z" fill="black"/>
<path d="M731.995 1076.96C743.492 1076.96 752.812 1067.64 752.812 1056.14C752.812 1044.65 743.492 1035.33 731.995 1035.33C720.498 1035.33 711.178 1044.65 711.178 1056.14C711.178 1067.64 720.498 1076.96 731.995 1076.96Z" fill="black"/>
<path d="M777.448 1043.4C768.526 1087.16 710.748 1113.5 613.461 1073.99C512.35 1033.2 468.592 935.914 457.546 907.026C517.448 794.869 475.814 717.124 475.814 717.124C613.886 705.228 734.539 866.666 734.539 866.666L753.232 946.535C754.932 953.333 758.33 959.28 763.428 963.529C772.35 979.248 782.971 1015.36 777.448 1043.4Z" fill="white"/>
<path d="M455.423 908.3C463.495 895.979 468.593 881.535 471.992 867.515C478.364 838.202 480.489 808.463 480.913 778.724V767.679C479.639 756.633 475.815 745.162 471.567 734.966C466.044 721.372 486.011 712.875 492.384 726.47C493.234 728.169 493.234 731.143 493.234 732.842C494.508 790.62 497.057 864.966 460.521 912.973C457.972 915.522 452.874 911.698 455.423 908.3Z" fill="black"/>
<path d="M739.212 865.817C745.585 869.64 747.709 874.738 748.559 879.836C751.108 890.032 750.258 901.078 752.807 911.699C754.931 921.895 761.304 931.666 763.003 942.287C765.128 953.333 771.5 976.699 774.049 988.17C774.899 990.719 773.199 993.693 770.226 994.117C768.526 994.542 767.252 994.117 765.977 993.268C760.454 988.595 757.905 983.921 754.507 977.974C748.984 967.778 745.16 958.431 741.762 946.96C738.788 936.764 740.062 925.719 737.513 915.098C735.389 904.902 729.441 895.13 727.317 884.51C726.043 879.411 725.618 873.889 729.441 867.516C731.99 864.967 736.239 864.117 739.212 865.817Z" fill="black"/>
<path d="M769.802 977.973C688.658 973.724 622.384 948.234 557.809 833.104C612.188 881.11 676.338 899.378 743.887 907.875L752.809 946.96C754.508 953.757 764.704 973.724 769.802 977.973Z" fill="black"/>
<path d="M766.405 962.255C780.85 989.444 789.347 1023.43 780.425 1053.59C773.628 1074.84 754.085 1090.56 732.843 1096.5C683.562 1109.67 626.634 1088.86 582.876 1065.49C528.922 1035.33 488.987 984.771 463.497 929.542C461.798 925.294 467.745 921.895 470.294 926.144C479.216 943.987 489.412 961.405 500.882 977.124C512.353 993.268 525.523 1008.14 540.392 1021.31C583.726 1060.39 642.353 1084.61 700.981 1084.61C761.307 1082.91 784.249 1051.05 770.229 992.418C768.105 983.072 764.706 973.301 760.033 965.229C757.484 961.83 763.856 958.006 766.405 962.255Z" fill="black"/>
<path d="M930.816 452.026C938.463 487.712 912.973 525.947 912.973 621.111C912.973 718.398 895.129 824.183 821.633 897.679C758.332 960.98 685.685 958.431 600.293 891.731C588.397 882.385 546.763 850.947 536.142 840.326C523.822 828.006 517.025 819.084 511.077 809.738C505.979 801.241 507.254 751.96 500.031 740.49C481.339 709.477 477.515 743.039 453.299 715.849C419.737 679.313 379.378 605.817 399.345 475.817C431.633 265.098 598.593 240.457 722.221 263.823C846.698 287.614 910.424 358.137 930.816 452.026Z" fill="white"/>
<path d="M474.541 753.659C464.77 737.516 452.449 723.071 440.979 708.202C429.508 692.483 420.162 675.914 412.515 658.071C369.181 553.137 375.554 415.914 452.449 327.548C505.129 267.222 588.397 247.254 664.868 251.503C741.338 256.176 820.783 275.718 877.286 330.947C909.998 362.81 930.815 405.294 940.162 449.477C943.136 463.496 941.011 478.79 937.613 491.96C927.842 528.921 918.495 564.182 917.645 602.418C918.07 659.346 916.371 717.548 899.802 772.352C887.907 808.888 873.887 845.424 851.796 877.287C828.855 909.575 794.443 935.49 754.933 943.137C675.489 959.28 601.142 909.15 548.462 854.771C546.338 852.222 549.312 849.248 551.861 850.947C582.024 873.888 613.038 895.13 646.6 909.575C743.462 954.182 823.757 912.973 866.24 819.509C901.926 751.535 912.123 678.039 909.149 601.993C909.149 582.875 909.998 563.758 912.547 544.64C915.096 517.026 924.443 489.411 924.018 462.222C916.796 418.039 896.404 375.555 865.815 342.843C793.168 265.947 653.822 243.431 556.109 278.267C440.979 319.052 409.966 435.032 403.593 545.914C399.345 612.189 418.887 677.189 469.018 722.646L488.985 743.463C495.783 752.81 481.338 763.856 474.541 753.659Z" fill="black"/>
<path d="M524.672 618.561C524.672 618.561 511.502 554.836 449.476 562.483C395.946 569.28 377.254 697.581 498.757 733.267" fill="white"/>
<path d="M493.234 677.613C483.463 672.091 476.666 662.744 476.241 651.274C476.666 642.777 477.94 633.006 475.816 624.509C474.541 616.437 466.045 614.313 459.672 614.738C452.875 616.012 448.626 624.509 447.352 631.306C447.352 631.731 446.927 633.006 446.927 633.43C446.502 635.555 443.103 635.555 442.254 633.43C436.731 616.862 449.051 598.594 466.894 600.718C491.96 602.417 495.358 628.757 490.685 648.725C488.136 657.221 491.535 664.868 496.208 672.091L497.058 673.365C499.182 675.914 495.783 679.313 493.234 677.613Z" fill="black"/>
<path d="M833.103 573.529C839.476 603.692 851.371 631.731 866.241 658.071C879.411 690.359 845.424 720.947 815.26 719.672C811.862 719.672 811.437 714.999 814.411 714.15C833.528 708.202 850.947 695.457 853.92 675.914C855.195 669.967 853.496 664.869 850.522 659.77C836.502 633.431 828.005 603.267 830.13 573.529C830.13 571.405 833.103 571.405 833.103 573.529Z" fill="black"/>
<path d="M522.549 618.986C512.777 593.921 491.536 570.13 463.072 570.555C460.523 570.13 456.274 570.979 453.725 570.979C446.503 571.404 440.555 573.953 435.032 579.051C407.843 606.241 412.516 654.248 434.608 684.411C442.255 695.032 452.026 704.378 463.072 712.025C474.117 719.672 486.438 725.62 499.608 730.718C502.581 731.568 501.307 736.241 498.333 735.816C469.869 729.868 442.679 715.849 423.987 692.483C395.098 657.646 389.15 599.444 423.562 565.457C431.209 558.659 441.83 553.561 452.451 553.561C455.849 553.561 460.947 552.712 464.346 553.561C482.189 554.411 499.183 563.332 510.228 577.352C520 589.247 525.523 603.692 527.222 618.136C527.222 620.685 523.398 621.535 522.549 618.986Z" fill="black"/>
<path d="M791.044 760.458C791.469 767.255 786.371 779.15 777.024 787.647C729.018 758.333 707.351 773.628 707.351 773.628C690.358 747.713 694.181 712.451 735.39 739.216C763.854 757.909 781.697 760.882 791.044 760.458Z" fill="black"/>
<path d="M776.599 788.072C766.403 796.994 751.109 802.516 730.292 794.02C720.521 790.196 712.873 782.549 706.926 774.052C707.351 774.052 728.592 758.758 776.599 788.072Z" fill="white"/>
<path d="M799.116 759.183C799.116 759.183 781.273 768.954 735.39 739.641C680.586 704.379 691.632 778.301 730.292 794.02C770.652 810.588 791.469 774.477 791.044 760.883" stroke="black" stroke-width="3" stroke-miterlimit="10" stroke-linecap="round" stroke-linejoin="round"/>
<path d="M707.354 774.052C707.354 774.052 729.02 758.758 777.027 788.072" stroke="black" stroke-width="3" stroke-miterlimit="10" stroke-linecap="round" stroke-linejoin="round"/>
<path d="M694.607 586.7C694.607 587.125 694.607 587.549 694.607 587.549L694.182 599.445C693.758 609.641 685.261 617.288 675.065 616.863C664.869 616.438 657.222 607.517 658.071 597.746L658.496 585.85C658.496 583.726 659.346 581.177 660.196 579.478L694.182 581.177C694.182 582.876 694.607 584.576 694.607 586.7Z" fill="black"/>
<path d="M872.187 596.046L871.763 607.091C871.338 616.438 863.266 623.66 853.919 623.235C844.573 622.81 837.351 614.738 837.776 605.392L838.2 594.346C838.2 592.222 838.625 590.098 839.475 588.398L871.338 589.673C871.763 591.797 872.187 593.921 872.187 596.046Z" fill="black"/>
<path d="M737.09 528.497C746.436 529.771 753.658 520 750.26 510.654C748.56 505.556 745.586 500.883 740.913 497.909C726.469 488.987 672.514 488.137 644.05 508.53C618.56 527.222 694.606 522.549 737.09 528.497Z" fill="black"/>
<path d="M854.769 533.17C847.122 533.17 842.449 523.399 846.273 515.327C848.397 511.079 851.371 507.255 855.619 505.131C868.789 498.758 904.05 502.582 919.769 524.249C933.789 543.366 890.031 532.745 854.769 533.17Z" fill="black"/>
<path d="M721.793 586.699L651.695 585.424C643.199 585 643.623 572.254 652.12 572.679L722.218 577.777C728.166 578.202 727.741 586.699 721.793 586.699Z" fill="black"/>
<path d="M890.032 593.922L838.202 594.771C829.706 594.771 829.281 582.451 837.777 582.026C838.202 582.026 838.202 582.026 838.627 582.026L890.457 587.549C894.281 587.974 893.856 593.497 890.032 593.922Z" fill="black"/>
<path d="M884.933 169.509C799.966 182.255 752.809 226.862 729.018 224.738C538.691 206.045 450.325 276.143 425.26 298.66C389.998 329.673 361.534 454.575 363.659 524.673C366.208 622.385 444.377 728.594 448.201 733.268C474.116 764.281 480.489 805.065 486.861 782.549C488.985 775.326 483.038 737.091 485.162 728.594C378.953 687.81 398.07 569.281 449.9 562.483C504.279 555.686 521.273 604.117 524.247 616.013C524.247 616.013 525.946 651.274 532.319 661.47C538.691 671.666 580.75 688.66 580.75 688.66C580.75 688.66 576.927 617.287 576.077 610.065C575.227 602.843 538.691 589.248 532.319 511.503C529.77 453.725 542.09 347.941 698.855 419.738C735.815 436.732 818.234 457.549 898.528 447.353C898.528 447.353 993.266 451.601 1037.45 367.058C1081.63 282.941 1004.31 151.242 884.933 169.509Z" fill="black"/>
<path d="M582.024 698.431C582.024 698.431 542.515 675.065 539.116 678.039C535.717 680.588 585.423 709.052 582.024 698.431Z" fill="black"/>
<path d="M582.025 704.804C582.025 704.804 556.11 693.334 552.287 695.458C548.038 697.582 586.699 716.7 582.025 704.804Z" fill="black"/>
<path d="M863.268 774.053C832.255 779.151 816.536 761.308 810.589 752.811C799.968 774.053 774.478 792.321 723.497 783.399C657.223 771.928 656.373 712.027 656.373 712.027C677.19 734.118 703.955 717.549 740.916 703.955C784.674 688.236 804.641 703.105 811.438 711.602C812.288 710.752 821.634 721.373 840.752 701.406C845 697.157 852.648 704.804 859.02 710.327C880.262 729.87 890.458 732.419 898.105 720.948C898.105 721.373 899.804 768.105 863.268 774.053Z" fill="black"/>
</g>
</svg>
