<svg width="193" height="39" viewBox="0 0 193 39" fill="none" xmlns="http://www.w3.org/2000/svg">
<path d="M65.6005 7.72727V31H61.3505L51.2255 16.3523H51.0551V31H46.1346V7.72727H50.4528L60.4982 22.3636H60.7028V7.72727H65.6005ZM78.1013 31.3409C76.3362 31.3409 74.8096 30.9659 73.5218 30.2159C72.2415 29.4583 71.2528 28.4053 70.5559 27.0568C69.8589 25.7008 69.5104 24.1288 69.5104 22.3409C69.5104 20.5379 69.8589 18.9621 70.5559 17.6136C71.2528 16.2576 72.2415 15.2045 73.5218 14.4545C74.8096 13.697 76.3362 13.3182 78.1013 13.3182C79.8665 13.3182 81.3892 13.697 82.6695 14.4545C83.9574 15.2045 84.9498 16.2576 85.6468 17.6136C86.3437 18.9621 86.6922 20.5379 86.6922 22.3409C86.6922 24.1288 86.3437 25.7008 85.6468 27.0568C84.9498 28.4053 83.9574 29.4583 82.6695 30.2159C81.3892 30.9659 79.8665 31.3409 78.1013 31.3409ZM78.124 27.5909C78.9271 27.5909 79.5975 27.3636 80.1354 26.9091C80.6733 26.447 81.0786 25.8182 81.3513 25.0227C81.6316 24.2273 81.7718 23.322 81.7718 22.3068C81.7718 21.2917 81.6316 20.3864 81.3513 19.5909C81.0786 18.7955 80.6733 18.1667 80.1354 17.7045C79.5975 17.2424 78.9271 17.0114 78.124 17.0114C77.3134 17.0114 76.6316 17.2424 76.0786 17.7045C75.5331 18.1667 75.1202 18.7955 74.8399 19.5909C74.5672 20.3864 74.4309 21.2917 74.4309 22.3068C74.4309 23.322 74.5672 24.2273 74.8399 25.0227C75.1202 25.8182 75.5331 26.447 76.0786 26.9091C76.6316 27.3636 77.3134 27.5909 78.124 27.5909ZM99.764 13.5455V17.1818H89.2527V13.5455H99.764ZM91.639 9.36364H96.4799V25.6364C96.4799 26.0833 96.5481 26.4318 96.6845 26.6818C96.8209 26.9242 97.0102 27.0947 97.2527 27.1932C97.5027 27.2917 97.7906 27.3409 98.1163 27.3409C98.3436 27.3409 98.5709 27.322 98.7981 27.2841C99.0254 27.2386 99.1996 27.2045 99.3209 27.1818L100.082 30.7841C99.8398 30.8598 99.4989 30.947 99.0595 31.0455C98.6201 31.1515 98.086 31.2159 97.4572 31.2386C96.2906 31.2841 95.2678 31.1288 94.389 30.7727C93.5178 30.4167 92.8398 29.8636 92.3549 29.1136C91.8701 28.3636 91.6315 27.4167 91.639 26.2727V9.36364ZM103.557 31V13.5455H108.398V31H103.557ZM105.989 11.2955C105.27 11.2955 104.652 11.0568 104.137 10.5795C103.629 10.0947 103.376 9.51515 103.376 8.84091C103.376 8.17424 103.629 7.60227 104.137 7.125C104.652 6.64015 105.27 6.39773 105.989 6.39773C106.709 6.39773 107.323 6.64015 107.83 7.125C108.345 7.60227 108.603 8.17424 108.603 8.84091C108.603 9.51515 108.345 10.0947 107.83 10.5795C107.323 11.0568 106.709 11.2955 105.989 11.2955ZM120.803 31.3409C119.037 31.3409 117.511 30.9659 116.223 30.2159C114.943 29.4583 113.954 28.4053 113.257 27.0568C112.56 25.7008 112.212 24.1288 112.212 22.3409C112.212 20.5379 112.56 18.9621 113.257 17.6136C113.954 16.2576 114.943 15.2045 116.223 14.4545C117.511 13.697 119.037 13.3182 120.803 13.3182C122.568 13.3182 124.09 13.697 125.371 14.4545C126.659 15.2045 127.651 16.2576 128.348 17.6136C129.045 18.9621 129.393 20.5379 129.393 22.3409C129.393 24.1288 129.045 25.7008 128.348 27.0568C127.651 28.4053 126.659 29.4583 125.371 30.2159C124.09 30.9659 122.568 31.3409 120.803 31.3409ZM120.825 27.5909C121.628 27.5909 122.299 27.3636 122.837 26.9091C123.375 26.447 123.78 25.8182 124.053 25.0227C124.333 24.2273 124.473 23.322 124.473 22.3068C124.473 21.2917 124.333 20.3864 124.053 19.5909C123.78 18.7955 123.375 18.1667 122.837 17.7045C122.299 17.2424 121.628 17.0114 120.825 17.0114C120.015 17.0114 119.333 17.2424 118.78 17.7045C118.234 18.1667 117.821 18.7955 117.541 19.5909C117.268 20.3864 117.132 21.2917 117.132 22.3068C117.132 23.322 117.268 24.2273 117.541 25.0227C117.821 25.8182 118.234 26.447 118.78 26.9091C119.333 27.3636 120.015 27.5909 120.825 27.5909ZM138.022 20.9091V31H133.181V13.5455H137.795V16.625H137.999C138.386 15.6098 139.033 14.8068 139.943 14.2159C140.852 13.6174 141.954 13.3182 143.249 13.3182C144.461 13.3182 145.518 13.5833 146.42 14.1136C147.321 14.6439 148.022 15.4015 148.522 16.3864C149.022 17.3636 149.272 18.5303 149.272 19.8864V31H144.431V20.75C144.439 19.6818 144.166 18.8485 143.613 18.25C143.06 17.6439 142.299 17.3409 141.329 17.3409C140.677 17.3409 140.102 17.4811 139.602 17.7614C139.109 18.0417 138.723 18.4508 138.443 18.9886C138.17 19.5189 138.03 20.1591 138.022 20.9091ZM153.727 31V13.5455H158.568V31H153.727ZM156.159 11.2955C155.44 11.2955 154.822 11.0568 154.307 10.5795C153.799 10.0947 153.546 9.51515 153.546 8.84091C153.546 8.17424 153.799 7.60227 154.307 7.125C154.822 6.64015 155.44 6.39773 156.159 6.39773C156.879 6.39773 157.493 6.64015 158 7.125C158.515 7.60227 158.773 8.17424 158.773 8.84091C158.773 9.51515 158.515 10.0947 158 10.5795C157.493 11.0568 156.879 11.2955 156.159 11.2955ZM172.473 13.5455V17.1818H161.7V13.5455H172.473ZM164.166 31V12.2841C164.166 11.0189 164.412 9.9697 164.904 9.13636C165.404 8.30303 166.086 7.67803 166.95 7.26136C167.813 6.8447 168.795 6.63636 169.893 6.63636C170.635 6.63636 171.313 6.69318 171.927 6.80682C172.548 6.92045 173.01 7.02273 173.313 7.11364L172.45 10.75C172.26 10.6894 172.026 10.6326 171.745 10.5795C171.473 10.5265 171.192 10.5 170.904 10.5C170.192 10.5 169.696 10.6667 169.416 11C169.135 11.3258 168.995 11.7841 168.995 12.375V31H164.166ZM179.059 37.5455C178.445 37.5455 177.869 37.4962 177.331 37.3977C176.801 37.3068 176.362 37.1894 176.013 37.0455L177.104 33.4318C177.672 33.6061 178.184 33.7008 178.638 33.7159C179.1 33.7311 179.498 33.625 179.831 33.3977C180.172 33.1705 180.449 32.7841 180.661 32.2386L180.945 31.5L174.684 13.5455H179.774L183.388 26.3636H183.57L187.218 13.5455H192.343L185.559 32.8864C185.233 33.8258 184.79 34.6439 184.229 35.3409C183.676 36.0455 182.975 36.5871 182.127 36.9659C181.278 37.3523 180.256 37.5455 179.059 37.5455Z" fill="white"/>
<path fill-rule="evenodd" clip-rule="evenodd" d="M5.44 3C2.43557 3 0 5.43557 0 8.44V31.56C0 34.5644 2.43557 37 5.44 37H28.56C31.5644 37 34 34.5644 34 31.56V8.44C34 5.43557 31.5644 3 28.56 3H5.44ZM23.6117 27.48V11.6545H20.2812V21.6073H20.1421L13.3112 11.6545H10.3748V27.48H13.7207V17.5195H13.8366L20.7216 27.48H23.6117Z" fill="white"/>
</svg>
