<svg width="196" height="39" viewBox="0 0 196 39" fill="none" xmlns="http://www.w3.org/2000/svg">
<path d="M62.6943 7.72727V31H58.4443L48.3193 16.3523H48.1488V31H43.2284V7.72727H47.5465L57.592 22.3636H57.7965V7.72727H62.6943ZM75.1951 31.3409C73.4299 31.3409 71.9034 30.9659 70.6155 30.2159C69.3352 29.4583 68.3466 28.4053 67.6496 27.0568C66.9526 25.7008 66.6041 24.1288 66.6041 22.3409C66.6041 20.5379 66.9526 18.9621 67.6496 17.6136C68.3466 16.2576 69.3352 15.2045 70.6155 14.4545C71.9034 13.697 73.4299 13.3182 75.1951 13.3182C76.9602 13.3182 78.4829 13.697 79.7632 14.4545C81.0511 15.2045 82.0435 16.2576 82.7405 17.6136C83.4375 18.9621 83.786 20.5379 83.786 22.3409C83.786 24.1288 83.4375 25.7008 82.7405 27.0568C82.0435 28.4053 81.0511 29.4583 79.7632 30.2159C78.4829 30.9659 76.9602 31.3409 75.1951 31.3409ZM75.2178 27.5909C76.0208 27.5909 76.6913 27.3636 77.2291 26.9091C77.767 26.447 78.1723 25.8182 78.4451 25.0227C78.7254 24.2273 78.8655 23.322 78.8655 22.3068C78.8655 21.2917 78.7254 20.3864 78.4451 19.5909C78.1723 18.7955 77.767 18.1667 77.2291 17.7045C76.6913 17.2424 76.0208 17.0114 75.2178 17.0114C74.4072 17.0114 73.7254 17.2424 73.1723 17.7045C72.6269 18.1667 72.214 18.7955 71.9337 19.5909C71.661 20.3864 71.5246 21.2917 71.5246 22.3068C71.5246 23.322 71.661 24.2273 71.9337 25.0227C72.214 25.8182 72.6269 26.447 73.1723 26.9091C73.7254 27.3636 74.4072 27.5909 75.2178 27.5909ZM96.8578 13.5455V17.1818H86.3464V13.5455H96.8578ZM88.7328 9.36364H93.5737V25.6364C93.5737 26.0833 93.6419 26.4318 93.7782 26.6818C93.9146 26.9242 94.104 27.0947 94.3464 27.1932C94.5964 27.2917 94.8843 27.3409 95.2101 27.3409C95.4373 27.3409 95.6646 27.322 95.8919 27.2841C96.1191 27.2386 96.2934 27.2045 96.4146 27.1818L97.176 30.7841C96.9335 30.8598 96.5926 30.947 96.1532 31.0455C95.7138 31.1515 95.1798 31.2159 94.551 31.2386C93.3843 31.2841 92.3616 31.1288 91.4828 30.7727C90.6116 30.4167 89.9335 29.8636 89.4487 29.1136C88.9638 28.3636 88.7252 27.4167 88.7328 26.2727V9.36364ZM100.651 31V13.5455H105.492V31H100.651ZM103.083 11.2955C102.363 11.2955 101.746 11.0568 101.231 10.5795C100.723 10.0947 100.469 9.51515 100.469 8.84091C100.469 8.17424 100.723 7.60227 101.231 7.125C101.746 6.64015 102.363 6.39773 103.083 6.39773C103.803 6.39773 104.416 6.64015 104.924 7.125C105.439 7.60227 105.697 8.17424 105.697 8.84091C105.697 9.51515 105.439 10.0947 104.924 10.5795C104.416 11.0568 103.803 11.2955 103.083 11.2955ZM117.896 31.3409C116.131 31.3409 114.605 30.9659 113.317 30.2159C112.036 29.4583 111.048 28.4053 110.351 27.0568C109.654 25.7008 109.305 24.1288 109.305 22.3409C109.305 20.5379 109.654 18.9621 110.351 17.6136C111.048 16.2576 112.036 15.2045 113.317 14.4545C114.605 13.697 116.131 13.3182 117.896 13.3182C119.661 13.3182 121.184 13.697 122.464 14.4545C123.752 15.2045 124.745 16.2576 125.442 17.6136C126.139 18.9621 126.487 20.5379 126.487 22.3409C126.487 24.1288 126.139 25.7008 125.442 27.0568C124.745 28.4053 123.752 29.4583 122.464 30.2159C121.184 30.9659 119.661 31.3409 117.896 31.3409ZM117.919 27.5909C118.722 27.5909 119.393 27.3636 119.93 26.9091C120.468 26.447 120.874 25.8182 121.146 25.0227C121.427 24.2273 121.567 23.322 121.567 22.3068C121.567 21.2917 121.427 20.3864 121.146 19.5909C120.874 18.7955 120.468 18.1667 119.93 17.7045C119.393 17.2424 118.722 17.0114 117.919 17.0114C117.108 17.0114 116.427 17.2424 115.874 17.7045C115.328 18.1667 114.915 18.7955 114.635 19.5909C114.362 20.3864 114.226 21.2917 114.226 22.3068C114.226 23.322 114.362 24.2273 114.635 25.0227C114.915 25.8182 115.328 26.447 115.874 26.9091C116.427 27.3636 117.108 27.5909 117.919 27.5909ZM135.116 20.9091V31H130.275V13.5455H134.889V16.625H135.093C135.479 15.6098 136.127 14.8068 137.036 14.2159C137.945 13.6174 139.048 13.3182 140.343 13.3182C141.555 13.3182 142.612 13.5833 143.514 14.1136C144.415 14.6439 145.116 15.4015 145.616 16.3864C146.116 17.3636 146.366 18.5303 146.366 19.8864V31H141.525V20.75C141.533 19.6818 141.26 18.8485 140.707 18.25C140.154 17.6439 139.392 17.3409 138.423 17.3409C137.771 17.3409 137.195 17.4811 136.695 17.7614C136.203 18.0417 135.817 18.4508 135.536 18.9886C135.264 19.5189 135.123 20.1591 135.116 20.9091ZM150.821 31V13.5455H155.662V31H150.821ZM153.253 11.2955C152.533 11.2955 151.916 11.0568 151.401 10.5795C150.893 10.0947 150.639 9.51515 150.639 8.84091C150.639 8.17424 150.893 7.60227 151.401 7.125C151.916 6.64015 152.533 6.39773 153.253 6.39773C153.973 6.39773 154.586 6.64015 155.094 7.125C155.609 7.60227 155.867 8.17424 155.867 8.84091C155.867 9.51515 155.609 10.0947 155.094 10.5795C154.586 11.0568 153.973 11.2955 153.253 11.2955ZM160.089 31V28.1136L168.634 17.5341V17.4091H160.384V13.5455H174.464V16.6932L166.441 27.0114V27.1364H174.759V31H160.089ZM186.556 31.3409C184.76 31.3409 183.215 30.9773 181.919 30.25C180.631 29.5152 179.639 28.4773 178.942 27.1364C178.245 25.7879 177.897 24.1932 177.897 22.3523C177.897 20.5568 178.245 18.9811 178.942 17.625C179.639 16.2689 180.62 15.2121 181.885 14.4545C183.158 13.697 184.65 13.3182 186.363 13.3182C187.514 13.3182 188.586 13.5038 189.578 13.875C190.578 14.2386 191.45 14.7879 192.192 15.5227C192.942 16.2576 193.525 17.1818 193.942 18.2955C194.359 19.4015 194.567 20.697 194.567 22.1818V23.5114H179.828V20.5114H190.01C190.01 19.8144 189.859 19.197 189.556 18.6591C189.253 18.1212 188.832 17.7008 188.294 17.3977C187.764 17.0871 187.147 16.9318 186.442 16.9318C185.707 16.9318 185.056 17.1023 184.488 17.4432C183.927 17.7765 183.488 18.2273 183.169 18.7955C182.851 19.3561 182.688 19.9811 182.681 20.6705V23.5227C182.681 24.3864 182.84 25.1326 183.158 25.7614C183.484 26.3902 183.942 26.875 184.533 27.2159C185.124 27.5568 185.825 27.7273 186.635 27.7273C187.173 27.7273 187.666 27.6515 188.113 27.5C188.56 27.3485 188.942 27.1212 189.26 26.8182C189.578 26.5152 189.821 26.1439 189.988 25.7045L194.465 26C194.238 27.0758 193.772 28.0152 193.067 28.8182C192.37 29.6136 191.469 30.2348 190.363 30.6818C189.264 31.1212 187.995 31.3409 186.556 31.3409Z" fill="#F4F4F4"/>
<path d="M0 8.44C0 5.43557 2.43557 3 5.44 3H28.56C31.5644 3 34 5.43557 34 8.44V31.56C34 34.5644 31.5644 37 28.56 37H5.44C2.43557 37 0 34.5644 0 31.56V8.44Z" fill="#F4F4F4"/>
<path d="M23.6117 11.6545V27.48H20.7216L13.8366 17.5195H13.7207V27.48H10.3748V11.6545H13.3112L20.1421 21.6073H20.2812V11.6545H23.6117Z" fill="#262626"/>
</svg>
