<svg id="cld-main-logo" style=";margin-bottom:-10px" xmlns="http://www.w3.org/2000/svg" viewBox="0 0 500 96.8"><defs><style>.cls-1{fill:currentColor}</style></defs><g id="Layer_2" data-name="Layer 2"><g id="Layer_1-2" data-name="Layer 1"><path class="cls-1" d="M161 30a17 17 0 0 1 13 7 1 1 0 0 0 1 0l6-4a1 1 0 0 0 0-1 26 26 0 0 0-21-10c-15 0-27 12-27 28s12 29 27 29a26 26 0 0 0 21-10 1 1 0 0 0 0-1l-6-5a1 1 0 0 0-1 0 17 17 0 0 1-13 7c-11 0-19-9-19-20s8-20 19-20ZM188 20h7a1 1 0 0 1 1 1v56a1 1 0 0 1-1 1h-7a1 1 0 0 1 0-1V21a1 1 0 0 1 0-1ZM221 40c-10 0-20 6-20 19 0 11 9 20 20 20s19-9 19-20-9-19-19-19Zm10 19c0 7-4 12-10 12s-11-5-11-12 5-11 11-11 10 5 10 11ZM278 40h-7a1 1 0 0 0-1 1v19c0 7-5 10-9 10s-8-3-8-9V41a1 1 0 0 0-1-1h-7a1 1 0 0 0 0 1v21c0 11 5 17 14 17 3 0 9-2 11-6v4a1 1 0 0 0 1 1h7a1 1 0 0 0 1-1V41a1 1 0 0 0-1-1ZM322 20h-7a1 1 0 0 0-1 1v25-1c-2-3-7-5-12-5-9 0-18 6-18 19 0 11 8 20 18 20 4 0 9-2 12-6v-1 5a1 1 0 0 0 1 1h7a1 1 0 0 0 1-1V21a1 1 0 0 0-1-1Zm-8 39a11 11 0 0 1-10 11c-6 0-11-5-11-11s5-11 11-11a11 11 0 0 1 10 11ZM333 40h7a1 1 0 0 1 1 1v36a1 1 0 0 1-1 1h-7a1 1 0 0 1-1-1V41a1 1 0 0 1 1-1ZM337 21a6 6 0 0 0-6 6 6 6 0 0 0 6 5 6 6 0 0 0 5-5 5 5 0 0 0-5-6ZM370 40c-3 0-8 1-10 6h-1v-5a1 1 0 0 0-1-1h-7a1 1 0 0 0-1 1v36a1 1 0 0 0 1 1h7a1 1 0 0 0 1-1V58c0-7 5-10 9-10s8 3 8 10v19a1 1 0 0 0 1 1h7a1 1 0 0 0 1-1V57c0-11-5-17-15-17ZM427 40h-7a1 1 0 0 0 0 1v5l-1-1c-2-3-7-5-12-5-9 0-17 6-17 19 0 11 7 20 17 20 4 0 9-2 12-6l1-1v5a1 1 0 0 0 0 1h7a1 1 0 0 0 1-1V41a1 1 0 0 0-1-1Zm-8 19a11 11 0 0 1-10 11c-6 0-11-5-11-11s5-11 11-11a11 11 0 0 1 10 11ZM460 41a14 14 0 0 0-5-1c-5 0-8 2-10 8h-1v-7a1 1 0 0 0 0-1h-7a1 1 0 0 0-1 1v36a1 1 0 0 0 1 1h7a1 1 0 0 0 0-1V65c0-15 6-17 10-17a11 11 0 0 1 4 1 1 1 0 0 0 1 0 1 1 0 0 0 0-1l2-7a1 1 0 0 0-1 0ZM500 41a1 1 0 0 0-1-1h-7a1 1 0 0 0-1 1l-9 24-10-24a1 1 0 0 0 0-1h-8a1 1 0 0 0-1 1l14 35-8 20a1 1 0 0 0 1 1h7a1 1 0 0 0 1-1l22-55ZM98 28A40 40 0 0 0 60 0a40 40 0 0 0-35 21 30 30 0 0 0-8 56l1 1v-9a22 22 0 0 1 9-41h3l1-2A32 32 0 0 1 60 8a33 33 0 0 1 31 25l1 2h3a19 19 0 0 1 18 19c0 7-4 13-11 16v8h1c11-4 18-13 18-24a26 26 0 0 0-23-26Z"/><path class="cls-1" d="m45 77 2 1-1 1H34a6 6 0 0 1-6-6V47h-3l11-11h1l11 11h-3l-1 1v25a6 6 0 0 0 2 4ZM70 77l1 1v1H58a6 6 0 0 1-6-6V54h-3v-1l11-11 11 11v1h-3v19a6 6 0 0 0 2 4ZM94 77l2 1v1H83a6 6 0 0 1-6-6V60h-4v-1l11-11h1l11 11v1h-4v13a6 6 0 0 0 2 4Z"/></g></g></svg>