<svg width="1200" height="1200" viewBox="0 0 1200 1200" fill="none" xmlns="http://www.w3.org/2000/svg">
<mask id="mask0_409_3640" style="mask-type:alpha" maskUnits="userSpaceOnUse" x="0" y="0" width="1197" height="1197">
<circle cx="598.033" cy="598.033" r="598.033" fill="#D9D9D9"/>
</mask>
<g mask="url(#mask0_409_3640)">
<path d="M1130.2 330.588C1368.24 789.02 949.804 1306.27 450.981 1180C227.059 1124.31 47.0589 930.196 9.80403 702.353C-32.5489 475.686 69.804 232.157 261.177 103.922C523.53 -76.4704 887.059 -16.4704 1074.9 241.569C1076.08 242.745 1075.69 244.706 1074.12 245.883C1072.94 247.059 1070.98 246.667 1069.8 245.098C1043.92 211.765 1014.51 181.569 982.353 154.51C929.412 109.412 867.451 74.1179 801.961 50.1963C468.628 -70.588 102.745 130.196 29.804 478.824C-52.5489 869.412 279.608 1229.02 675.686 1175.29C981.177 1136.86 1208.24 854.902 1183.14 548.235C1177.65 474.118 1158.04 400.785 1125.49 333.334C1124.71 332.157 1125.49 330.588 1126.67 329.804C1127.84 329.02 1129.41 329.412 1130.2 330.588Z" fill="black"/>
<path d="M979.606 1147.45C972.155 1089.41 939.214 991.764 919.214 965.489C897.253 936.862 888.234 927.842 814.9 903.136C810.979 883.528 796.469 834.117 779.214 813.332C752.94 773.724 681.175 764.705 659.606 769.411C659.606 769.411 543.528 728.626 409.802 728.626C367.449 738.038 318.43 757.254 291.763 797.646C273.724 824.313 294.116 832.94 285.096 857.254C282.744 863.528 227.842 894.901 205.489 913.724C195.293 921.96 183.92 942.744 176.077 969.803C160.391 1025.1 177.253 1101.57 157.645 1168.23C119.998 1296.86 43.5278 1335.29 43.5278 1335.29H1056.86C1056.08 1334.9 995.685 1269.8 979.606 1147.45Z" fill="white"/>
<path d="M973.725 1148.24C965.882 1096.86 950.196 1045.88 930.196 998.04C920.392 974.902 905.49 952.549 884.706 938.824C874.118 932.157 862.353 927.059 850.196 921.961C838.039 917.255 825.49 912.941 813.333 908.628C811.373 907.843 809.804 906.275 809.412 904.314C807.843 896.471 805.882 889.02 803.529 881.177C793.333 849.412 782.353 814.118 752.549 795.687C729.804 781.961 702.745 775.294 676.471 774.118C671.373 774.118 665.882 774.118 661.176 774.902H659.608C659.216 774.902 658.431 774.902 658.039 774.51C639.216 765.49 618.431 760 598.039 754.51C536.863 740.392 472.941 734.51 410.196 734.118C371.765 743.138 318.039 764.314 294.51 803.53C290.588 809.804 288.627 816.079 289.412 823.138C290.196 830.981 292.941 839.608 290.98 847.843C290.196 851.373 289.412 855.294 287.843 858.432C284.706 862.745 279.608 865.49 275.686 868.236C255.294 881.569 234.51 893.334 214.902 907.059C208.235 911.765 201.961 916.079 197.255 922.745C183.529 942.353 175.294 965.883 171.765 989.412C165.49 1037.26 171.765 1085.88 165.49 1133.73C158.431 1181.57 140 1227.84 114.118 1268.63C96.0784 1296.08 74.1176 1321.57 46.2745 1339.22L43.5294 1328.24H1056.86L1052.55 1338.04C1040.78 1324.71 1031.37 1310.2 1022.75 1294.9C996.078 1250.2 980.392 1199.61 973.725 1148.24ZM985.49 1146.67C989.804 1180 998.039 1212.94 1010.59 1244.31C1023.14 1275.29 1038.82 1305.49 1060.78 1330.98C1063.92 1334.51 1061.18 1341.18 1056.47 1340.78H43.1372C40 1340.78 37.2549 1338.04 37.2549 1334.9C37.2549 1332.55 38.4314 1330.59 40.3921 1329.8C46.6666 1326.27 52.9412 1321.18 58.8235 1316.08C110.196 1269.8 142.353 1201.18 152.941 1132.94C161.961 1069.02 145.098 1000 173.725 939.216C180.392 925.098 188.627 910.196 201.961 901.177C226.274 883.138 252.941 869.804 276.863 852.157C277.255 852.157 277.255 851.765 277.255 851.765C276.863 852.157 276.471 852.941 276.471 853.334C278.824 847.843 279.608 843.138 278.824 836.863C277.647 829.02 275.686 818.432 278.431 810.196C279.608 805.491 281.961 801.177 284.314 797.647C312.549 755.294 362.353 736.471 409.804 725.883C423.137 726.275 436.863 723.922 450.196 723.922C468.627 723.922 487.451 726.667 505.882 729.02C558.824 737.255 609.804 751.373 661.961 762.745L658.431 762.353C670.588 760 681.961 761.177 693.725 762.745C769.02 774.118 794.51 807.059 814.902 877.255C817.255 885.098 819.216 892.941 821.176 901.177L817.255 896.471C854.902 909.804 897.255 921.961 921.176 956.863C929.804 967.451 936.078 980 941.569 992.549C961.569 1042.75 977.255 1093.33 985.49 1146.67Z" fill="black"/>
<path d="M361.569 889.413C390.589 951.374 435.687 1003.92 489.413 1045.49C491.373 1047.06 489.413 1050.2 487.06 1049.02C439.217 1026.28 398.824 987.452 374.903 940.394C367.06 924.707 360.393 907.844 358.04 890.197C357.256 888.237 360.393 887.452 361.569 889.413Z" fill="black"/>
<path d="M820.785 902.354C821.962 967.844 795.295 1034.9 744.315 1077.26C743.138 1078.43 741.57 1078.04 740.393 1076.86C739.217 1075.69 739.609 1074.12 740.785 1072.94C752.158 1061.96 763.53 1050.59 772.158 1037.26C790.197 1011.37 801.178 980.785 806.276 949.805C808.629 934.511 810.197 918.04 809.021 902.746C808.629 895.295 820.393 894.511 820.785 902.354Z" fill="black"/>
<path d="M589.804 1058.04C580.784 1089.8 573.333 1124.31 577.647 1157.26C578.823 1164.71 567.451 1166.67 565.882 1158.82C563.922 1140.78 566.274 1123.14 569.412 1105.88C572.941 1088.63 577.255 1072.16 583.137 1055.69C584.706 1051.77 591.372 1053.73 589.804 1058.04Z" fill="black"/>
<path d="M714.51 1052.16C727.451 1080 736.471 1109.02 743.53 1138.43C744.314 1141.57 742.353 1144.71 739.216 1145.49C736.079 1146.27 732.941 1144.31 732.157 1141.18C728.235 1119.22 723.137 1097.26 716.079 1075.69C713.726 1068.63 711.373 1061.57 708.628 1054.51C707.059 1050.98 712.549 1048.24 714.51 1052.16Z" fill="black"/>
<path d="M293.333 855.686C307.843 934.902 363.529 1001.96 430.588 1044.71C453.333 1059.22 477.647 1071.76 502.745 1081.96C504.314 1082.75 505.098 1084.31 504.314 1085.88C503.922 1087.45 501.961 1088.24 500.784 1087.45C474.902 1078.04 449.804 1066.27 426.275 1052.16C378.431 1023.92 336.471 984.706 308.235 936.863C293.726 912.157 282.353 886.275 276.863 858.039C276.078 853.333 279.216 849.02 283.922 848.235C288.235 847.059 292.941 850.588 293.333 855.686Z" fill="black"/>
<path d="M566.273 1165.88C555.292 1164.71 547.449 1154.51 549.802 1143.53L554.116 1122.75C555.684 1114.51 563.528 1108.63 571.763 1109.8C579.998 1110.59 586.665 1117.65 586.665 1126.27V1147.45C587.057 1158.43 577.645 1167.06 566.273 1165.88Z" fill="black"/>
<path d="M747.059 1151.37C736.471 1155.29 725.098 1149.02 722.353 1138.04L717.255 1117.26C715.294 1109.02 719.608 1100.78 727.843 1097.65C735.686 1094.9 744.706 1098.43 748.235 1105.88L757.647 1125.1C762.353 1135.69 757.647 1147.84 747.059 1151.37Z" fill="black"/>
<path d="M928.235 1139.61C928.235 1139.61 950.196 1262.75 941.569 1334.9" stroke="black" stroke-width="5.1257" stroke-miterlimit="10" stroke-linecap="round" stroke-linejoin="round"/>
<path d="M416.077 841.569C410.587 825.883 408.234 809.805 409.41 793.334C409.41 791.765 410.587 790.981 412.156 790.981C413.332 790.981 414.508 792.157 414.508 793.334C415.685 808.236 419.999 823.53 427.058 836.471C430.587 844.314 418.822 849.412 416.077 841.569Z" fill="black"/>
<path d="M681.175 862.354C670.194 837.648 643.136 825.099 619.214 816.471C604.312 811.765 587.841 808.236 572.155 805.883C534.116 800.001 480.39 790.981 442.351 787.059C441.959 787.059 441.959 786.275 442.351 786.275C453.332 785.099 464.312 785.099 475.292 785.099C508.234 785.883 541.175 789.412 573.724 794.51C606.273 799.608 641.175 809.412 665.881 832.942C673.724 841.177 680.783 850.589 682.743 861.961C683.136 863.138 681.567 863.53 681.175 862.354Z" fill="black"/>
<path d="M717.644 963.137C709.409 1003.53 656.075 1027.84 566.271 991.372C472.938 953.725 432.546 863.921 422.35 837.255C477.644 733.725 439.213 661.961 439.213 661.961C566.664 650.98 678.036 800 678.036 800L695.291 873.725C696.86 880 699.997 885.49 704.703 889.412C712.938 903.921 722.742 937.255 717.644 963.137Z" fill="white"/>
<path d="M420.391 838.431C427.842 827.059 432.548 813.726 435.685 800.784C441.567 773.726 443.528 746.275 443.92 718.824V708.627C442.744 698.431 439.214 687.843 435.293 678.431C430.195 665.882 448.626 658.039 454.508 670.588C455.293 672.157 455.293 674.902 455.293 676.471C456.469 729.804 458.822 798.431 425.097 842.745C422.744 845.098 418.038 841.569 420.391 838.431Z" fill="black"/>
<path d="M682.35 799.216C688.233 802.745 690.194 807.451 690.978 812.157C693.331 821.569 692.546 831.765 694.899 841.569C696.86 850.981 702.743 860 704.311 869.804C706.272 880 712.154 901.569 714.507 912.157C715.292 914.51 713.723 917.255 710.978 917.647C709.409 918.04 708.233 917.647 707.056 916.863C701.958 912.549 699.605 908.236 696.468 902.745C691.37 893.334 687.841 884.706 684.703 874.118C681.958 864.706 683.135 854.51 680.782 844.706C678.821 835.294 673.331 826.275 671.37 816.471C670.194 811.765 669.801 806.667 673.331 800.785C675.684 798.432 679.605 797.647 682.35 799.216Z" fill="black"/>
<path d="M710.587 902.745C635.685 898.823 574.508 875.294 514.901 769.02C565.097 813.333 624.312 830.196 686.665 838.039L694.901 874.117C696.469 880.392 705.881 898.823 710.587 902.745Z" fill="black"/>
<path d="M707.451 888.235C720.785 913.333 728.628 944.706 720.392 972.549C714.118 992.157 696.079 1006.67 676.471 1012.16C630.981 1024.31 578.432 1005.1 538.039 983.529C488.236 955.686 451.373 909.019 427.843 858.039C426.275 854.117 431.765 850.98 434.118 854.902C442.353 871.372 451.765 887.451 462.353 901.961C472.941 916.863 485.098 930.588 498.824 942.745C538.824 978.823 592.941 1001.18 647.059 1001.18C702.745 999.608 723.922 970.196 710.981 916.078C709.02 907.451 705.883 898.431 701.569 890.98C699.216 887.843 705.098 884.314 707.451 888.235Z" fill="black"/>
<path d="M859.214 417.255C866.273 450.196 860.783 472.157 857.645 563.137C854.508 652.549 828.626 778.824 796.861 810.588C772.547 834.51 694.508 853.334 625.096 835.686C589.802 826.667 559.998 806.275 535.685 791.765C505.096 773.333 478.43 716.471 456.469 680C439.214 651.373 440.783 685.883 418.43 661.177C387.449 627.451 350.194 559.608 368.626 439.608C398.43 245.098 552.547 222.353 666.665 243.922C781.567 265.49 840.391 330.588 859.214 417.255Z" fill="white"/>
<path d="M438.039 695.686C429.02 680.784 417.255 667.451 406.667 653.333C390.981 631.765 379.216 607.059 371.373 581.569C337.255 472.549 358.039 329.804 461.177 265.49C554.902 205.882 736.863 227.451 812.941 309.02C841.569 338.431 860 376.863 867.843 416.863C868.236 419.216 869.412 423.529 869.804 425.882C870.196 427.843 871.373 430.196 870.981 432.549C870.196 441.177 868.628 449.804 867.843 458.431C861.961 510.588 863.53 563.922 856.863 616.078C850.981 670.98 843.138 725.882 826.667 778.824C821.569 794.902 811.765 809.412 798.824 820C769.804 844.314 731.765 852.549 695.294 854.118C622.353 857.647 548.236 831.765 505.883 770.196C504.314 767.843 507.451 765.098 509.412 767.451C544.706 805.49 592.549 829.804 643.53 835.294C700 841.961 785.098 836.863 809.804 776.471C838.432 690.98 853.334 600.392 854.902 510.588C854.902 488.627 853.726 466.667 853.726 444.314C853.726 441.569 854.118 435.294 854.118 432.549C854.118 432.549 854.118 432.157 854.118 432.549C854.118 432.941 854.118 432.941 854.118 432.549C850.981 424.706 849.804 416.078 847.451 408.235C838.824 375.686 823.138 344.706 800.785 320C726.667 236.863 561.569 216.078 469.02 278.431C395.686 327.059 376.079 420.392 370.981 502.745C366.667 564.314 384.706 624.706 431.373 667.059L449.804 686.275C457.647 694.902 444.314 705.098 438.039 695.686Z" fill="black"/>
<path d="M484.315 570.98C484.315 570.98 472.158 512.157 414.904 519.215C365.492 525.49 348.237 643.921 460.394 676.863" fill="white"/>
<path d="M455.293 625.491C446.273 620.393 439.999 611.765 439.606 601.177C439.999 593.334 441.175 584.314 439.214 576.471C438.038 569.02 430.195 567.059 424.312 567.451C418.038 568.628 414.116 576.471 412.94 582.746C412.94 583.138 412.548 584.314 412.548 584.706C412.155 586.667 409.018 586.667 408.234 584.706C403.136 569.412 414.508 552.549 430.979 554.51C454.116 556.079 457.253 580.393 452.94 598.824C450.587 606.667 453.724 613.726 458.038 620.393L458.822 621.569C460.783 623.922 457.646 627.059 455.293 625.491Z" fill="black"/>
<path d="M769.022 529.412C774.904 557.255 785.885 583.137 799.61 607.451C811.767 637.255 780.394 665.49 752.551 664.313C749.414 664.313 749.022 660 751.767 659.215C769.414 653.725 785.492 641.961 788.237 623.921C789.414 618.431 787.845 613.725 785.1 609.019C772.159 584.706 764.316 556.862 766.277 529.412C766.277 527.451 769.022 527.451 769.022 529.412Z" fill="black"/>
<path d="M482.353 571.373C473.334 548.235 453.726 526.275 427.451 526.667C425.098 526.275 421.177 527.059 418.824 527.059C412.157 527.451 406.667 529.804 401.569 534.51C376.471 559.608 380.785 603.922 401.177 631.765C408.236 641.569 417.255 650.196 427.451 657.255C437.647 664.314 449.02 669.804 461.177 674.51C463.922 675.294 462.745 679.608 460 679.216C433.726 673.725 408.628 660.784 391.373 639.216C364.706 607.059 359.216 553.333 390.981 521.961C398.039 515.686 407.843 510.98 417.647 510.98C420.785 510.98 425.49 510.196 428.628 510.98C445.098 511.765 460.785 520 470.981 532.941C480 543.922 485.098 557.255 486.667 570.588C486.667 572.941 483.138 573.725 482.353 571.373Z" fill="black"/>
<path d="M739.216 703.529C714.118 727.451 666.667 708.235 654.118 679.216C652.549 675.686 656.471 672.549 659.608 674.117C666.275 677.647 672.157 681.176 678.432 683.921C696.471 692.157 715.294 698.823 735.294 696.863C739.216 696.078 741.961 700.784 739.216 703.529Z" fill="black"/>
<path d="M622.746 569.412C613.334 569.02 606.275 561.177 607.06 551.765L607.452 540.785C607.844 531.373 615.687 524.314 625.099 525.099C634.511 525.491 641.57 533.334 640.785 542.746L640.393 553.726C640.001 562.746 632.158 569.804 622.746 569.412Z" fill="black"/>
<path d="M787.843 575.295C779.215 574.903 772.549 567.452 772.941 558.824L773.333 548.628C773.725 540.001 781.176 533.334 789.803 533.726C798.431 534.119 805.098 541.57 804.705 550.197L804.313 560.393C803.921 569.02 796.47 575.687 787.843 575.295Z" fill="black"/>
<path d="M658.04 548.236C645.099 539.608 630.981 533.726 615.295 536.863C610.197 537.647 605.099 539.216 601.962 542.746C600.785 544.314 598.04 543.922 598.04 541.569C598.432 533.726 605.099 528.628 611.373 525.491C623.53 519.216 640.393 520.393 651.373 528.628C655.295 530.981 668.628 545.491 661.569 548.628C660.001 549.412 659.217 549.02 658.04 548.236Z" fill="black"/>
<path d="M770.197 550.197C770.197 533.726 790.589 527.844 803.138 533.726C810.197 536.863 815.295 543.138 817.256 550.589C818.04 552.942 814.511 554.903 812.942 552.942C806.275 545.099 794.903 541.177 785.883 545.883C783.138 547.452 782.746 548.628 781.962 550.197C781.962 558.04 770.589 557.648 770.197 550.197Z" fill="black"/>
<path d="M676.864 483.53C685.099 486.275 693.334 478.824 691.766 469.804C690.981 465.098 689.02 460.392 685.099 456.863C673.334 446.275 624.707 436.863 595.295 450.589C569.413 463.138 639.217 470.981 676.864 483.53Z" fill="black"/>
<path d="M794.12 489.804C787.453 492.157 780.394 485.098 781.571 476.863C781.963 472.549 783.532 468.236 786.669 465.098C796.081 455.687 828.237 448.236 848.63 462.745C866.277 474.902 824.708 478.432 794.12 489.804Z" fill="black"/>
<path d="M594.902 224.313C363.137 219.608 339.608 413.725 354.118 529.412C370.196 658.039 447.059 708.627 447.059 708.627L452.157 674.51C452.157 674.51 433.725 668.235 416.078 655.294C354.902 609.019 373.725 524.706 415.294 519.608C456.863 514.117 474.902 544.314 481.176 560.784C503.137 488.235 472.157 470.196 503.137 418.823C600 314.117 667.451 384.706 714.902 398.431C766.667 412.941 800.784 396.47 820 378.039C833.725 364.706 851.372 389.804 851.372 389.804C851.372 389.804 825.882 229.019 594.902 224.313Z" fill="black"/>
<path d="M513.726 477.255C513.726 477.255 400.393 487.843 351.766 475.294C351.766 475.294 359.609 340.392 415.687 268.628C471.766 196.863 689.413 196.471 776.079 228.628C854.511 258.039 864.707 391.373 864.707 391.373L513.726 477.255Z" fill="black"/>
<path d="M865.097 391.373L528.627 473.726C526.666 428.628 521.96 329.02 545.097 276.471C572.94 213.333 734.901 213.726 802.744 245.882C856.862 298.824 865.097 391.373 865.097 391.373Z" fill="white"/>
<path d="M869.805 394.902C756.863 423.53 643.53 451.765 530.197 479.216C527.06 480 523.922 478.039 523.138 474.902C521.177 434.902 520.785 394.51 524.314 354.118C527.452 324.314 530.981 292.549 546.275 266.275C575.295 227.059 641.569 221.961 686.275 221.961C724.707 222.353 774.118 229.804 803.53 245.098C842.746 282.353 861.962 336.079 870.589 388.235C870.981 390.196 871.373 392.549 869.805 394.902ZM860.393 387.843C859.609 388.628 859.216 390.981 859.216 391.373C859.216 390.196 858.824 387.843 858.824 386.667C854.118 336.863 834.903 281.569 802.746 246.667C752.942 225.098 684.707 221.569 627.844 231.765C600.001 237.647 569.805 246.275 552.942 270.196C525.883 321.569 532.158 414.51 534.903 472.941L527.452 467.451C638.04 440.784 749.02 414.118 860.393 387.843Z" fill="black"/>
<path d="M940.393 463.922C940.393 511.373 863.53 490.196 863.53 490.196C865.491 470.981 865.491 456.471 863.923 443.922C862.746 434.902 861.177 426.275 859.217 417.647C857.648 411.373 856.079 405.098 854.511 398.824C879.609 396.079 898.432 403.137 911.766 413.334C932.158 429.02 940.393 452.157 940.393 463.922Z" fill="black" stroke="black" stroke-width="3" stroke-miterlimit="10" stroke-linecap="round" stroke-linejoin="round"/>
<path d="M702.744 323.53C723.103 323.53 739.607 307.026 739.607 286.667C739.607 266.309 723.103 249.805 702.744 249.805C682.385 249.805 665.881 266.309 665.881 286.667C665.881 307.026 682.385 323.53 702.744 323.53Z" fill="white"/>
<path d="M739.607 286.668C739.607 303.53 728.234 317.648 712.94 321.962C697.646 317.648 686.273 303.53 686.273 286.668C686.273 269.805 697.646 255.687 712.94 251.374C728.234 255.687 739.607 269.805 739.607 286.668Z" fill="#C9C9C9"/>
<path d="M759.607 286.667C759.607 307.06 743.136 323.53 722.744 323.53C721.96 323.53 720.783 323.53 719.999 323.53C719.215 323.53 718.43 323.53 717.646 323.138C716.862 323.138 716.077 322.746 715.293 322.746C714.509 322.746 713.724 322.354 712.94 322.354C728.234 318.04 739.607 303.922 739.607 287.06C739.607 270.197 728.234 256.079 712.94 251.766C713.724 251.373 714.509 251.373 715.293 251.373C716.077 251.373 716.47 250.981 717.254 250.981C717.646 250.981 718.038 250.981 718.43 250.981C718.823 250.981 719.215 250.981 719.999 250.981C721.175 250.981 721.96 250.981 723.136 250.981C743.136 249.805 759.607 266.275 759.607 286.667Z" fill="black"/>
<path d="M702.744 259.216C718.038 259.216 730.195 271.373 730.195 286.667C730.195 301.962 718.038 314.118 702.744 314.118C687.45 314.118 675.293 301.962 675.293 286.667C675.293 271.373 687.842 259.216 702.744 259.216ZM702.744 249.805C682.352 249.805 665.881 266.275 665.881 286.667C665.881 307.06 682.352 323.53 702.744 323.53C723.136 323.53 739.607 307.06 739.607 286.667C739.607 266.275 723.136 249.805 702.744 249.805Z" fill="black"/>
<path d="M529.413 438.432C529.413 438.432 428.236 446.275 359.217 442.353C355.295 441.961 355.295 438.824 355.295 434.902L355.687 427.843C355.687 427.843 348.236 429.804 345.099 440C343.53 445.49 342.354 458.824 342.746 467.059C343.138 472.157 346.667 476.471 351.766 477.255C374.511 481.177 411.766 490.588 513.726 477.647C513.726 477.255 527.06 454.902 529.413 438.432Z" fill="black"/>
<path d="M911.766 413.334C895.295 400.784 870.589 393.334 836.864 401.961C817.648 407.059 794.903 417.255 769.02 434.51C642.354 520 513.726 477.255 513.726 477.255C513.726 477.255 517.648 458.039 531.766 434.51C552.55 400 595.687 356.079 682.354 350.588C758.432 345.883 814.511 360.392 852.55 376.863C890.197 393.334 909.805 411.373 911.766 413.334Z" fill="white"/>
<path d="M916.471 417.255C914.118 418.431 909.413 418.431 907.06 416.863C905.883 416.471 905.491 415.686 904.707 415.294C877.648 396.863 842.746 402.745 813.726 414.902C781.569 428.627 753.726 451.765 721.177 464.706C656.079 492.157 581.569 497.647 513.334 478.039C512.942 478.039 512.55 477.255 512.55 476.863C518.824 437.255 545.491 402.745 577.648 380C610.589 356.863 650.981 347.059 690.589 345.098C759.609 341.569 831.766 353.333 891.373 390.588C898.824 395.294 906.275 400.392 912.942 406.274L914.511 407.451L915.295 408.235C916.471 409.02 916.864 410.196 917.256 411.765C917.648 414.51 916.864 416.471 916.471 417.255ZM907.452 409.412C906.667 410.196 905.491 411.765 905.883 414.118C906.275 415.294 906.667 416.471 907.452 417.255L906.667 416.863C900.001 410.98 892.942 405.882 885.491 401.176C809.805 352.157 660.393 335.294 583.922 388.627C552.55 409.804 530.197 442.745 518.824 478.431L515.687 472.941C581.962 491.373 655.295 484.706 718.04 457.255C750.589 443.529 777.256 420 809.805 405.882C840.785 391.765 881.177 385.49 911.373 405.882L912.158 406.274C912.55 406.667 912.158 406.274 911.766 406.274C911.373 406.274 910.197 406.274 909.02 407.059C907.844 407.451 907.452 408.627 907.452 409.412Z" fill="black"/>
<path d="M356.863 436.863C368.236 440 381.569 439.608 393.334 440.392C430.981 441.176 468.628 438.824 506.667 436.863C508.628 436.863 509.413 440 507.06 440.392C467.452 446.667 390.981 457.255 354.903 440.392C352.158 439.216 354.118 435.686 356.863 436.863Z" fill="white"/>
<path d="M450.98 260.392C447.842 263.922 442.744 267.451 441.568 270.98C441.568 270.98 441.568 270.98 441.568 270.588C441.568 270.196 441.568 269.804 441.176 269.804C441.176 269.412 440.783 269.412 440.783 269.412C441.96 269.804 443.136 269.804 444.705 269.804C458.43 269.804 479.999 265.882 494.509 264.314C502.744 263.137 511.372 261.961 519.999 261.176C520.391 261.176 520.783 261.569 520.783 261.961C520.783 262.353 520.391 262.745 520.391 262.745C504.313 268.627 487.842 272.941 470.98 276.078C461.176 277.647 450.98 280 440.783 278.039C432.94 276.471 431.764 269.412 438.038 265.098C439.215 262.745 452.94 256.078 450.98 260.392Z" fill="white"/>
<path d="M554.902 647.059C565.882 641.176 576.47 634.902 588.627 631.765C589.804 631.765 590.588 631.372 592.941 632.157C601.176 638.431 577.255 654.117 572.941 658.039C574.117 656.47 573.725 653.725 571.765 652.941C571.372 652.941 571.372 652.549 570.98 652.549C570.196 652.549 570.196 652.549 570.196 652.549C580 649.019 589.804 645.098 599.216 640.392C604.706 638.039 612.157 632.941 618.039 632.549C620.392 632.549 623.137 634.902 622.745 637.255C622.353 640.392 621.568 641.568 620.784 643.529C620 645.098 618.431 647.451 618.039 649.019C618.039 649.412 617.647 648.627 617.647 648.627C617.647 649.019 620 649.019 620.392 648.627C626.666 647.843 633.333 645.49 639.608 643.137C640.784 642.745 641.568 644.314 640.392 645.098C633.725 649.412 626.666 654.117 618.039 654.902C612.549 655.294 609.804 650.196 611.765 645.49C612.549 642.745 614.51 639.608 615.294 637.255C615.294 638.039 616.078 639.216 616.863 639.608C617.647 640 618.039 639.608 617.647 640C613.725 641.176 605.882 645.49 602.353 647.059C592.157 651.765 582.353 656.078 571.372 659.216C570.588 659.216 570.588 659.608 569.412 659.216C566.274 658.823 565.49 654.902 567.843 652.941C572.549 649.019 578.039 645.882 582.353 641.961C584.706 640 587.451 637.255 589.019 634.902C589.019 635.294 589.412 636.078 589.804 636.47C586.274 636.863 579.216 638.823 574.902 640.784C568.627 643.137 561.961 645.882 555.686 648.627C554.902 649.412 553.725 647.451 554.902 647.059Z" fill="black"/>
<path d="M809.019 647.059C812.549 643.137 827.451 624.313 831.372 634.117C831.372 634.902 831.372 635.686 831.372 636.078C829.804 643.921 824.706 650.588 820.784 657.255C821.568 655.294 820 652.549 818.039 652.157C817.255 652.157 816.863 652.157 816.47 652.157C816.078 652.157 816.47 652.157 816.863 651.764C824.706 646.666 830.588 640.392 838.431 634.902C840 634.117 841.961 632.941 843.921 634.117C845.882 635.686 845.49 638.039 844.706 639.608C843.921 641.568 843.137 643.137 842.353 645.098C841.961 645.49 841.568 645.882 840.784 645.49C840.392 645.49 840.392 645.098 840.392 644.706C840.392 643.921 840.392 638.823 840.392 638.039C840.392 637.647 840 637.255 840.392 638.039C840.392 638.431 841.176 639.215 841.961 639.215C842.353 639.215 843.137 639.215 843.137 639.215C836.47 647.059 828.627 654.51 819.608 659.608C816.863 660.784 813.725 658.431 814.117 655.294C814.117 654.902 814.51 654.117 814.902 653.725C817.647 649.804 820.784 645.882 823.137 641.961C824.314 640 825.882 637.255 826.274 635.294C826.274 636.078 827.843 637.255 828.235 636.862C821.961 639.215 816.47 644.314 810.98 648.235C809.412 649.412 808.235 647.843 809.019 647.059Z" fill="black"/>
</g>
</svg>
