<svg width="1250" height="1250" viewBox="0 0 1250 1250" fill="none" xmlns="http://www.w3.org/2000/svg">
<path d="M1177.29 344.363C1425.24 821.896 989.379 1360.7 469.771 1229.17C236.519 1171.16 49.0194 968.954 10.2122 731.618C-33.9055 495.507 72.7122 241.83 272.059 108.252C545.343 -79.6569 924.019 -17.1569 1119.69 251.634C1120.91 252.859 1120.51 254.902 1118.87 256.127C1117.65 257.353 1115.6 256.944 1114.38 255.31C1087.42 220.588 1056.78 189.134 1023.28 160.948C968.137 113.971 903.594 77.2059 835.376 52.2876C488.153 -73.5294 107.026 135.621 31.0455 498.775C-54.7388 905.637 291.258 1280.23 703.84 1224.26C1022.06 1184.23 1258.58 890.523 1232.43 571.078C1226.72 493.873 1206.29 417.484 1172.39 347.222C1171.57 345.997 1172.39 344.363 1173.61 343.546C1174.84 342.729 1176.47 343.137 1177.29 344.363Z" fill="white"/>
<mask id="mask0_96_2409" style="mask-type:alpha" maskUnits="userSpaceOnUse" x="38" y="39" width="1197" height="1197">
<circle cx="636.033" cy="637.033" r="598.033" fill="#D9D9D9"/>
</mask>
<g mask="url(#mask0_96_2409)">
<path d="M961.882 1130.76C959.137 1132.73 956 1134.69 953.255 1136.65C950.118 1138.61 947.373 1140.57 944.235 1142.14C941.49 1143.71 939.137 1145.27 936.392 1146.84C936 1147.24 935.608 1147.24 935.216 1147.63C926.196 1153.12 916.784 1158.22 907.373 1162.92C904.628 1164.49 901.49 1166.06 898.745 1167.24C898.745 1167.24 898.353 1167.63 897.961 1167.63C894.824 1169.2 891.686 1170.76 888.549 1172.33C882.275 1175.47 875.608 1178.22 869.333 1180.96C866.196 1182.53 862.667 1183.71 859.529 1184.88C856.392 1186.06 852.863 1187.63 849.726 1188.8C846.588 1189.98 843.059 1191.55 839.922 1192.73C839.922 1192.73 839.922 1192.73 839.529 1192.73C836.392 1193.9 832.863 1195.08 829.726 1196.25C822.667 1198.61 815.216 1200.96 808.157 1203.31C805.804 1204.1 803.059 1204.88 800.706 1205.67C793.255 1208.02 785.804 1209.98 778.353 1211.55C775.608 1212.33 772.863 1212.73 769.726 1213.51C762.667 1215.08 755.216 1216.65 748.157 1218.22C746.588 1218.61 745.412 1218.61 743.843 1219C741.49 1219.39 738.745 1219.78 736.392 1220.18C732.863 1220.57 729.726 1221.35 726.196 1221.74C724.628 1222.14 723.059 1222.14 721.49 1222.53C719.529 1222.92 717.177 1223.31 714.824 1223.31C708.549 1224.1 701.882 1224.88 695.608 1225.67C693.647 1226.06 691.294 1226.06 689.333 1226.45H688.941C686.196 1226.84 683.451 1226.84 680.706 1227.24C677.961 1227.63 675.216 1227.63 672.471 1227.63C670.902 1227.63 668.941 1228.02 667.373 1228.02C664.235 1228.02 661.49 1228.41 658.745 1228.41C654.824 1228.41 651.294 1228.8 647.373 1228.8C643.451 1228.8 639.922 1228.8 636 1228.8C633.255 1228.8 630.51 1228.8 627.765 1228.8C462.275 1226.45 313.647 1156.25 207.373 1044.88C207.373 1044.88 207.373 1044.49 206.98 1044.49C195.216 1033.9 205.412 977.431 252.863 941.745C312.471 896.647 455.216 868.412 455.216 868.412C455.216 868.412 510.51 859.392 715.608 902.137C835.608 927.235 926.98 963.706 977.961 1062.53C988.549 1082.92 999.137 1114.29 961.882 1130.76Z" fill="white"/>
<path d="M716.785 897.823C792.079 913.118 872.471 929.588 934.432 979.392C955.216 996.255 968.942 1020.96 980.314 1044.88C985.804 1056.65 991.295 1068.8 995.608 1081.75C997.961 1090.37 1001.49 1100.18 999.53 1110.37C999.138 1113.12 996.785 1116.65 994.824 1118.61C985.804 1127.63 976 1133.12 966.197 1140.18C908.55 1180.18 842.275 1208.41 773.648 1223.31C620.706 1256.65 455.216 1230.76 320.706 1150.37C276.001 1123.31 234.824 1090.37 199.53 1051.55C195.608 1046.84 195.608 1039 195.608 1033.9C196.001 1022.14 199.138 1010.76 203.059 1000.18C212.471 975.863 224.628 951.549 245.412 934.686C260.314 924.49 276.393 915.863 292.863 908.804C344.628 886.843 399.138 871.549 455.216 865.274C459.922 864.882 460.706 871.549 456.001 872.333C402.275 883.314 348.942 899.784 299.138 922.137C281.099 931.157 261.883 939 247.373 953.118C233.648 968.02 223.844 986.451 216.001 1005.27C210.903 1016.65 207.373 1034.69 208.942 1043.71C233.648 1073.12 262.667 1099 294.04 1121.35C465.804 1241.35 726.589 1249.2 909.334 1149.2C925.804 1140.18 941.883 1129.98 957.177 1119.39C964.628 1114.29 972.471 1109.98 978.353 1104.1C978.746 1103.71 978.353 1104.1 978.353 1104.49C978.353 1104.88 977.961 1105.27 977.961 1105.27C978.353 1100.57 976.785 1094.29 974.824 1088.02C967.765 1065.27 956.393 1041.35 944.236 1020.57C925.02 989.588 892.471 969.98 859.53 954.294C836.785 943.706 812.863 935.471 788.549 927.627C764.236 919.784 739.53 913.118 714.824 907.235C708.55 905.667 710.51 896.647 716.785 897.823Z" fill="black"/>
<path d="M1092.08 1373.9H100.315C100.315 1373.9 116.394 1212.33 177.57 1083.31C199.923 1036.25 207.374 967.234 251.688 937.038C297.178 906.057 394.041 881.352 427.766 877.43C446.59 875.077 442.276 873.508 455.61 869.979C459.923 881.744 503.453 997.038 607.766 1039.39C697.57 1075.86 750.904 1051.55 759.139 1011.16C764.237 985.273 748.159 942.92 739.923 929.195C735.217 925.273 732.08 919.391 730.512 913.508L727.374 900.567C734.433 898.999 741.1 897.038 748.159 895.077C751.688 895.861 755.61 895.469 758.747 897.43C791.688 915.469 890.904 940.959 942.668 995.469C963.061 1016.65 994.825 1091.94 999.923 1140.96C1014.43 1275.47 1092.08 1373.9 1092.08 1373.9Z" fill="white"/>
<path d="M1097.57 1376.25C803.454 1377.04 390.513 1380.57 100.709 1379.39C97.1794 1379.39 94.4343 1376.25 94.8264 1372.73C98.3558 1344.88 103.062 1317.82 108.552 1290.37C123.062 1215.47 145.023 1141.75 177.964 1073.12C191.297 1040.96 197.964 1007.24 214.042 975.863C223.454 957.039 237.572 939 256.395 928.412C286.591 910.373 319.924 899 353.258 888.804C373.258 882.922 393.65 877.431 414.042 873.51C424.238 871.157 434.434 871.549 443.846 867.627C448.944 865.667 458.748 859.784 461.885 867.235C490.513 941.353 545.807 1011.55 623.062 1037.82C663.062 1052.33 732.473 1064.49 752.866 1015.47C759.14 997.039 753.258 977.039 747.768 958.608C744.63 949.196 740.709 939.392 736.003 931.549L737.179 932.725C730.121 926.843 726.199 917.431 725.022 908.804L723.062 900.961C722.277 897.824 724.238 894.686 727.375 893.902C734.434 892.726 741.493 890.373 748.552 888.412C752.473 888.412 758.748 889.196 763.846 891.941C806.983 911.941 856.003 926.451 897.179 951.549C920.317 965.275 943.846 981.353 958.748 1004.49C986.199 1050.37 1003.85 1102.53 1008.94 1155.47C1019.92 1231.16 1050.51 1303.71 1094.43 1366.06L1096 1368.02L1096.79 1368.8L1097.18 1369.2C1097.18 1369.2 1097.18 1368.8 1097.57 1369.98C1097.96 1372.33 1097.96 1375.08 1097.57 1376.25ZM1086.98 1371.16C1086.2 1372.33 1086.2 1375.08 1086.98 1376.25C1087.77 1377.04 1087.38 1376.65 1087.38 1376.65L1086.98 1376.25L1086.2 1375.08L1084.63 1373.12C1059.92 1335.47 1039.53 1295.08 1024.63 1253.12C1012.87 1222.14 1004.24 1189.98 999.532 1157.04C997.964 1145.27 996.003 1129.59 993.258 1118.22C984.238 1080.57 969.728 1042.92 948.944 1010.37C942.277 999.784 932.474 991.549 922.67 983.706C891.689 960.176 855.219 945.667 819.14 931.549L782.277 917.824C770.121 913.118 755.611 908.02 748.16 900.569H751.297C744.238 902.922 737.179 904.882 730.121 906.451L734.434 899.392L736.395 907.235C737.964 914.294 739.532 920.569 745.023 925.275C745.415 925.667 745.807 926.059 746.199 926.451C756.787 945.667 763.062 965.667 766.199 987.235C772.866 1024.49 749.336 1053.9 713.258 1060.96C663.454 1070.76 603.846 1049.2 562.67 1021.35C510.905 984.882 473.65 930.765 450.905 872.333L457.964 875.863C454.434 877.039 452.081 878.216 448.552 879.784C445.022 881.745 440.709 882.922 436.787 883.706C437.179 886.059 436.003 879 437.572 888.412C430.121 889.196 424.238 889.588 417.179 891.157C397.179 894.294 377.179 899 357.572 904.49C331.297 911.549 305.415 920.177 281.101 931.549C268.944 937.431 257.179 943.706 248.16 951.941C238.748 960.176 231.297 971.157 225.022 982.922C206.591 1018.61 197.572 1061.35 178.748 1097.43C139.532 1184.88 117.572 1280.18 106.983 1375.47L101.101 1369.2C385.807 1368.02 797.571 1369.59 1086.98 1371.16Z" fill="black"/>
<path d="M773.65 1117.43C759.924 1121.35 712.081 1071.55 702.277 1062.92C693.257 1073.12 629.728 1144.88 598.355 1140.18C563.846 1135.08 475.61 1075.86 430.904 982.921C406.198 931.941 405.414 900.961 408.159 884.098C409.336 876.255 411.689 871.157 412.865 868.412C416.787 859.392 445.022 824.49 452.081 824.882V825.274C455.61 862.921 467.767 899.392 488.159 931.157C513.257 969.98 552.865 1016.65 608.159 1039C697.963 1075.47 744.63 1039.39 752.473 999C757.571 973.118 748.552 942.529 740.316 928.804C735.61 924.882 732.473 919 730.904 913.117L727.767 900.176C734.826 898.608 741.493 896.647 748.551 894.686C750.512 893.902 752.865 893.51 754.826 892.725C756.002 894.294 757.571 895.863 758.748 897.431C775.218 916.255 792.473 942.137 801.885 986.059C817.571 1056.25 788.944 1112.73 773.65 1117.43Z" fill="black"/>
<path d="M701.101 1060.57C701.101 1060.57 729.728 1077.04 728.944 1090.76C728.159 1104.49 736.395 1148.02 736.395 1148.02" stroke="black" stroke-width="3" stroke-miterlimit="10" stroke-linecap="round" stroke-linejoin="round"/>
<path d="M700.709 1112.73C705.907 1112.73 710.12 1108.51 710.12 1103.31C710.12 1098.12 705.907 1093.9 700.709 1093.9C695.511 1093.9 691.297 1098.12 691.297 1103.31C691.297 1108.51 695.511 1112.73 700.709 1112.73Z" fill="black"/>
<path d="M703.844 1149.59C709.042 1149.59 713.256 1145.37 713.256 1140.18C713.256 1134.98 709.042 1130.76 703.844 1130.76C698.646 1130.76 694.433 1134.98 694.433 1140.18C694.433 1145.37 698.646 1149.59 703.844 1149.59Z" fill="black"/>
<path d="M294.433 1373.9L276.786 1228.41" stroke="#544D4D" stroke-width="3" stroke-miterlimit="10" stroke-linecap="round" stroke-linejoin="round"/>
<path d="M979.532 1179C979.532 1179 967.768 1207.63 971.297 1236.25C974.826 1264.88 985.022 1306.84 970.513 1373.9" stroke="#544D4D" stroke-width="3" stroke-miterlimit="10" stroke-linecap="round" stroke-linejoin="round"/>
<path d="M452.08 824.882C452.08 824.882 578.747 785.667 755.218 892.333C755.218 892.333 803.845 1023.31 773.649 1043.31C743.453 1063.31 648.551 1065.27 582.276 1043.31C515.61 1021.75 430.119 913.902 452.08 824.882Z" fill="black"/>
<path d="M753.646 1002.14C745.41 1042.53 692.077 1066.84 602.273 1030.37C508.94 992.726 468.548 902.922 458.352 876.255C513.646 772.726 475.214 700.961 475.214 700.961C602.665 689.981 714.038 839 714.038 839L731.293 912.726C732.861 919 735.999 924.491 740.704 928.412C748.94 942.922 758.744 976.255 753.646 1002.14Z" fill="white"/>
<path d="M456.392 877.432C463.843 866.059 468.549 852.726 471.686 839.785C477.569 812.726 479.529 785.275 479.922 757.824V747.628C478.745 737.432 475.216 726.844 471.294 717.432C466.196 704.883 484.628 697.04 490.51 709.589C491.294 711.157 491.294 713.903 491.294 715.471C492.471 768.804 494.824 837.432 461.098 881.746C458.745 884.099 454.039 880.569 456.392 877.432Z" fill="black"/>
<path d="M718.352 838.216C724.234 841.746 726.195 846.452 726.979 851.158C729.332 860.569 728.548 870.766 730.901 880.569C732.862 889.981 738.744 899.001 740.313 908.805C742.273 919.001 748.156 940.569 750.509 951.158C751.293 953.511 749.724 956.256 746.979 956.648C745.411 957.04 744.234 956.648 743.058 955.864C737.96 951.55 735.607 947.236 732.47 941.746C727.372 932.334 723.842 923.707 720.705 913.118C717.96 903.707 719.136 893.511 716.783 883.707C714.822 874.295 709.332 865.275 707.371 855.471C706.195 850.765 705.803 845.667 709.332 839.785C711.685 837.432 715.607 836.648 718.352 838.216Z" fill="black"/>
<path d="M746.589 941.745C671.687 937.824 610.51 914.294 550.902 808.02C601.098 852.334 660.314 869.196 722.667 877.04L730.902 913.118C732.471 919.392 741.883 937.824 746.589 941.745Z" fill="black"/>
<path d="M743.453 927.236C756.786 952.334 764.629 983.706 756.394 1011.55C750.119 1031.16 732.08 1045.67 712.472 1051.16C666.982 1063.31 614.433 1044.1 574.041 1022.53C524.237 994.687 487.374 948.02 463.845 897.04C462.276 893.118 467.766 889.981 470.119 893.902C478.355 910.373 487.766 926.451 498.355 940.961C508.943 955.863 521.1 969.589 534.825 981.745C574.825 1017.82 628.943 1040.18 683.061 1040.18C738.747 1038.61 759.923 1009.2 746.982 955.079C745.021 946.451 741.884 937.432 737.57 929.981C735.217 926.843 741.1 923.314 743.453 927.236Z" fill="black"/>
<path d="M895.215 456.255C902.274 489.196 905.803 515.863 886.588 603.706C867.764 691.157 913.646 709.196 805.019 849.196C760.705 906.451 653.254 890.373 566.195 831.157C536.784 811.157 524.235 759.785 502.274 723.314C485.019 694.687 477.176 724.49 454.431 699.785C423.45 666.059 386.195 598.216 404.627 478.216C434.431 283.706 588.548 260.961 702.666 282.53C817.568 304.49 876.392 369.588 895.215 456.255Z" fill="white"/>
<path d="M474.039 734.686C465.019 719.392 453.255 706.059 442.274 691.941C431.686 677.432 423.059 661.353 416 644.883C369.333 530.373 387.372 369.196 501.882 301.745C549.333 274.294 606.588 267.628 659.921 271.941C774.039 280.177 878.745 332.726 903.451 453.51C916.784 506.843 898.745 561.745 888.549 613.902C883.843 639.785 887.764 666.451 887.372 693.118C886.98 720.177 879.529 747.235 869.333 772.333C863.059 789.588 852.078 804.883 840.706 819C821.882 841.745 803.059 864.883 779.137 882.53C773.647 886.451 763.843 888.412 757.176 889.196C738.745 891.941 720.706 892.726 702.274 891.549C630.117 888.412 552.862 853.51 523.843 783.706C522.666 780.961 526.588 779 528.157 781.353C565.804 840.961 634.823 870.373 703.451 874.294C724.627 875.471 746.196 875.079 766.98 870.765C777.176 865.667 786.196 856.647 794.823 848.412C816 827.235 837.568 804.49 852.862 778.608C871.294 743.706 881.49 705.667 878.353 666.059C877.568 648.412 877.176 629.981 880.706 612.333C883.843 594.686 887.764 577.824 890.117 559.785C892.47 542.53 893.647 524.883 893.647 507.628C891.686 457.039 875.215 404.883 843.059 365.667C772.078 277.432 604.235 254.294 509.725 314.686C450.117 351.549 422.274 420.569 413.255 487.628C399.529 568.02 403.451 647.235 467.372 705.667L486.196 725.275C493.647 733.902 480.313 744.098 474.039 734.686Z" fill="black"/>
<path d="M520.312 609.98C520.312 609.98 508.155 551.157 450.9 558.215C401.488 564.49 384.233 682.921 496.39 715.863" fill="white"/>
<path d="M491.294 664.49C482.274 659.392 476 650.765 475.608 640.176C476 632.333 477.176 623.314 475.216 615.471C474.039 608.02 466.196 606.059 460.314 606.451C454.039 607.627 450.118 615.471 448.941 621.745C448.941 622.137 448.549 623.314 448.549 623.706C448.157 625.667 445.02 625.667 444.235 623.706C439.137 608.412 450.51 591.549 466.98 593.51C490.118 595.078 493.255 619.392 488.941 637.823C486.588 645.667 489.725 652.725 494.039 659.392L494.824 660.569C496.784 662.922 493.647 666.059 491.294 664.49Z" fill="black"/>
<path d="M805.018 568.412C810.901 596.255 821.881 622.137 835.607 646.451C847.763 676.255 816.391 704.49 788.548 703.313C785.411 703.313 785.018 699 787.763 698.215C805.411 692.725 821.489 680.961 824.234 662.921C825.411 657.431 823.842 652.725 821.097 648.019C808.156 623.706 800.312 595.862 802.273 568.412C802.273 566.451 805.018 566.451 805.018 568.412Z" fill="black"/>
<path d="M518.353 610.373C509.333 587.235 489.725 565.275 463.451 565.667C461.098 565.275 457.176 566.059 454.823 566.059C448.156 566.451 442.666 568.804 437.568 573.51C412.47 598.608 416.784 642.922 437.176 670.765C444.235 680.569 453.254 689.196 463.451 696.255C473.647 703.314 485.019 708.804 497.176 713.51C499.921 714.294 498.745 718.608 496 718.216C469.725 712.726 444.627 699.784 427.372 678.216C400.705 646.059 395.215 592.333 426.98 560.961C434.039 554.686 443.843 549.98 453.647 549.98C456.784 549.98 461.49 549.196 464.627 549.98C481.098 550.765 496.784 559 506.98 571.941C516 582.922 521.098 596.255 522.666 609.588C522.666 611.941 519.137 612.726 518.353 610.373Z" fill="black"/>
<path d="M775.216 742.529C750.118 766.451 702.667 747.235 690.118 718.216C688.549 714.686 692.471 711.549 695.608 713.117C702.275 716.647 708.157 720.176 714.432 722.921C732.471 731.157 751.294 737.823 771.294 735.863C775.216 735.078 777.961 739.784 775.216 742.529Z" fill="black"/>
<path d="M658.746 608.412C649.334 608.02 642.275 600.177 643.06 590.765L643.452 579.785C643.844 570.373 651.687 563.314 661.099 564.099C670.51 564.491 677.569 572.334 676.785 581.746L676.393 592.726C676.001 601.746 668.158 608.804 658.746 608.412Z" fill="black"/>
<path d="M823.842 614.295C815.215 613.903 808.548 606.452 808.94 597.824L809.332 587.628C809.725 579.001 817.176 572.334 825.803 572.726C834.43 573.119 841.097 580.57 840.705 589.197L840.313 599.393C839.921 608.02 832.47 614.687 823.842 614.295Z" fill="black"/>
<path d="M694.04 587.236C681.099 578.608 666.981 572.726 651.295 575.863C646.197 576.647 641.099 578.216 637.962 581.746C636.785 583.314 634.04 582.922 634.04 580.569C634.432 572.726 641.099 567.628 647.373 564.491C659.53 558.216 676.393 559.393 687.373 567.628C691.295 569.981 704.628 584.491 697.569 587.628C696.001 588.412 695.217 588.02 694.04 587.236Z" fill="black"/>
<path d="M806.196 589.197C806.196 572.726 826.588 566.844 839.137 572.726C846.196 575.863 851.294 582.138 853.255 589.589C854.039 591.942 850.51 593.903 848.941 591.942C842.275 584.099 830.902 580.177 821.883 584.883C819.137 586.452 818.745 587.628 817.961 589.197C817.961 597.04 806.588 596.648 806.196 589.197Z" fill="black"/>
<path d="M712.863 522.53C721.098 525.275 729.334 517.824 727.765 508.804C726.981 504.098 725.02 499.392 721.098 495.863C709.334 485.275 660.706 475.863 631.295 489.589C605.412 502.138 675.216 509.981 712.863 522.53Z" fill="black"/>
<path d="M830.12 528.804C823.453 531.157 816.394 524.098 817.571 515.863C817.963 511.549 819.532 507.236 822.669 504.098C832.081 494.687 864.237 487.236 884.63 501.745C902.277 513.902 860.708 517.432 830.12 528.804Z" fill="black"/>
<path d="M926.98 396.254C953.646 373.117 992.862 338.215 952.47 289.588C912.078 240.96 837.568 259.784 837.568 259.784C837.568 259.784 853.254 215.078 809.725 199C757.176 179.784 608.156 237.823 608.156 237.823C597.176 237.431 586.588 237.039 576.784 237.039C448.156 234.294 410.901 315.47 409.333 388.411C409.333 388.411 365.803 402.921 354.823 472.333C351.294 494.686 347.764 523.313 356.392 557.823C379.529 651.941 441.882 717.431 481.49 750.764C496.392 739.784 470.117 724.49 472.078 706.451C386.98 664.882 405.411 564.098 450.901 558.215C485.803 553.901 504.235 574.294 512.862 590.764C516.392 595.47 469.333 333.117 740.705 419C794.431 435.862 849.725 450.764 887.372 423.705C891.686 431.941 894.431 441.745 895.215 456.254C895.215 456.254 960.705 430.764 950.901 404.098C947.764 395.078 926.98 396.254 926.98 396.254Z" fill="black"/>
</g>
</svg>
