<svg width="1300" height="1300" viewBox="0 0 1300 1300" fill="none" xmlns="http://www.w3.org/2000/svg">
<mask id="mask0_486_2267" style="mask-type:alpha" maskUnits="userSpaceOnUse" x="0" y="0" width="1296" height="1296">
<circle cx="647.869" cy="647.869" r="647.869" fill="#D9D9D9"/>
</mask>
<g mask="url(#mask0_486_2267)">
<path d="M1003.04 1182.75C1000.07 1184.87 996.667 1186.99 993.693 1189.12C990.295 1191.24 987.321 1193.37 983.922 1195.07C980.948 1196.77 978.399 1198.47 975.425 1200.16C975 1200.59 974.576 1200.59 974.151 1201.01C964.38 1206.96 954.183 1212.48 943.987 1217.58C941.013 1219.28 937.615 1220.98 934.641 1222.26C934.641 1222.26 934.216 1222.68 933.791 1222.68C930.393 1224.38 926.994 1226.08 923.595 1227.78C916.798 1231.18 909.576 1234.15 902.778 1237.13C899.38 1238.82 895.556 1240.1 892.157 1241.37C888.759 1242.65 884.935 1244.35 881.536 1245.62C878.138 1246.9 874.314 1248.6 870.915 1249.87C870.915 1249.87 870.915 1249.87 870.491 1249.87C867.092 1251.14 863.268 1252.42 859.87 1253.69C852.223 1256.24 844.151 1258.79 836.504 1261.34C833.955 1262.19 830.981 1263.04 828.432 1263.89C820.36 1266.44 812.288 1268.56 804.216 1270.26C801.242 1271.11 798.268 1271.54 794.87 1272.39C787.223 1274.09 779.151 1275.79 771.504 1277.48C769.804 1277.91 768.53 1277.91 766.831 1278.33C764.281 1278.76 761.308 1279.18 758.759 1279.61C754.935 1280.03 751.536 1280.88 747.713 1281.31C746.014 1281.73 744.314 1281.73 742.615 1282.16C740.491 1282.58 737.942 1283.01 735.393 1283.01C728.595 1283.86 721.373 1284.71 714.576 1285.56C712.451 1285.98 709.902 1285.98 707.778 1286.41H707.353C704.38 1286.83 701.406 1286.83 698.432 1287.26C695.458 1287.68 692.484 1287.68 689.51 1287.68C687.811 1287.68 685.687 1288.11 683.987 1288.11C680.589 1288.11 677.615 1288.53 674.641 1288.53C670.393 1288.53 666.569 1288.96 662.321 1288.96C658.072 1288.96 654.249 1288.96 650 1288.96C647.027 1288.96 644.053 1288.96 641.079 1288.96C461.798 1286.41 300.785 1210.36 185.654 1089.71C185.654 1089.71 185.654 1089.28 185.229 1089.28C172.484 1077.81 183.53 1016.64 234.935 977.975C299.51 929.119 454.151 898.531 454.151 898.531C454.151 898.531 514.053 888.759 736.242 935.066C866.242 962.256 965.229 1001.77 1020.46 1108.82C1031.93 1130.92 1043.4 1164.9 1003.04 1182.75Z" fill="white"/>
<path d="M737.517 930.393C819.086 946.961 906.177 964.805 973.301 1018.76C995.818 1037.03 1010.69 1063.79 1023.01 1089.71C1028.96 1102.45 1034.9 1115.62 1039.58 1129.64C1042.12 1138.99 1045.95 1149.61 1043.82 1160.65C1043.4 1163.63 1040.85 1167.45 1038.73 1169.58C1028.96 1179.35 1018.33 1185.29 1007.71 1192.94C945.262 1236.28 873.465 1266.86 799.118 1283.01C633.432 1319.12 454.151 1291.08 308.432 1203.99C260.001 1174.67 215.393 1138.99 177.158 1096.93C172.909 1091.83 172.909 1083.33 172.909 1077.81C173.334 1065.07 176.733 1052.75 180.981 1041.28C191.177 1014.94 204.347 988.595 226.863 970.327C243.007 959.282 260.426 949.935 278.269 942.288C334.347 918.497 393.399 901.929 454.151 895.131C459.249 894.706 460.099 901.929 455.001 902.778C396.798 914.674 339.02 932.517 285.066 956.733C265.524 966.504 244.707 975.001 228.988 990.295C214.118 1006.44 203.497 1026.41 195.001 1046.8C189.478 1059.12 185.654 1078.66 187.354 1088.43C214.118 1120.29 245.556 1148.33 279.543 1172.55C465.622 1302.55 748.138 1311.05 946.112 1202.71C963.955 1192.94 981.373 1181.9 997.942 1170.43C1006.01 1164.9 1014.51 1160.23 1020.88 1153.86C1021.31 1153.43 1020.88 1153.86 1020.88 1154.28C1020.88 1154.71 1020.46 1155.13 1020.46 1155.13C1020.88 1150.03 1019.18 1143.24 1017.06 1136.44C1009.41 1111.8 997.092 1085.88 983.922 1063.37C963.105 1029.8 927.844 1008.56 892.158 991.569C867.517 980.099 841.602 971.177 815.262 962.68C788.922 954.184 762.158 946.961 735.393 940.589C728.596 938.889 730.72 929.118 737.517 930.393Z" fill="black"/>
<path d="M1144.09 1446.14H69.6758C69.6758 1446.14 132.976 1312.74 161.016 1160.65C180.558 1055.29 195.003 993.692 249.807 959.705C288.467 935.915 397.225 901.503 474.545 890.457C505.983 886.209 568.434 881.536 622.388 885.784C663.173 890.882 747.29 914.673 779.578 923.594C828.009 937.189 932.944 977.549 979.251 1020.03C997.519 1037.03 1040.85 1121.99 1068.89 1245.2C1101.18 1385.39 1144.09 1446.14 1144.09 1446.14Z" fill="white"/>
<path d="M1153.86 1451.24C833.956 1453.79 385.328 1459.74 70.0994 1459.31C60.753 1459.74 53.9556 1449.12 58.204 1440.62C65.851 1424.48 73.0733 1407.91 79.8706 1390.92C110.459 1315.29 136.374 1237.55 152.093 1157.68C164.838 1095.23 175.034 1025.56 222.191 978.399C235.361 965.229 251.505 955.033 268.073 947.386C301.635 932.092 336.047 919.347 370.884 908.301C440.982 885.36 515.328 875.588 589.25 876.863C626.21 876.863 663.596 882.811 699.707 891.307C715.426 894.281 737.518 901.079 752.812 905.327L765.982 909.15C768.531 910.425 769.38 915.523 770.655 918.072C771.505 919.771 772.354 920.196 773.629 920.621C775.753 921.046 779.152 918.072 781.276 918.922C824.184 931.667 865.394 950.36 904.903 971.177C932.943 986.896 961.831 1002.19 984.773 1025.13C1004.74 1050.62 1020.88 1079.08 1035.75 1107.97C1071.86 1182.32 1082.06 1266.44 1109.67 1343.33C1119.87 1372.65 1131.77 1401.96 1146.21 1429.58L1149.18 1435.1L1150.88 1438.07L1151.73 1439.35L1152.16 1440.2C1154.71 1441.9 1155.56 1448.27 1153.86 1451.24ZM1134.32 1441.05C1132.19 1443.59 1132.62 1449.12 1134.32 1451.24L1133.89 1450.39L1133.04 1448.69L1131.34 1445.72C1113.92 1415.13 1101.6 1382.42 1090.56 1349.28C1061.67 1262.61 1052.32 1170 1011.54 1087.58C1001.34 1066.76 991.145 1045.52 975.851 1028.1C966.929 1020.03 957.158 1013.24 946.962 1006.86C901.08 978.824 849.675 959.706 799.119 941.438C794.871 939.739 784.25 936.34 780.001 935.065C776.603 934.216 775.328 933.791 774.479 929.543C773.629 926.144 772.779 921.895 768.956 923.595C766.831 924.445 763.008 929.543 760.459 929.118C751.962 926.994 729.446 921.046 720.949 918.922C688.237 910.425 655.949 899.804 622.812 893.431C520.851 884.51 418.89 902.353 321.603 932.516C288.041 943.987 251.08 954.608 226.864 982.222C184.805 1034.48 177.583 1122.42 164.413 1187.42C146.145 1277.91 118.531 1365.85 81.57 1451.24L69.6746 1432.55C377.256 1433.82 822.485 1437.65 1134.32 1441.05Z" fill="black"/>
<path d="M461.373 933.366C448.203 934.641 434.183 937.614 422.288 944.412C421.013 945.261 419.314 943.137 420.589 942.288C431.634 932.516 445.654 926.993 459.249 922.745C462.223 921.895 465.196 923.595 465.621 926.569C466.896 929.967 464.772 933.366 461.373 933.366Z" fill="black"/>
<path d="M495.361 987.746C480.067 991.145 465.198 998.367 452.878 1008.56C443.106 1010.26 467.747 990.295 469.446 989.446C476.668 984.348 483.891 980.524 492.387 977.125C494.936 976.276 498.335 977.55 499.185 980.099C500.884 983.923 498.76 987.321 495.361 987.746Z" fill="black"/>
<path d="M550.162 1042.12C537.842 1051.9 527.221 1065.07 520.423 1079.51C519.998 1080.36 518.724 1080.78 517.874 1080.36C517.025 1079.93 516.6 1079.08 517.025 1078.24C519.574 1070.16 522.972 1062.09 527.645 1054.87C532.319 1047.22 537.417 1040.42 543.364 1034.05C545.489 1031.93 548.887 1031.93 551.011 1034.05C553.136 1036.18 553.136 1040.42 550.162 1042.12Z" fill="black"/>
<path d="M641.929 1084.18C634.706 1099.48 629.183 1116.05 628.334 1133.04C628.334 1136.01 623.236 1136.01 623.236 1133.04C622.386 1119.44 624.51 1105.85 628.334 1093.1C630.458 1088.01 630.883 1074.41 639.38 1076.96C641.929 1077.81 643.203 1081.21 641.929 1084.18Z" fill="black"/>
<path d="M739.214 1085.88C741.763 1091.83 761.306 1139.41 751.959 1139.84C750.685 1139.84 749.41 1138.99 749.41 1137.71C748.985 1133.46 747.711 1129.64 746.011 1125.39C741.763 1113.5 735.815 1101.6 729.443 1090.56C726.469 1084.18 736.24 1079.09 739.214 1085.88Z" fill="black"/>
<path d="M779.576 991.993C795.295 994.967 808.465 1004.31 818.236 1016.21C818.661 1016.63 818.661 1017.91 818.236 1018.33C817.811 1018.76 816.961 1018.76 816.112 1018.33C805.916 1009.41 792.321 1003.04 778.726 1002.61C770.654 1002.19 771.929 990.719 779.576 991.993Z" fill="black"/>
<path d="M764.28 942.289C777.45 945.687 789.77 951.21 799.542 960.557C800.391 961.406 800.391 962.681 799.542 963.53C798.692 964.38 797.842 964.38 796.993 963.955C786.797 957.158 774.476 953.759 762.581 952.91C754.934 952.06 756.633 940.589 764.28 942.289Z" fill="black"/>
<path d="M779.576 1051.9C791.471 1061.67 803.366 1071.86 811.014 1085.46C811.438 1085.88 811.014 1086.73 810.589 1087.16C810.164 1087.58 809.314 1087.16 808.889 1086.73C799.543 1075.26 786.798 1067.61 774.053 1060.39C767.255 1056.99 773.203 1047.22 779.576 1051.9Z" fill="black"/>
<path d="M777.449 1043.4C768.527 1087.16 710.749 1113.5 613.462 1073.99C512.351 1033.2 468.593 935.914 457.547 907.026C517.449 794.869 475.815 717.124 475.815 717.124C613.887 705.228 734.54 866.666 734.54 866.666L753.233 946.535C754.933 953.333 758.331 959.28 763.429 963.529C772.351 979.248 782.972 1015.36 777.449 1043.4Z" fill="white"/>
<path d="M455.425 908.3C463.497 895.979 468.595 881.535 471.993 867.515C478.366 838.202 480.49 808.463 480.915 778.724V767.679C479.64 756.633 475.817 745.162 471.568 734.966C466.046 721.372 486.013 712.875 492.385 726.47C493.235 728.169 493.235 731.143 493.235 732.842C494.51 790.62 497.059 864.966 460.523 912.973C457.974 915.522 452.876 911.698 455.425 908.3Z" fill="black"/>
<path d="M739.214 865.817C745.587 869.64 747.711 874.738 748.561 879.836C751.11 890.032 750.26 901.078 752.809 911.699C754.933 921.895 761.306 931.666 763.005 942.287C765.129 953.333 771.502 976.699 774.051 988.17C774.901 990.719 773.201 993.693 770.227 994.117C768.528 994.542 767.254 994.117 765.979 993.268C760.456 988.595 757.907 983.921 754.509 977.974C748.986 967.778 745.162 958.431 741.763 946.96C738.79 936.764 740.064 925.719 737.515 915.098C735.391 904.902 729.443 895.13 727.319 884.51C726.044 879.411 725.62 873.889 729.443 867.516C731.992 864.967 736.241 864.117 739.214 865.817Z" fill="black"/>
<path d="M769.804 977.974C688.66 973.725 622.386 948.235 557.811 833.104C612.19 881.111 676.34 899.379 743.889 907.876L752.81 946.961C754.51 953.758 764.706 973.725 769.804 977.974Z" fill="black"/>
<path d="M766.407 962.255C780.851 989.444 789.348 1023.43 780.426 1053.59C773.629 1074.84 754.087 1090.56 732.845 1096.5C683.564 1109.67 626.636 1088.86 582.877 1065.49C528.923 1035.33 488.989 984.771 463.498 929.542C461.799 925.294 467.747 921.895 470.296 926.144C479.217 943.987 489.413 961.405 500.884 977.124C512.355 993.268 525.524 1008.14 540.394 1021.31C583.727 1060.39 642.355 1084.61 700.982 1084.61C761.309 1082.91 784.25 1051.05 770.23 992.418C768.106 983.072 764.707 973.301 760.034 965.229C757.485 961.83 763.858 958.006 766.407 962.255Z" fill="black"/>
<path d="M930.818 452.026C938.465 487.712 942.289 516.601 921.472 611.764C901.079 706.503 940.589 802.091 840.328 889.183C772.779 947.81 654.674 958.856 560.361 894.705C528.498 873.039 520.001 771.928 494.936 733.267C484.315 717.124 477.942 743.039 453.727 716.274C420.165 679.738 379.805 606.241 399.772 476.241C432.06 265.522 599.021 240.882 722.648 264.248C846.7 287.614 910.426 358.137 930.818 452.026Z" fill="white"/>
<path d="M474.542 753.66C464.771 737.516 452.451 723.497 440.98 708.627C423.987 685.686 411.242 659.346 402.745 632.157C366.209 515.751 385.751 364.085 493.66 291.438C593.497 223.889 784.248 244.281 871.765 325.849C915.523 365.359 939.738 422.712 944.836 480.49C947.385 519.15 938.039 556.536 929.967 593.921C920.621 630.457 918.497 666.993 918.497 704.804C918.072 742.614 916.372 782.124 901.928 817.81C879.836 872.189 833.529 916.372 777.876 935.065C704.804 960.555 618.562 946.111 558.66 897.255C556.111 895.131 558.66 891.732 561.634 893.006C640.229 937.614 743.464 945.261 819.934 893.856C865.392 863.268 896.83 814.836 904.052 760.457C910 723.497 908.301 686.111 911.699 648.725C912.974 632.157 917.647 609.216 921.046 592.647C926.144 565.032 929.542 537.418 929.117 509.804C928.693 482.614 922.745 455.849 914.673 429.934C886.634 337.745 806.34 283.366 713.725 268.497C575.229 244.281 454.15 295.686 418.039 439.706C402.32 510.229 390 587.974 419.738 656.372C430.359 682.287 447.778 704.379 467.745 723.497L487.287 744.314C495.784 752.81 481.34 763.856 474.542 753.66Z" fill="black"/>
<path d="M524.671 618.561C524.671 618.561 511.501 554.836 449.475 562.483C395.945 569.28 377.253 697.581 498.756 733.267" fill="white"/>
<path d="M493.234 677.613C483.463 672.091 476.666 662.744 476.241 651.274C476.666 642.777 477.94 633.006 475.816 624.509C474.541 616.437 466.045 614.313 459.672 614.738C452.875 616.012 448.626 624.509 447.352 631.306C447.352 631.731 446.927 633.006 446.927 633.43C446.502 635.555 443.103 635.555 442.254 633.43C436.731 616.862 449.051 598.594 466.894 600.718C491.96 602.417 495.358 628.757 490.685 648.725C488.136 657.221 491.535 664.868 496.208 672.091L497.058 673.365C499.182 675.914 495.783 679.313 493.234 677.613Z" fill="black"/>
<path d="M833.103 573.529C839.476 603.692 851.371 631.731 866.24 658.071C879.41 690.359 845.423 720.947 815.26 719.672C811.861 719.672 811.436 714.999 814.41 714.15C833.528 708.202 850.946 695.457 853.92 675.914C855.194 669.967 853.495 664.869 850.521 659.771C836.502 633.431 828.005 603.267 830.129 573.529C830.129 571.405 833.103 571.405 833.103 573.529Z" fill="black"/>
<path d="M522.549 618.987C512.777 593.922 491.536 570.131 463.072 570.556C460.523 570.131 456.274 570.98 453.725 570.98C446.503 571.405 440.555 573.954 435.032 579.052C407.843 606.242 412.516 654.248 434.608 684.412C442.255 695.033 452.026 704.379 463.072 712.026C474.117 719.673 486.438 725.621 499.608 730.719C502.581 731.569 501.307 736.242 498.333 735.817C469.869 729.869 442.679 715.85 423.987 692.484C395.098 657.647 389.15 599.445 423.562 565.458C431.209 558.66 441.83 553.562 452.451 553.562C455.849 553.562 460.947 552.713 464.346 553.562C482.189 554.412 499.183 563.333 510.228 577.353C520 589.248 525.523 603.693 527.222 618.137C527.222 620.686 523.398 621.536 522.549 618.987Z" fill="black"/>
<path d="M804.639 760.033C797.416 765.131 786.796 760.883 779.149 764.282C773.626 765.981 764.704 773.628 751.959 772.778C741.763 771.929 736.665 766.831 728.168 763.007C719.247 760.033 709.9 754.51 703.952 747.288C702.678 746.014 702.678 744.314 703.952 743.04C705.652 741.34 707.351 742.615 709.05 743.465C712.874 745.589 715.848 747.288 718.822 748.138C721.796 748.988 724.769 748.138 729.443 748.138C734.116 747.713 740.913 749.837 745.162 753.236C748.135 755.36 751.534 756.635 754.083 757.059C760.881 758.334 769.377 752.811 776.6 751.961C781.698 751.112 787.22 751.537 791.469 752.811C795.717 754.086 798.691 754.935 802.09 754.086C805.913 753.236 808.037 758.334 804.639 760.033Z" fill="black"/>
<path d="M737.09 528.497C746.436 529.771 753.658 520 750.26 510.654C748.56 505.556 745.586 500.883 740.913 497.909C726.469 488.987 672.514 488.137 644.05 508.53C618.56 527.222 694.606 522.549 737.09 528.497Z" fill="black"/>
<path d="M854.769 533.17C847.122 533.17 842.449 523.399 846.273 515.327C848.397 511.079 851.371 507.255 855.619 505.131C868.789 498.758 904.05 502.582 919.769 524.249C933.789 543.366 890.031 532.745 854.769 533.17Z" fill="black"/>
<path d="M723.072 584.575C708.203 597.745 685.261 597.745 667.418 590.947C664.444 589.673 647.451 582.026 650.85 577.777C651.274 577.353 652.124 576.928 652.549 576.928C664.444 577.353 675.49 578.627 686.961 579.477C698.431 580.326 708.627 579.902 720.523 579.477C723.497 579.477 725.196 582.875 723.072 584.575Z" fill="black"/>
<path d="M890.88 591.798C877.285 607.517 849.671 605.392 836.926 590.098C835.651 588.824 836.926 586.275 838.625 586.7C843.298 587.124 847.547 587.974 851.795 588.399C864.54 590.523 875.161 590.098 888.756 589.673C890.88 588.824 891.73 590.948 890.88 591.798Z" fill="black"/>
<path d="M985.621 480.49C973.725 517.451 945.261 548.464 926.993 569.281C931.242 549.313 927.418 537.418 928.268 523.398C929.542 504.281 936.34 483.039 935.065 474.542C934.216 466.895 932.516 459.673 930.817 452.026C928.693 442.679 926.144 433.758 923.17 424.836C856.471 489.836 742.189 425.686 742.189 425.686C742.189 425.686 717.974 445.653 675.49 440.98C630.033 436.307 617.712 408.268 617.712 408.268C605.392 494.085 524.248 461.372 539.118 546.764C543.366 570.13 543.366 592.647 523.399 616.013C520 604.117 503.431 555.686 449.052 562.483C397.647 568.856 378.104 687.81 484.314 728.594C483.039 768.104 487.287 821.634 483.039 807.614C453.301 715.849 393.823 730.294 365.784 661.045C352.614 627.908 354.738 598.594 361.536 576.928C368.333 556.111 367.908 533.594 361.111 512.777C353.464 488.562 347.516 452.026 361.536 407.843C385.327 332.222 436.307 314.804 449.477 305.882C462.647 296.96 456.274 215.392 548.464 189.902C621.961 169.509 677.189 212.418 693.333 209.444C709.477 206.47 822.484 132.124 909.575 202.222C993.693 270.196 962.255 350.49 962.255 350.49C962.255 350.49 1014.51 390.849 985.621 480.49Z" fill="black"/>
<path d="M477.092 631.732C477.092 631.732 443.105 626.634 445.654 674.216C446.928 698.431 446.928 711.601 446.503 718.399C446.078 723.072 449.052 727.32 453.301 729.02C458.399 731.144 463.922 729.02 466.471 723.922C470.294 717.124 474.543 707.778 474.543 700.131C474.543 687.386 488.137 675.915 488.137 675.915C488.137 675.915 475.817 665.294 477.092 631.732Z" fill="white"/>
<path d="M475.817 633.007C475.817 633.432 476.242 633.856 476.667 633.856C476.667 633.856 476.667 633.856 476.242 633.856H475.392C455 635.556 448.627 653.399 449.477 671.667C449.902 683.562 450.752 695.458 450.327 706.928C451.176 713.301 447.353 721.798 453.725 725.196C457.549 727.32 462.647 725.621 464.346 721.373C468.17 713.726 471.993 706.079 471.993 697.582C473.693 687.811 480.065 680.164 486.863 674.216V677.615C477.941 668.268 475.817 655.523 474.542 643.628C474.967 640.654 474.967 635.981 475.817 633.007ZM478.791 630.033C480.065 641.928 480.065 654.249 485.163 664.869C486.438 667.843 488.562 671.242 491.111 673.366C492.81 674.641 492.81 677.19 491.111 678.464C485.163 683.987 480.065 690.785 479.216 698.432C479.216 707.778 475.392 716.7 471.144 724.771C467.745 731.994 457.974 735.817 450.752 731.569C446.078 729.02 442.68 723.922 442.68 718.399C442.68 714.151 443.105 710.752 443.105 706.503C443.105 694.608 442.255 683.137 441.83 671.242C441.83 663.595 442.255 654.673 445.654 647.026C449.902 635.131 463.072 627.059 475.817 629.183C477.092 629.183 478.366 629.608 478.791 630.033Z" fill="black"/>
<path d="M471.569 1134.74C485.588 1073.56 467.32 1004.74 451.601 943.562C445.229 919.347 438.856 896.405 435.882 876.438C430.36 842.876 434.183 811.013 447.778 781.275C464.346 744.314 461.797 712.876 461.797 711.602L453.301 712.451C453.301 712.876 455.85 743.464 440.131 777.876C426.111 808.889 421.863 842.451 427.386 877.713C430.784 898.105 436.732 921.471 443.105 945.687C458.824 1005.59 476.667 1073.56 463.072 1132.61C455.425 1165.33 470.294 1218.86 491.536 1272.39C494.935 1272.81 497.909 1273.24 501.307 1273.66C479.641 1220.13 464.346 1166.18 471.569 1134.74Z" fill="black"/>
<path d="M446.929 698.856C447.353 708.203 446.929 714.575 446.929 718.399C446.504 723.072 449.478 727.321 453.726 729.02C458.824 731.144 464.347 729.02 466.896 723.922C470.719 717.124 474.968 707.778 474.968 700.131C474.968 699.706 474.968 698.856 474.968 698.432C466.471 701.83 456.275 704.379 446.929 698.856Z" fill="white"/>
<path d="M448.203 700.556C448.628 706.504 449.053 712.026 449.053 717.974C448.628 720.523 449.477 723.072 451.177 725.196C456.7 730.719 464.347 727.321 466.471 720.523C469.869 713.726 472.843 706.504 472.843 698.857L475.817 700.981C466.471 702.68 456.7 705.229 447.778 701.406C447.778 701.406 448.203 700.981 448.203 700.556ZM446.079 696.732C446.928 696.732 448.628 697.157 449.477 698.007C457.124 703.53 466.896 700.981 474.543 696.732C475.817 695.883 477.941 697.157 477.517 698.857C477.092 708.628 473.268 717.974 468.17 726.471C463.497 732.843 453.726 733.268 448.203 727.745C445.654 725.196 444.379 720.948 444.804 717.549C444.804 710.327 445.654 703.53 446.079 696.732Z" fill="black"/>
<path d="M847.124 981.372C854.347 931.242 847.549 895.555 845 884.935C843.726 885.784 842.876 887.059 841.602 887.908C840.327 889.183 839.053 890.033 837.778 891.307C840.327 904.902 845 937.189 838.628 980.098C835.654 1000.07 834.804 1031.5 834.379 1068.04C833.53 1103.3 822.484 1191.24 809.314 1274.51C812.288 1273.66 815.262 1272.81 818.236 1272.39C831.405 1189.97 842.026 1103.73 842.876 1068.46C843.726 1031.93 844.151 1000.91 847.124 981.372Z" fill="black"/>
<path d="M1224.38 358.137C1482.25 854.771 1028.95 1415.13 488.562 1278.33C245.98 1218.01 50.9803 1007.71 10.6208 760.882C-35.2615 515.327 75.6208 251.503 282.941 112.582C567.157 -82.8433 960.98 -17.8433 1164.48 261.699C1165.75 262.974 1165.33 265.098 1163.63 266.372C1162.35 267.647 1160.23 267.222 1158.95 265.523C1130.91 229.412 1099.05 196.699 1064.22 167.385C1006.86 118.529 939.738 80.2939 868.791 54.3789C507.68 -76.4708 111.307 141.046 32.2875 518.725C-56.9282 941.863 302.908 1331.44 731.993 1273.24C1062.94 1231.6 1308.92 926.144 1281.73 593.921C1275.78 513.627 1254.54 434.183 1219.28 361.111C1218.43 359.836 1219.28 358.137 1220.56 357.287C1221.83 356.438 1223.53 356.863 1224.38 358.137Z" fill="black"/>
</g>
</svg>
